<?xml version="1.0" standalone="no"?>
<!DOCTYPE svg PUBLIC "-//W3C//DTD SVG 1.1//EN" "http://www.w3.org/Graphics/SVG/1.1/DTD/svg11.dtd" >
<svg xmlns="http://www.w3.org/2000/svg">
<metadata>
This is a custom SVG webfont generated by Font Squirrel.
</metadata>
<defs>
<font id="webfontzobVPYaW" horiz-adv-x="500" >
<font-face units-per-em="1000" ascent="800" descent="-200" />
<missing-glyph horiz-adv-x="273" />
<glyph unicode=" "  horiz-adv-x="273" />
<glyph unicode="&#x09;" horiz-adv-x="273" />
<glyph unicode="&#xa0;" horiz-adv-x="273" />
<glyph unicode="!" horiz-adv-x="295" d="M226 577q0 -22 -5.5 -33.5l-13.5 -29.5q-6 -10 -14 -31q-6 -39 -5 -73q0 -2 2 -14.5t1 -18.5l-3 -21t-2 -15t2.5 -15.5t2.5 -16.5q0 -6 -15 -36q-25 -5 -20 -5q-7 0 -22 11q-4 6 -4 14q0 24 1 21q-6 9 -12 28q5 12 2 36q-8 12 -13 30q-6 26 -9 32q-4 3 -11 12l-4 23 q-2 5 -14 30q-9 18 -9 29v30q-1 12 -1 10q0 14 11 35t20 27q7 2 21 7q7 5 20.5 11.5t22.5 6.5t20 -9q7 -9 23 -24q7 -3 20 -12q8 -48 8 -39zM252 78q0 -7 -5.5 -13.5t-6.5 -16.5t-7 -26q-2 -2 -26 -22q-4 -6 -13 -15q-12 -10 -19 -10q-1 0 -9 5t-10 5q-1 0 -9 -2t-10 -2 q-18 0 -39 9q-7 3 -19 12q-1 1 -7 14q-3 8 -12 12q-5 8 -6 18q-3 24 -3 29q0 16 9 35q5 4 11 11l8.5 14t28.5 21q4 4 10 8q18 6 20 6q1 0 7.5 -1.5t8.5 -1.5t11 3t10 3q18 0 40 -11q9 -5 17 -18q1 -2 4 -24q3 -10 9.5 -24.5t6.5 -17.5z" />
<glyph unicode="&#x22;" horiz-adv-x="422" d="M378 515q0 -15 -6 -33q-4 -8 -4 -19q0 -5 2 -22.5t1 -28.5q-5 -10 -12 -30q0 -5 2 -23q3 -14 -6.5 -33.5t-46.5 -19.5q3 0 -24 10q-9 25 -25 75q-6 26 -6 82v44q0 1 2.5 11t2.5 13q0 10 -1 32t-1 20q0 2 2.5 14t2.5 13v37q0 9 10.5 15t16.5 6q2 0 7.5 -1t6.5 -1 q9 0 25 11q8 -3 20 -12q2 -7 6 -23q6 -9 15 -28q6 -16 6 -74q0 -7 2 -21zM162 539q0 -1 -4.5 -28t-4.5 -29q0 -1 1.5 -7.5t1.5 -9.5v-27q0 -3 1.5 -10.5t1.5 -9.5q0 -7 -9 -23.5t-9 -23.5q1 -7 0 -22q0 -16 -6 -23q-48 -11 -40 -11q-1 0 -10 3.5t-13 4.5q-5 35 -5 26v37 q0 7 -6 34q-5 24 -3 36v9q-3 8 -6.5 21.5t-5.5 39t-2 72.5q0 32 22 57q3 3 22.5 9.5t26.5 6.5q2 0 16 -14.5t20 -24.5l3 -24q1 -12 4 -39q4 -31 4 -30z" />
<glyph unicode="#" horiz-adv-x="637" d="M624 315q0 -14 -7 -14q-1 0 -6 1t-7 1t-25.5 -4t-24.5 -4t-7 1h-7t-15.5 -2t-14.5 -2t-8.5 1.5t-9.5 1.5q-6 0 -31 -16t-27 -25q-4 -17 -4 -39q0 -37 16 -44q7 -3 41 -3q2 0 13 4t12 4q2 0 5 -2.5t4 -2.5q57 -19 57 -35q0 -10 -8 -11.5t-15 -2.5q-31 -18 -62 -18 q-2 0 -26.5 3.5t-26.5 3.5q-33 0 -50 -16q0 -2 3 -16q2 -12 0 -18q-7 -7 -19 -24q-1 -7 -2 -22t-3 -29q-2 -19 -9 -30q-7 -7 -23 -21q-3 -5 -3 -14q0 -2 6 -20t6 -19q0 -7 -5.5 -13.5t-7 -17t-3.5 -27.5q-1 -12 -7 -35q-3 -6 -22 -25q-3 -1 -11 -5q-4 -4 -13 -8 q-13 -3 -18 -3q-10 0 -23 18q5 5 5 12q1 20 11 65l6 37q9 4 11.5 22t9 22t17.5 18q-4 8 6 25q1 1 0 23q0 17 13 17q4 0 5 -1q5 5 10.5 11.5t5.5 12.5t-4.5 13.5t-4.5 8.5q0 10 -1 31q-3 7 -8.5 21t-31.5 22q-5 5 -5 10q0 6 9 11q5 4 15 4h17t35 24q9 3 23 14q7 7 7 22 q0 7 -4.5 14.5t-4.5 21.5q0 8 9 26q-7 14 -54 30q-10 6 -30 14h-25q-11 -11 -9 -11q-3 0 -10 -1q-10 -6 -19 -19q-1 -4 -2 -11.5t-2 -18.5l-15 -52q0 -6 -1 -17q-1 -3 -3 -9.5t-2 -8.5q9 -13 22 -26q4 -4 10 -4q2 0 6.5 1t5.5 1q9 0 9 -8q0 -5 -3 -7q-6 -1 -17 -5 q-4 -4 -12 -10q-4 0 -13 -3q-2 -6 -6 -14q0 -3 -3 -8l-19 -13q-3 -6 -10 -18q-2 -3 -15 -13q2 -5 0 -12q-4 0 -6 4q-2 0 -4 -2q-3 -12 -3 -13q0 -2 2.5 -13t2.5 -12q0 -19 -10 -46l-6 -6q-7 -17 -10 -31q-1 -23 -6 -69q-3 -4 -4.5 -12t-3.5 -22t-9 -40q-1 -2 -12.5 -9.5 t-13.5 -7.5q-14 0 -18.5 2t-14.5 17t-10 17q0 25 2 33q3 5 8 15q2 9 8.5 25t21.5 45q0 3 2 8q26 43 37 41q-1 -5 -1 24q0 8 1 11q6 10 7 20t2 19q0 3 8 27q3 3 8 10q5 13 12 37q-26 18 -29 18q5 0 -10 -5q-10 -2 -18 -2q-1 0 -16.5 1.5t-17.5 1.5q-21 0 -44 -13 q-13 14 -13 28q0 24 13 35q9 -6 28 -14q14 -1 39 -6t24 -5q1 0 9.5 1t11.5 1q2 4 7 8q11 7 27 22q5 12 17 34q3 2 7 7q2 2 2 9q12 2 12 12q0 3 -2 6q10 6 11.5 22.5t4.5 21.5q-2 0 -8 2q-2 2 -4.5 7t-3.5 6t-7 2t-6 3v3q-1 1 -9 1q-11 0 -16.5 -6t-10.5 -6q-2 0 -13 1.5 t-12 1.5q-5 0 -19 -3q-5 -3 -13 -7q-9 0 -25 -2q-15 -6 -19 -6q-13 0 -13 15q0 4 1 8t13 11l1 2.5t2 3.5q5 9 26 9q2 0 8 -1t7 -1q2 0 5.5 3t4.5 3q8 0 14 -12q2 4 17 4q11 0 12.5 -0.5t3.5 -2t4 -1.5t4.5 1.5t3.5 1.5q9 -1 27 1q25 6 49 39v33q0 5 6 13q2 6 10 6q4 7 10 22 q0 8 1 24q1 3 5 11.5t4 10.5v45q0 4 9 28q3 6 13 6q1 2 2.5 5.5t2.5 5.5v3q-15 0 -15 13q0 1 3 12.5l4 15.5q0 10 2 28l15 22q1 7 5 19q5 5 17 11q2 1 2 5q5 -4 12 -13q2 -11 2 -28q0 -5 -6 -22.5t-8 -19.5q-5 -3 -11 -10q0 -7 -1 -23q0 -2 -15 -49q0 -3 -1 -10 q0 -1 -1.5 -3.5t-1.5 -4.5q0 -6 -1 -20q0 -1 -1.5 -3.5t-1.5 -4.5q0 -14 -8 -36q-1 -4 -3 -13q-3 -5 -9 -13q-16 -35 -16 -40v-34l12.5 -12.5t4.5 -11.5q23 0 30 -7q21 13 24 13q2 0 21.5 -4t20.5 -4q3 0 12 7.5t10 9.5q3 16 18 50q-1 14 2 34q12 10 33 30q1 4 5 12l15 15 t7 15q0 -4 -12 25q-7 17 -7 32q0 9 6 15q11 12 12 14q-2 -6 -2 9q0 5 5 15.5t23 28.5q8 5 17 9q3 3 3 11q0 2 -15 22q0 5 6.5 10t11.5 5q7 0 12.5 -5t6 -17t1.5 -14q-14 -4 -14 -16q0 -1 3 -17.5t3 -18.5q0 -1 -3 -13.5l-4 -16.5l-4 -31q-4 -18 -15 -33q-5 -7 -13 -42 q2 -7 1 -23l-20 -17q-8 -10 -8 -34q0 -55 10 -56q22 -3 43 -3h22q28 4 20 4q14 0 45 -21q3 -2 3 -12z" />
<glyph unicode="$" horiz-adv-x="600" d="M516 508q0 -23 -21 -46q-2 -6 -8 -17q-5 -7 -16 -9q-2 -3 -5 -6q-18 -9 -33 -9q-18 0 -32 9q-18 11 -18 29q0 23 28 23q2 0 13 -2t12 -2q11 0 14 2.5t7 6.5q12 6 14 10q1 1 1 16q1 28 -11 44q0 3 -2 7q-6 9 -20 25q-5 1 -7.5 3.5t-2.5 7.5q0 9 9 9q7 0 23 -18 q7 -10 15 -20q8 -3 18 -12q25 -41 22 -51zM562 166q0 -29 -22 -79q-6 -19 -32 -46l-16 -10q-26 -20 -71 -29q-5 -1 -11 -12l-3 -9l-18 -30q-2 -6 -2 -13q0 -2 2.5 -17t2.5 -16q0 4 -8 -28q0 -11 -7 -27q-12 -8 -22 -8q5 0 -23 14q0 1 -1.5 5t-1.5 6l1.5 29.5t1.5 36.5 q0 2 2 9.5t2 8.5q0 10 -5 20q-8 10 -16 14q-1 0 -8.5 -4t-11.5 -5q-7 1 -23 0q-7 -3 -14 -17.5t-7 -23.5q0 -1 3 -15.5t3 -16.5l-1 -45q-3 -7 -7 -20q-7 -3 -18 -3q-14 0 -25 29q-7 19 -6 45q1 34 0 44q0 3 -13 18q-5 12 -17 35q-5 9 -27 9h-7q-6 -1 -8 -1q-3 0 -3.5 0.5 t-20.5 16.5q-3 3 -7.5 6.5t-14.5 5.5q-13 7 -21 19q-1 9 -5 26l-15 30q-6 24 -3 38q-1 12 5 19.5t21 19.5q9 -1 25 0q23 6 28 6q4 1 10 -1t14.5 -19t8.5 -25q0 -1 -3.5 -9t-4.5 -12q-6 -25 -6 -31q0 -23 5 -31q13 -21 26 -21q5 0 19 4q3 2 6 6q10 16 11 40q2 30 5 39 q-2 -7 -2 13q0 2 1 7.5t1 8.5l-3 26q0 7 2.5 21l2.5 14v41q0 2 2 17t2 16q0 10 -1 11q-5 9 -17.5 11.5t-23.5 4.5l-10 10q-8 6 -36 14q-2 3 -6 6q-38 24 -46 80q-5 19 -5 17q4 62 22 90q4 3 10.5 13t11.5 25q13 13 22 16q8 -1 21 0q6 7 21 19q7 1 19 5q7 4 14 25q1 4 -3 22 q-1 3 6 44q4 24 4 17q0 2 -3 16t-3 15q0 5 12 29q8 0 21 -3q1 -3 3 -8q0 -3 -2 -20q-2 -12 0 -20q3 -12 3 -48v-34q0 -2 5.5 -10t7.5 -9t19 -1q11 0 17 -10q5 3 16.5 2t16.5 1q16 6 20 13q1 12 4 35q0 1 4 6t4 7q0 1 -2.5 6t-3.5 9q-6 34 -5 50q2 27 16 27l15 -3 q9 -18 9 -47q0 -10 -0.5 -13t-2.5 -7l-3 -6q0 -1 1 -3.5t1 -3.5q1 -10 -1.5 -19.5t-2.5 -12.5q0 -23 2 -32q3 -4 7 -12q4 -4 14.5 -4t16.5 -5q3 -3 3 -6q-1 -9 -9 -9q-1 0 -6.5 1.5t-7.5 1.5h-6l-14 -11q-3 -3 -7 -12q-3 -18 -3 -25q0 -1 2.5 -20t2.5 -21q-2 -11 -12 -11 q-11 0 -11 14l1 34q0 2 -2 4q-2 10 0 18q1 1 1.5 2.5l0.5 1.5q-1 -3 -1 14q-4 7 -16 17q-9 3 -12 3q-17 0 -12 -1q-6 3 -7 3q6 0 -10 -4h-13q2 -11 -8 -14q-18 -5 -19 -6q-12 -9 -14 -20q-8 -38 -8 -44q0 -2 1.5 -4.5t1.5 -3.5q1 -12 4 -37q0 -19 -1 -26q-5 -36 -5 -51 q0 -30 12 -50l30 -4l6 -6h23q18 -1 37 4q14 4 30 4q10 0 10.5 -0.5t21.5 -14.5q3 -2 8 -6q3 0 11.5 -3t10.5 -3t5 1t4 1l24 -6q10 0 20 5q5 -10 21 -31q5 -9 21 -22q9 -9 22 -31q8 -25 8 -80zM219 397l-3 3q-1 22 -5 61q0 3 -1 8.5t-1 6.5q0 3 4 25t4 23q0 15 -4 22 q-8 20 -25.5 26l-32.5 11q-7 -5 -21 -16t-21 -35l-1.5 -2t-2.5 -3q2 -10 2 -14q0 -3 -3.5 -10.5t-3.5 -8.5q0 -2 18 -51q5 -6 13 -18q10 -16 12 -27q1 -6 5 -12t18 -11h9q23 0 28 6.5zM525 168q0 -4 -7 24q-1 19 -4 55q-1 8 -10 16q-14 11 -15 12q-5 8 -9 15q-9 14 -11 14 t-9.5 -1.5t-8.5 -1.5l-23.5 13t-33.5 8q-2 0 -5.5 -4t-4.5 -4q-4 0 -21 5q-2 1 -6.5 5t-6.5 4h-2q0 -1 -2 -1q-1 0 -7.5 2t-8.5 2q-1 0 -6.5 -2t-7.5 -1q-1 0 -14.5 2.5t-15.5 2.5q-1 0 -3.5 -2t-4.5 -2q-8 0 -23 -4q-9 -2 -12 -9q-5 -14 -6 -29q-1 -10 -7 -17 q7 -8 7.5 -20.5t0.5 -23.5q0 -3 5 -22q3 -13 3 -26q0 -2 -3 -18.5t-3 -17.5q0 -10 4.5 -20.5t8.5 -18.5q4 -11 -2 -33q-1 -6 1 -11q3 -10 10 -22q13 -13 31 -14q2 0 6 3t6 3q11 4 27 17q9 17 9 22q0 1 -3.5 13t-3.5 14q0 7 7.5 17t10.5 18q4 12 5 18.5t1 13.5l-5 74 q-1 13 11 24q2 2 4 2q14 0 15 -11q-1 -10 0.5 -26.5t-2.5 -48.5q-2 -13 4 -31q4 -9 8 -25q-1 -15 0 -42q2 -12 28 -15q12 0 52 29q5 3 13 20q3 3 7.5 9.5t14.5 18.5q17 17 17 28z" />
<glyph unicode="%" horiz-adv-x="653" d="M640 781q0 -15 -11 -27t-13 -25.5t-8 -20.5q-6 -3 -18 -14q-16 -25 -24 -50l-6 6q-7 -6 -38 -54q-5 -7 -14 -23q1 -5 -1 -16q-15 -20 -43 -61q0 -4 -3 -13q-1 -1 -6 -5.5t-6.5 -7t-7.5 -22.5q0 -6 -3 -6q-2 0 -2 1h-1q-7 0 -20 -25q-20 -30 -49 -87q-6 -4 -16 -13 q-2 -7 -7 -19q-2 -3 -14 -13q-1 4 -6 -21q-1 -6 -5.5 -14.5t-11.5 -13.5t-16 -14q-2 2 -7 5q-1 0 -5 0.5t-7 3t-3 13.5q0 18 15 34q7 5 22 18q1 1 1.5 4t1.5 4q9 8 25 27q6 14 20 42l21 26l6 20q3 6 7.5 16.5t13.5 28.5l10 13v16q5 5 12 15v14q3 14 15 40q13 10 36 35 q7 9 32 58q5 9 8 19q1 1 0 2q-6 -2 -8 -2t-6.5 1t-6.5 1q-1 0 -9 -3t-10 -3q-1 0 -2 1h-2q-7 0 -46 -21l-12 -12h-4q-1 0 -3 1h-4q3 0 -34 -11q-11 0 -28.5 -5t-23.5 -26q-1 -19 -6 -56q0 -1 -18 -23q-3 -13 -12 -38q-4 -4 -11 -14q-1 -12 -8 -33q-13 -9 -35 -30l-9 -21 q-51 -22 -63 -22q-1 0 -9 4.5t-12 5.5q-8 2 -35 2q-18 2 -31 7q-7 5 -20 13q-1 5 -5 11q-2 1 -7.5 5.5t-6.5 10.5q-5 9 -5 22v12q3 11 3 8q0 10 1 14q10 9 20 28q14 -31 14 -30q0 -7 -3 -16q3 -3 1 -10q-2 -8 -7 -10q6 -4 15 -11q3 -4 10 -12q6 -4 14 -4q1 0 3 -2.5t4 -3.5 q18 -5 34 -15q7 8 21 19q8 1 21 6q7 12 21 34q10 11 30 36q2 2 7 24q1 2 5 5.5t5 5.5q6 10 17 64q1 3 4 9t3 8q0 8 -12.5 21t-17.5 14q-21 6 -26 6q-17 0 -35 -5q-7 -9 -20 -24q-12 -7 -33 -29q-3 -11 -11 -31q-11 -21 -23 -21h-7q3 -1 3 -6q0 -4 -6.5 -10.5t-10.5 -6.5 q-8 0 -8 9q0 11 7 19q11 13 17.5 36.5t11 30.5t16.5 21q4 2 8.5 6.5t12.5 13.5q12 9 21 10t28.5 2.5t23.5 2.5q13 2 22 9q7 4 19 4h6q5 -1 6 -1t5 -4q13 -3 37 -8l7 -4h39q2 -1 5 -5q24 12 22 12q2 0 4.5 -1.5t3.5 -1.5t10 3t14 4l6 6q4 1 12 5q1 1 0 4q13 0 13 7q0 3 -3 5 q14 0 19.5 2.5t15.5 9.5q1 1 5 1q14 4 40 18q17 18 53 52q16 14 42 26h22q11 -13 11 -22zM630 203q0 -14 -22 -56q-5 -5 -11 -15q-3 -18 -10 -55q-10 -7 -30.5 -35t-33.5 -38q-12 -4 -33 -13q-41 -18 -52 -18t-21 3q-5 4 -15 10q-4 2 -29 11q-7 5 -20 12q-9 6 -13 21l-4 24 v14v11v25l11 14q1 6 6 16q3 1 10 1t9 -1q13 -4 13 -27q0 -1 -8 -21q-3 -2 -8 -8q-6 -10 -6 -16q0 -2 5.5 -7.5t6.5 -7.5q5 -11 20 -27q9 -5 24 -5q10 0 22 2q6 3 18 7l9 3q24 22 67 65q4 6 10 17q-2 25 -1 27q7 7 18 21q1 6 3 17l6 10q3 5 3 13q0 4 -9 19q-4 7 -9 21 q-2 7 -12 12q-3 2 -20 2q-24 0 -48 -8l-17 -17q-4 -1 -11 -4q-1 -1 -4 -5t-6 -5.5t-11 -6.5q-2 -2 -4 -7t-3 -6q-10 -4 -24 -16l-3 7q0 3 3 21q12 8 33 27q2 6 6 16q6 5 17 16q3 5 7 13q5 4 30 8.5t36 4.5q2 0 10.5 -1t9.5 -1q7 0 21 4q1 -13 22 -23q9 -6 24 -19 q3 -4 10.5 -23t7.5 -23zM265 183q0 3 -12 -21q5 -15 -3 -23q-6 -4 -19 -15q-1 -5 -5 -13q-8 -8 -14.5 -24t-9 -20.5t-4 -20t-22.5 -36.5q-5 -4 -8 -14q-3 -14 -4 -15q-5 -7 -12 -21q-1 -7 -6 -20q-8 -5 -18 -21q0 -7 -3 -20q-6 -5 -16 -18q-2 -9 -10 -27q-10 -12 -22 -20 q-18 -9 -22 -9q-2 0 -26 7q-9 2 -15 5q0 1 -1 3.5t-1 4.5q0 1 1 4.5t1 4.5q7 8 12 22q7 19 10 21.5t9 8.5q2 7 8.5 24.5t23.5 51.5q9 5 24 16q6 8 19 23q7 12 21 31q6 6 15 16q2 5 6 10q15 3 17 19q2 23 3 24q6 4 16 13q2 8 7 22q8 8 21 20l3.5 1.5t4.5 2.5q13 8 13 18h4 q14 0 14 -15z" />
<glyph unicode="&#x26;" horiz-adv-x="681" d="M651 21q0 -8 -6 -17q-23 2 -44 -8q-31 -16 -38 -18q-2 -1 -9 -1q-11 0 -30 7q-5 5 -6 5t-9 -1t-10 -1q-1 0 -10 6t-14 8q-14 3 -41 14q-6 9 -21 24q-3 2 -22 6q-7 -11 -25 -19t-22 -13q-4 -10 -17 -22q-8 0 -23 -1q-3 -1 -11.5 -3.5t-10.5 -2.5h-6q-4 1 -6 1 q-6 0 -16.5 -5t-23.5 -5q-1 0 -14 1t-15 1q-1 0 -10.5 -1.5t-10.5 -1.5q1 0 -8 6q-20 4 -57 18q-3 5 -12 14q-2 2 -20 11q-11 7 -13 15q2 7 2 21q-3 12 -22.5 25.5t-19.5 17.5l4.5 7t1.5 15q-3 10 0 22q4 19 5 26v19q3 19 11 36q4 12 15 23q7 3 19 11q7 17 29 43q8 0 21 3 q6 8 21 21q12 8 29 8h6q5 -1 6 -1q10 0 13 23q0 -12 -8 44q-2 2 -3 5t-9 20q-6 14 -6 21q-3 3 -6 27q-3 15 -12 39q-1 4 -9 10q6 7 16 22q0 12 5 35q11 26 45 50q5 5 15 5q5 0 7 -2q5 10 25 10q23 0 23 -9q0 -7 -8 -8t-15 -1q-6 -9 -13 -9q-1 0 -2 1h-2l-11.5 -9t-13.5 -25 t-8 -22q-4 0 -9 -3q-4 -6 -11 -21q-2 -6 0 -13l2 -8q0 -4 -5 -8v-5q-1 -4 -1 -6q0 5 5 -10q-2 -14 0 -41q4 -8 21 -29q4 -8 15 -22q17 -20 27 -20q15 0 45 30q1 1 9 18q6 13 12 13q4 0 7 -1q2 4 5 11q3 3 9 3l9 9q2 4 12 34q0 8 2 22q2 8 13 19q-3 8 -19 17q-3 16 -8 32 t-34 16q-16 24 -16 20q0 1 1 5v6q18 6 15 6q-4 0 15 -15q6 -4 28 -11q2 -7 11 -24q3 -2 10 -5q4 -8 3 -26q-2 -20 -2 -22q0 -6 2.5 -19.5t2.5 -14.5q0 -41 -6 -44q-9 -6 -13 -8q0 -1 -4 -6.5t-18 -19.5l-6.5 -13t-23.5 -33q-9 -2 -25 -7q-8 -5 -14.5 -15t-6.5 -35 q0 -4 6.5 -13.5t7.5 -12.5q0 -6 1 -18q1 -7 10 -24q0 -4 1 -12q4 -12 22 -15q2 -11 9 -29q13 -22 37 -22h5q4 4 12.5 7t14.5 11q-1 5 3 14t11 8q7 27 11 50q-1 9 2 30q4 2 21 25q10 0 17 5l8 11q14 11 18 21q9 4 14 11q9 3 19 8q6 4 14 4q16 0 24 -7q14 -12 34 -21 q6 -3 12 -24q5 -7 13 -23q2 -6 2 -14q0 1 -4 -16q-2 -8 -4 -37q0 -6 -8 -6q-7 0 -7.5 9.5t-1.5 17.5q-7 23 -16 42q-10 25 -44 33q-22 9 -18 9q1 0 -14 -3q-3 -4 -8 -15.5t-7 -11.5t-2 1h-1q-5 0 -15 -2q-4 -4 -12 -13q-3 -6 -5 -25q0 -2 1 -6t1 -6q-2 -16 -8 -33 q-4 -12 -17 -39q-10 -23 -10 -24t4 -10t4 -11q0 -1 -4 -11t-4 -12q0 -6 1 -7q9 -9 25 -27q14 2 21 14q1 -2 2.5 -7.5t1.5 -8.5q-1 -7 4 -22q4 -4 21 -13q4 -4 13 -9q13 -9 21 -9q3 0 14 6t13.5 10.5t6.5 12.5t13 24q3 11 5 22q6 18 13 18q8 0 20 -6q4 -2 9 -21q-1 -21 6 -51 q12 -17 12 -24zM364 95q0 17 -8 27q-14 8 -29 28q-2 30 -12 42q-4 3 -7.5 7t-9.5 19q-4 10 -13 11q-14 23 -42 62q-7 -6 -12 -19q-7 -16 -9 -19q-5 -5 -14 -16q-7 7 -12 7q-3 0 -8 -7q-5 4 -12 4q-8 0 -18 -8q-2 -10 -6.5 -12t-11.5 -7q-1 -3 -1.5 -6.5t-4.5 -3.5q-3 4 -8 5 l-15 -15q0 -6 -2 -22t-2 -17q0 -20 4 -58q2 -8 12 -16q7 -2 17 -6q7 -4 24 -15t18 -11q2 0 13 1.5t12 1.5q9 0 13 -1q1 0 10 -7.5t14 -7.5q1 0 15.5 2t16.5 2h33q4 0 11 9l8 10l27 14q9 6 9 22z" />
<glyph unicode="'" horiz-adv-x="269" d="M225 599v-8q-3 -8 -12 -30q-7 -10 -19 -33q-1 -1 -7 -37q0 -12 -3 -27l-5 -10q0 -1 6 -43.5t6 -44.5q0 -23 -9.5 -33.5t-22.5 -10.5q1 0 -8.5 0.5t-32.5 1.5q-11 21 -11 25q0 1 1 3v4q0 -2 -3 37q-2 28 -3 57q-4 29 -16 55q-8 10 -19 31q2 9 0 25q-5 3 -12 10 q-11 19 -11 30q0 26 11 41q21 29 64 48q7 3 20 3q1 0 9 -4.5t12 -5.5q8 0 24 -2q11 -3 23 -15q5 -4 6 -17q2 -18 3 -20q9 -28 9 -30z" />
<glyph unicode="(" horiz-adv-x="275" d="M263 -157q0 -16 -7 -29t-23 -13q-3 0 -21 6q-5 9 -25 23q-7 4 -18 14q-1 2 -3 8q-6 6 -18 19q-3 4 -9 31q-1 4 -13 21.5t-20 26.5q-13 10 -14 27q-1 14 -7 29l-10 24q-1 7 -5 23q-3 3 -7 11q-6 14 -2 43q2 12 -2 26l-8 23q1 10 -1 35q0 1 -8 14q-5 6 -5 20q0 1 4 17t4 18 t-3 25.5t-3 24.5q0 19 3 27q0 2 3.5 6.5t3.5 6.5q1 21 5 63v14q-1 10 -1 13q0 2 3 14q7 10 18 29q3 14 10 38l12 31q9 22 9 34q2 2 4 6v10q5 9 18 27q7 4 19 17q1 3 2 8q1 1 2.5 3l1.5 2q2 5 4 17q1 3 10 22q5 3 13 9q2 7 9 22q6 6 16 19q2 8 7 24q5 4 12 11q3 5 10 14 q12 -3 12 -21q0 -11 -7 -26q-1 -5 -5 -12q-13 -7 -31 -28q-5 -10 -7 -30q-2 -25 -4 -32q-4 -3 -9 -11q-4 -13 -14 -36q-8 -9 -19 -30q3 -11 -1 -33q-1 -2 -5 -6.5t-5 -6.5q-5 -18 -4 -52q0 -37 -3 -53q-10 -48 -10 -44q0 -1 2.5 -19l3.5 -25q0 -33 4 -100q-1 -21 -1 -63 q1 -21 7 -36q13 -22 35 -70q-1 -11 1 -32q1 -3 18 -30q3 -5 6.5 -16t6.5 -15.5t10 -12.5q2 -13 9 -33q12 -12 31 -36q9 -19 9 -45z" />
<glyph unicode=")" horiz-adv-x="268" d="M231 291q0 1 -1.5 -19t-1.5 -34v-13q-2 -6 -5 -18q0 -22 -2 -63q-3 -14 -7 -45q0 -12 -5 -36l-7 -11q-5 -14 -9 -39q0 -7 -1 -20l-11 -20q-2 -10 -10 -28q-13 -17 -18 -32.5l-9 -28.5l-12 -21q-2 -9 -8 -24q-9 -10 -17 -20q-13 -14 -23 -16q-17 -4 -43 -4q-15 0 -23 7 q-6 4 -6 15q0 1 2 12t3 16q-2 11 1 30q12 11 35 35q3 6 9 17l24 59q9 8 23 28q5 10 8.5 30.5t6.5 28.5q4 3 9 9q5 10 5 9q0 32 -1 24q7 10 19 31q3 5 1.5 19t2.5 23q5 5 15 17q7 10 7 20v93q0 2 -3.5 26t-3.5 25v36q0 1 -4 11.5t-5 14.5q-4 26 -16 77l-5 5q0 2 -1 6.5 t-1 5.5l-2 33t-10 30q-3 3 -3 7q1 6 1 19q-8 27 -26 28q-6 17 -18 39q-5 6 -15 20q-31 50 -31 67v12q6 -3 14 -3q3 -10 11 -10q1 -12 26 -27q0 -2 2 -6l23 -20q2 -3 5 -11q4 -4 12 -13q10 -14 14 -27q0 -8 3 -24l19 -17l9 -30q4 -7 10 -21.5t6 -26.5v-17q4 -7 10 -23 q2 -10 2 -33q0 -1 -4 -9q6 -9 14 -29q1 -5 -1 -16.5t-2 -15.5q3 -7 7 -24q1 -4 -0.5 -15t-1.5 -14q-1 -13 5 -35q1 -5 5 -11.5t4 -14.5z" />
<glyph unicode="*" horiz-adv-x="604" d="M574 425q0 -11 -16 -18q-9 -4 -37 -4q-17 0 -30 4.5t-17 4.5q-1 0 -10.5 -3.5t-11.5 -3.5q-1 0 -5 1t-6 1q-17 0 -40 -24q-7 -7 -7 -22q0 6 16 -30q-1 -4 0 -12q4 -8 21 -20t21 -21q0 -4 2 -11q3 -3 7 -10q0 -5 1 -15q0 -1 2 -3.5t2 -4.5q0 -5 -6 -21.5t-8 -19.5h-22 q-2 5 -28 39q-6 4 -17 13q-1 4 -3 11q-6 8 -15 23q-4 11 -7 21q-6 16 -15 21q-6 2 -20 5q-4 -6 -15 -12q-15 -8 -17 -10q-8 -7 -18 -20q-4 -9 -13 -26q-1 -2 -22 -35q-1 -1 -16 -12q-26 -19 -43 -19q-12 0 -12 17q0 13 7 31q3 4 9 11q3 9 11 27q4 4 7 11.5t9 20.5q2 3 35 34 q13 12 13 39q0 7 -7 12t-13 5q-3 0 -21 -3q-28 -8 -22 -8q-11 0 -25 7.5t-18 7.5q-1 0 -23 -4.5t-23.5 -4.5t-26.5 -1t-27 -1q-9 0 -17 14q-7 11 -7 17q0 4 9.5 17.5t11.5 14.5q7 5 24.5 5.5l17.5 0.5l20 12l85 -15q52 7 52 31q0 5 -3.5 11.5t-4.5 8.5l-3 20q-1 5 -8.5 7.5 t-11.5 1.5l-22 28l-3 15q-2 7 -18 18q-18 18 -18 31q0 5 8 17l10 14q10 -2 19 -5q7 -12 24 -30q8 -2 21 -8q10 -8 13 -33q0 -8 1 -25q1 -7 11 -11q15 -8 17 -9l5 -21q12 -18 18 -18q2 0 10.5 4t9.5 4q2 0 10.5 -2.5t9.5 -2.5q8 0 22 28q10 3 12 9q2 17 6 42l8 4q2 3 6 6 q0 2 1 7q15 37 41 37q21 0 46 -17q0 -10 -1 -12q-27 -37 -59 -61l-22 -27q-2 -3 -9.5 -9.5t-9.5 -10t-2 -26.5v-17q1 -14 27 -14q2 0 14.5 1t13.5 1q15 0 24 -3t14 -3q1 0 19 3.5t27 4.5q19 0 28 1q8 0 7 0q7 0 16 -24z" />
<glyph unicode="+" horiz-adv-x="479" d="M170 411q2 1 12 19q1 2 -1.5 24.5t-2.5 24.5q0 11 4 29q35 28 48 28q24 0 51 -9q12 -14 13.5 -18t1.5 -21q0 2 15 -73l1 -3q-4 -8 -4 -18l1 -6l3 5q9 -2 28 -3q19 2 33 2q76 0 76 -70q0 -3 -3.5 -15.5t-2.5 -16.5l-16 -20q-3 0 -9 -4q-19 0 -19 -3v0l-8 1q-5 0 -19 -6 l-2 -2v3q-15 4 -36 17h-14l-4 -2l-3 1q-6 -1 -12 -7q5 -15 5 -9q0 -49 -2 -60q-1 -1 -1 -6q-2 -18 -5 -36q-2 -11 -20 -26l3 -2h-4l-2 2l-15 -7h-18l-3 -2h-8v-1q-1 0 -4 2t-5 2l-6 1l-3 1v-1l-5 3l-5 -2q-18 11 -22 16l-3 9l-1 5l-8 43q0 3 1.5 9.5t1.5 9.5q14 8 14 25 q0 -3 -8 21q-7 0 -7 -4l-1 2l-10 -4l1 -1v-1q-4 0 -1 2q-13 13 -31 13q-1 0 -1 -2l-1 -3l-1 3l-10 1l-3 -2q0 -1 -1 0q-2 0 -26 3q-15 2 -24 -2q-16 21 -29 49l-1 -3l-2 4h2q0 -1 1 -1q6 30 7 46l21 18q13 0 38.5 5.5t38.5 5.5q3 0 12.5 3t11.5 3l7 -4h3v2l1 -1h1v3 q0 14 -5 8z" />
<glyph unicode="," horiz-adv-x="313" d="M269 23q0 -16 -14 -39q-5 -4 -13 -12q-8 -26 -12 -57q-6 -18 -10 -26q-4 -12 -22 -23q-22 -14 -28 -21q-2 0 -6.5 -1.5t-5.5 -1.5q-10 0 -26.5 -13t-24.5 -28q-28 0 -22 -1q-6 10 -18 25q-6 7 -6 18q0 10 3.5 13.5t10.5 12.5q3 9 10 28l30 16q20 11 33 29l12 6 q13 8 11 24q-18 9 -25 9t-20 2q-25 13 -41 30q-2 5 -9 16q-8 5 -20 17q-5 9 -5 27q0 13 5 36q4 16 35 36q5 3 14 18q2 5 11 10t27 5q29 0 48.5 -8.5t43.5 -31.5t26 -38.5t2 -19.5v-36q0 -2 3 -11t3 -10z" />
<glyph unicode="-" horiz-adv-x="571" d="M519 303q0 -2 -6 -26q0 -1 1 -4v-6q-6 -10 -20 -24q-24 -13 -63 -13q-3 0 -21 5q-13 14 -27 14q-9 0 -33 -8.5t-26 -8.5q-7 0 -26 7t-33 7q-38 0 -65 -16l-11.5 9t-16.5 6q-1 0 -23.5 -2t-24.5 -2q-27 0 -32 3q-10 8 -21.5 26t-11.5 29q0 30 8 52q4 8 24 21h23 q12 4 35 10q8 2 31 2q2 0 9 3.5t9 3.5t24.5 -7.5t24.5 -7.5q24 0 45 3q16 4 13 4q1 0 10.5 -3.5t20.5 -3.5q15 0 23 3.5t9 3.5q2 0 11.5 -3t10.5 -3q2 0 16 2t16 2q10 0 21.5 -2t32.5 -3q13 -3 19 -7q24 -18 24 -66z" />
<glyph unicode="." horiz-adv-x="309" d="M265 96q0 -2 -2.5 -19t-1.5 -22q0 -13 -2 -17q-3 -8 -15 -17q-17 -14 -20 -17q-6 -11 -23 -29q0 -1 -10 -1q-39 0 -63 6q-6 4 -17 10q-8 1 -24 7q-6 3 -19 22q-17 25 -17 33q0 2 3 16.5t3 15.5q0 2 -3 14t-3 13q0 11 22 34q19 20 33 28q7 3 20 7q40 7 38 7q16 0 37 -10 q7 -3 21 -12q43 -35 43 -69z" />
<glyph unicode="/" horiz-adv-x="525" d="M535 766q2 -25 -14 -38q-21 -17 -27 -37q-4 -4 -10 -17q1 -12 -4 -37q-5 -10 -18 -26q-15 -11 -34 -54q-8 -19 -18 -26q-6 -2 -14 -9q1 -10 -4 -31q-13 -11 -33 -43q-1 -3 -1 -20q-6 -6 -17 -22q0 -4 -1 -11q-4 -12 -13 -36q-3 -4 -11 -13q-1 -2 -4 -8.5t-6 -10l-9 -10.5 l-27 -46q-4 -19 -15 -55q-9 -9 -22.5 -24.5t-25.5 -38.5q1 -3 1 -11q0 -15 -4 -20q-7 -9 -11 -22q-5 -16 -7 -19q-5 -9 -15 -24q-6 -4 -15 -15q-4 -5 -9 -17t-19 -41q1 2 1 -11q-1 -6 -22 -33q-1 -7 -7 -18q-4 -4 -9 -13q-1 -9 -9 -26q-12 -15 -20 -36t-13 -26q-8 -8 -20 -8 q-9 0 -22 9q-6 2 -9 12q-8 29 -8 47q-2 16 14 33q4 9 12 25l11 27q5 6 15 19q3 7 8 22q1 2 8 6q8 9 17 24q3 9 12 26q7 10 23 29q7 6 8 17.5t4 14l8 6.5q8 9 19 29q0 7 2 19q7 7 17 23q0 8 5 23q11 7 32 27q2 2 18 32l4 16q7 7 15 21q1 3 3 7q6 8 12 21q0 7 3 21q7 17 20 32 q4 3 11 9q2 4 6 14q7 7 15 21q-2 11 0 31q2 4 36 49q5 3 12 11l12 24q3 8 10.5 20t16.5 30q1 2 1 7v7l12 27q1 6 5 15q8 12 23 38q11 21 10 34q12 17 37 47q7 5 19 15q26 -7 29 -34z" />
<glyph unicode="0" horiz-adv-x="589" d="M537 278q0 -1 -2 -8t-3 -10q0 -4 1 -11.5t1 -12.5q0 -9 -11 -23l-12 -20q-3 -5 -2 -14q1 -13 0 -16q-3 -5 -7 -19q0 -12 -4 -36q0 -1 -20 -26q-2 -6 -7 -17q-13 -21 -42 -57q-8 0 -22 -1q-8 -3 -21 -19q-9 -12 -21 -12q-1 0 -10.5 2t-11.5 2q-1 0 -6.5 -1t-7.5 -1 q-19 0 -28 15q-8 -19 -40 -19q-30 0 -48 18q-3 3 -8 22q-4 15 -11 15q-1 0 -6.5 -1t-7.5 -1q-11 0 -26 7q-1 1 -13 17l-10 10q-13 17 -21 33q-4 16 -17 45q-4 8 -14 24q-16 16 -16 19v32q0 2 -6 32t-6 31q0 2 4 15.5t4 14.5v33q0 2 -1 4.5t-1 3.5q-1 11 2 31q1 8 9 28 q4 2 8 8q3 21 13 56q3 2 6 6t8 23q3 3 7 10q14 0 14 10q0 30 6 41q3 6 23 23q3 1 9 4q17 14 53 38q6 1 18 5q38 19 67 19q2 0 12 -1t11 -1t8.5 2t10.5 2q15 0 22 -4q9 -11 30 -33q2 -2 34 -8q4 -12 20 -34q5 -10 17 -30q5 -4 11 -12q14 -33 14 -32q0 -1 -3 -5.5t-3 -6.5 q0 -1 6 -10q6 -22 23 -57q3 -4 3 -17q0 2 -3 -16q-2 3 -10.5 9.5t-11.5 11.5q-12 13 -25 38q0 13 -1.5 27.5t-15.5 17.5q-2 7 -7 12l-13.5 14t-13.5 22q-2 3 -8 10q-2 8 -9 23q-4 2 -11 7q-3 2 -11 12t-15 10q-2 0 -8 -1t-7 -1q-3 0 -45 3q-3 1 -11.5 4.5t-9.5 3.5 q-3 0 -12.5 -9t-10.5 -9q-40 0 -45 -36v-2q-1 -1 -1 -2q-5 -8 -15 -21q-2 -3 -7.5 -8t-8.5 -9q-20 -35 -20 -45v-33q0 -6 -10.5 -18t-10.5 -25q0 -1 5 -16t5 -17q0 -1 -6 -15t-6 -16q0 -7 7.5 -16.5t8.5 -12.5q3 -13 5 -26q4 -17 13 -27q5 -6 6 -11q3 -21 3 -35 q0 -2 -1.5 -8.5t-1.5 -9.5q2 -17 18 -38q2 -4 21 -9q11 -18 24 -37t27 -22q1 0 5 -2l6 -3q5 -7 10 -13q8 -11 15 -11q2 0 10 1.5t9 1.5q2 0 11 -2t10 -2q-1 0 22 17q11 6 32 20q4 3 28 34q6 3 15 13q3 10 9 26q7 8 16 23q1 3 1 31q0 14 4.5 19t10.5 15v33q0 6 4.5 17t4.5 12 t-3 9.5t-3 11.5q0 -5 7 37h11q13 0 18.5 -24t1.5 -33q-1 -3 2.5 -7.5t10.5 -11.5q2 -6 2 -11z" />
<glyph unicode="1" horiz-adv-x="526" d="M504 8q0 -7 -7.5 -15.5t-14.5 -7.5q-15 0 -27 5q-4 3 -13.5 8.5t-21.5 8.5q-4 -8 -19.5 -14.5t-24.5 -6.5q-15 0 -28 6t-24 6q-24 1 -48 -5t-26 -6q3 0 -17 8q-6 0 -15 1q-21 0 -33 -3q-33 -8 -39 -8q-14 5 -53 11q-2 0 -17 -1.5t-16 -1.5q3 0 -18 7q0 6 -1.5 17.5 t-1.5 12.5q0 11 3 24q7 4 20.5 9.5t21.5 5.5l64 -8q26 -3 66 8l17 17q11 11 11 21q0 8 -4.5 17.5l-4.5 9.5q0 2 4.5 10.5t4.5 9.5q0 2 -2 4q-10 33 -10 46q0 8 5 17q3 4 6 9q0 5 1 16q1 4 4.5 13.5t3.5 10.5q0 6 -6.5 13t-6.5 8q-4 12 -4 19q0 12 8.5 25t8.5 19 q0 11 -7.5 17t-6.5 19q0 10 8.5 17.5t8.5 10.5t-6 13t-5 14q0 2 2.5 13t2.5 12t-4.5 12.5t-4.5 16.5v40q0 28 -7 35q-18 10 -33 10q-17 0 -27 -4t-16 -4q-12 0 -24 6t-35 7h-20q-6 0 -22 2q-3 0 -10 9.5t-7 13.5t5 17t7.5 15.5t23 12t25.5 9.5q27 -9 23 -9q1 0 9.5 2.5 t10.5 2.5t11.5 -3t10.5 -3q7 0 41 11q1 0 11 -5t12 -5q1 0 10 3t11 3q8 0 19 -4q17 -6 43 -10q12 -35 11 -45q-2 -7 -5 -20q-1 -3 -1 -16q3 -15 4 -37q0 -2 -2 -10.5t-2 -9.5l-1 -33q0 -2 -2 -5t-2 -4v-37q-3 -10 -6 -24l-1 -48q0 -1 2 -11.5t2 -16.5q0 -4 -1 -18.5 t-1 -22.5t1.5 -26.5t1.5 -19.5t-3 -14t-3 -15q0 -1 2 -22t2 -23q0 -1 -3 -8.5t-4 -10.5q-1 -6 -1 -22q0 -1 1 -5t1 -6v-4q-1 -4 -1 -6q-1 -2 1 -7t2 -7q0 -25 35 -46q8 -5 22 -5q9 0 40 9h12q8 0 15.5 -3t13.5 -4q14 2 44 -4q8 -4 14.5 -16.5t5.5 -19.5z" />
<glyph unicode="2" horiz-adv-x="600" d="M549 118q0 -17 -10 -37q-11 -24 -14 -38q-1 -3 -4 -9q-16 -8 -26.5 -28t-17.5 -24q-3 -2 -17 -2q-1 0 -11.5 2.5t-12.5 2.5q1 0 -26 -5.5t-40 -5.5q-17 0 -19 1q-26 12 -64 35q-2 3 -8 7l-34 11q-6 5 -20 11q-21 6 -43 6q-3 0 -5 -2q-18 -4 -65 -30q-4 -2 -15 -21 q-7 3 -22 12q-7 9 -21 25q-3 6 -3 15q0 2 1 7t1 7q-2 13 0 40q5 19 23 46q6 10 18 27q6 4 18 13q8 12 27 34q1 0 17 7q3 2 12 21q5 10 18 13q9 1 19 3q38 25 45 25q2 0 9 -1t8 -1q-4 0 20 8q7 0 23 3q11 5 33 12l27 6q4 1 13 12.5t12 13.5q12 5 33 18q35 32 41 56q0 1 2 4.5 t2 6.5q5 28 5 36q0 35 -21 45q-2 5 -2 24q0 12 -17 22l-23 13q0 10 -5.5 18t-43.5 17t-58 9t-36 -8q-5 -5 -6 -5t-9 2.5t-10 2.5q-25 0 -53 -13.5t-33 -31.5q-10 3 -20 3q-14 0 -14 -7q0 -8 13 -32q14 7 21 11q4 -14 18 -43q3 -3 3 -18l-11 -29q-7 -18 -17 -23 q-22 -14 -35 -14q-5 0 -19 7.5t-16 11.5q-10 17 -12.5 29.5t-2.5 42.5q0 22 1 25q7 10 18 32q2 7 7 20q0 3 3 3q1 0 10.5 -5t11.5 -5q4 0 6 5q9 23 12 28q8 17 21 25q9 2 26 9q3 1 9.5 5.5t8.5 4.5t21.5 -4t20.5 -4t8.5 3t11 3.5t12.5 1t12.5 1t11 3.5t8.5 3t16 -4t22 -5 q23 -2 67 -10q2 -1 22 -15l8 -8q5 -1 14 -5q9 -9 26 -29q10 -14 16 -26q15 -39 15 -65q0 -4 -4 -14t-4 -16q0 -1 2.5 -16t2.5 -17q0 -27 -13 -46q-11 -4 -18.5 -22t-22.5 -26q-12 -4 -36 -19q0 -2 -3 -7q-11 -11 -28 -18q-12 -4 -25 -9q-4 -4 -14 -11q-10 -3 -20 -7 q-15 -5 -23 -15q-2 -1 -35 -5q-18 -3 -29 -18q-8 -2 -21 -7q-8 -4 -29 -27q-3 -8 -11 -22q-4 -3 -11 -10t-18 -21q-3 -6 -3 -10q0 -13 13 -13q2 0 19 3.5t18 3.5t17 -10t24 -13q19 -8 36 -12q10 0 30 -2q12 -24 41 -29q7 -2 31 -2q15 0 25 4.5t12 4.5t8.5 -1t7.5 -1q6 0 8 4 l4 9q6 2 14 10q1 5 2 12q7 9 21 31q4 6 10 21q3 8 11 14q13 10 17 10q5 0 21 -13q7 -23 7 -32z" />
<glyph unicode="3" horiz-adv-x="594" d="M543 236q0 -1 -2 -10t-2 -14q0 -24 -4 -71q-2 -13 -13 -36q-8 -7 -23 -24l-18 -20q-4 -10 -13 -25q-7 -10 -22 -26q-5 -3 -43 -19q-8 -1 -24 -6q-45 -17 -39 -17q-1 0 -20.5 5.5t-21.5 5.5q-1 0 -7.5 -1.5t-8.5 -1.5h-34q-1 0 -5.5 -1.5t-6.5 -1.5q-14 0 -20 5 q-16 10 -66 29q-3 3 -10 7q-3 2 -31 13q-10 4 -16 16q-1 1 -4 17q-1 12 -23 29q-15 12 -15 29q0 6 2 10q10 15 10.5 22t5.5 19.5t17 21.5q4 2 9 3.5t12 6.5q11 3 22 3q10 0 20 -7q4 -3 22 -31l15 -19t8 -19q0 -8 -12.5 -22.5t-12.5 -20.5q0 -5 8.5 -19.5t12 -16.5t21.5 -7 q24 -9 25 -9q9 0 20 2q4 1 12 4t9 3t11 -6t12 -6q26 0 40.5 6.5t42.5 17.5l16 2q10 1 14 9t12 20q12 7 31 22q5 6 9 20q4 4 9.5 13.5t7.5 49.5q0 2 1 6t1 6q0 9 -11 31q0 9 -1 26q0 1 -2.5 4.5t-2.5 4.5q-13 45 -47 61q-4 2 -15 8q-5 5 -14 13q-14 6 -28 6q-1 0 -10 -2 t-11 -2q-1 0 -11 4.5t-12 4.5q-9 0 -40 -11q-7 -1 -22 -4q-15 15 -15 30q0 24 11 35q5 4 13 11q3 8 10 23q8 12 22 26q26 26 42 39q6 5 22 26q5 3 15 12q9 13 9 24q0 21 -25 21q-1 0 -9.5 -2t-10.5 -2q-1 0 -16 3.5t-17 3.5q-7 0 -20 -3t-33 -3q-17 0 -20.5 1t-11 7.5 t-9.5 6.5q-9 0 -23 -10q-1 -1 -10 -16q-15 -26 -31 -48q-8 -8 -22 -13q-6 -2 -21 -2q-2 4 -6 11q-5 17 -5 32q0 26 11 58q5 16 22 22q26 10 42 10q2 0 13.5 -3t12.5 -3h52q9 0 19 5l10 5q1 0 9 -2.5t11 -2.5q13 0 38 -2q32 -9 27 -9q2 0 8.5 2.5t8.5 2.5h22h12q10 -1 11 -1 q2 0 11.5 3t10.5 3q13 0 22 -12q11 -15 11 -33q0 -12 -13 -22q-20 -13 -40 -44q-4 -2 -10 -9q-4 -10 -13 -29q-3 -5 -13 -16t-14 -17q-12 -18 -12 -32q0 -13 17 -19l23 -6q7 -4 21 -13q15 -5 42 -17q4 -6 13 -18q4 -3 8 -9.5l10 -15.5q5 -3 10.5 -7.5t7.5 -17.5l3 -19 q5 -6 14 -20q9 -17 9 -35z" />
<glyph unicode="4" horiz-adv-x="578" d="M541 186q0 -11 -8 -31h-11q-2 -1 -21.5 3t-20.5 4q-15 0 -36.5 -14.5t-21.5 -27.5q0 4 13 -19q3 -8 8 -24l5 -5q2 0 11.5 2t10.5 2q17 0 21 -3q42 -29 42 -45q0 -7 -9 -22.5t-12 -17.5q-14 -7 -20 -7l-11 8.5t-21 8.5q-2 0 -15 -1t-14 -1t-12 2.5t-13 2.5q9 0 -23 -9 q-28 -8 -41 -8q-1 0 -11.5 2t-12.5 2q-15 0 -25.5 -9.5t-14.5 -9.5q5 0 -21 13q-11 55 -11 47q0 7 3 25q4 23 8 24q10 6 21 6q1 0 11 -4t12 -4t10.5 4t9.5 4q2 0 10.5 -3t9.5 -3q11 0 11 24q0 10 -5 35q0 5 -5 8q-19 0 -28 -2q-1 0 -6 -1.5t-7 -1.5l-9.5 8t-13.5 8 q-3 0 -10 -4t-9 -5q-13 -4 -42 -4l-10 3t-23 3h-14q-2 -1 -9.5 -5.5t-9.5 -4.5l-8 4.5t-17 4.5q-2 0 -9 -1.5t-8 -1.5q-17 0 -43 13l-7 11l-13.5 11t-8.5 22q0 21 8 42q6 16 21 45q5 9 16 24q35 30 48 69q1 2 42 46q1 1 6.5 4t11.5 13q1 19 21 39l31 28q1 1 2.5 4.5t1.5 4.5 q17 19 28 41q7 6 19 19q3 9 9 25q4 8 13 21q20 18 37 31q8 6 12 6q2 0 20 -6q25 -60 25 -78q0 -14 -2 -21q-7 -23 -7 -19q0 -6 2.5 -9.5t3 -6t2 -9t1.5 -7.5t-3 -9t-3 -10q0 5 4 -7q1 -4 2 -13q3 -15 5 -33q0 -2 3.5 -11t3.5 -11q0 -1 -4 -23t-4 -24q0 -1 1 -11t1 -14 q0 -30 3 -42q0 -14 3 -41q0 -4 9 -19q10 -18 18 -18q2 0 10.5 2t9.5 2t9.5 -4.5t12.5 -5.5q17 0 43 -8q8 -7 8 -22zM370 317q0 2 -4 17t-4 16q0 5 2 12q0 1 2.5 4.5t2.5 5.5q0 8 -8 23t-8 20q0 2 6 16t6 15q0 2 -2 3.5t-2 2.5q-2 14 -6 29q-3 7 -8 20q-1 2 -1 20q0 1 -1.5 2 t-2.5 1q-2 -7 -8 -23q-7 -12 -35 -16q-12 -20 -38 -58l-29 -34q-4 -7 -12 -19q-5 -4 -12 -12q-4 -16 -14 -45q-6 -8 -17 -21q-11 -22 -11 -30q0 -1 2.5 -8.5l3.5 -10.5q7 2 14 2t9 -1q4 -4 10 -8q13 -6 30 -6q6 0 22 9q19 -16 23 -16q2 0 12.5 5t11.5 5q-4 0 11 -2 q11 -2 26 0q13 2 22 37q3 6 5 15.5t2 29.5z" />
<glyph unicode="5" horiz-adv-x="566" d="M515 238q0 -15 -3 -28v-35q-1 -20 -18 -40q0 -6 -1 -18q-6 -22 -38 -62q-23 -29 -32 -36q-12 -9 -42 -19q-9 -3 -36 -18q-12 -7 -47 -7q-65 0 -58 -1l-49 19q-8 -1 -23 1q-10 2 -21 9q-3 5 -11 11q-11 4 -31 13q-16 10 -21 19q-11 13 -22 36q-11 30 -11 43 q0 31 10.5 48.5t43.5 38.5q2 -1 19 -9q9 -3 25 -10q14 -10 20 -20q2 -11 8 -36q4 -11 9 -31.5t25 -25.5q9 0 24 -2q24 -8 34 -8q16 0 48 7q13 3 58 32l23 14q15 11 18 22q0 5 10 21t13.5 23t9.5 22q6 35 6 63q0 10 -11 28q-5 15 -13 37q-6 6 -16 19q-3 9 -14 25q-1 5 -7 13 q-15 12 -35 19q-8 1 -21 2q-19 8 -22 8q-2 0 -10.5 -2.5t-9.5 -2.5t-10 2.5t-11 2.5q-9 0 -23 -4q-18 -9 -19 -9q-2 0 -11.5 2.5t-11.5 2.5q-9 0 -13 -4q-4 -8 -14 -23l-23 -30q-4 -10 -13 -28q-3 -1 -11.5 -7t-9.5 -6q-12 0 -23 4l-7 14q-6 10 -6 27l1.5 11.5t1.5 17.5 q-2 10 -2 25q3 16 3 48v76q0 2 -1 8.5t-1 7.5q0 17 3 32q2 10 10 28q9 6 25 21q3 7 12 16q17 10 27 10q18 -16 24 -16q2 0 20 1h19q2 0 11 -3t10 -3q2 0 11 4.5t10 4.5q2 0 22 -9.5t32 -9.5q15 0 30 6q4 1 12.5 8t9.5 7q16 0 35 -12q2 -1 12 -11q-1 -4 -5 -12q-22 -6 -33 -6 t-22 5.5t-14 5.5h-5q-3 -1 -5 -1q-1 0 -9 3t-13 3q-4 0 -8.5 -4.5t-10.5 -6.5q-16 -6 -29 -6q-1 0 -10 1.5t-11 1.5q-1 0 -15 -3t-16 -3q-1 0 -14 2t-15 2q-16 0 -23 -3q-20 -6 -20 -58q0 -12 3.5 -34.5t3.5 -23.5t-4 -20.5t-4 -21.5q0 -7 23 -12q9 0 12.5 3t7.5 8q6 2 17 6 q27 17 25 17q2 0 22 -4.5t21 -4.5t10 1t12 1q7 0 20 1l11.5 3t8.5 2q3 0 28.5 -10t35.5 -17q8 -10 24 -27q6 -3 18 -10l14 -22q2 -2 6.5 -7.5t10.5 -16.5q5 -3 11 -11l11 -37q0 -2 6.5 -18t6.5 -25v-11q1 -4 3 -13t2 -11z" />
<glyph unicode="6" horiz-adv-x="586" d="M441 588q0 -12 -7.5 -20.5t-26.5 -15.5l-20 -7q-8 6 -21 17q-3 7 -10 19q-28 28 -33 28q-1 0 -18.5 -2t-19.5 -2q-11 0 -20 4q3 4 9.5 11.5t6.5 10.5h22q2 0 15 10q8 6 30 6h7q6 -1 8 -1q1 0 12 3t13 3q12 0 21 -6q6 -4 19 -26t13 -32zM258 609q-1 -2 -19 -49h-21 q-1 0 -11.5 2t-14.5 3q1 1 4 4.5t3 7.5q3 0 9.5 8.5t9.5 10.5q13 10 20 20q1 0 2 1h3q8 0 15 -8zM535 207q0 7 -5 -20q-1 -3 2 -28q0 -32 -3 -45q-5 -21 -37 -45q-10 -14 -36 -39q-19 -13 -47 -30q-7 -1 -23 -5q-6 -4 -20 -11q-18 -7 -29 -7q-1 0 -17 -1h-17q-47 0 -86 7 q4 0 -12 8q-8 5 -25 13q-5 3 -26 5q-16 25 -41 39q-17 7 -25 23t-8 44q0 2 3.5 15t3.5 14q0 5 -18 11q-7 24 -7 36v70q0 1 -5.5 18t-5.5 19q0 1 3 10t3 14q1 24 10 54q-1 13 2 36q1 3 6 8l28 39q3 11 8 31q9 5 19 24q4 3 9 9t15 17q5 3 12.5 11.5t8.5 13.5q5 1 14 -9 q-9 -7 -9 -21q0 -3 2 -14q1 -7 -1 -18q-7 -6 -20 -21l-3 -23l-1 -2t-2 -3.5t-5.5 -6l-6.5 -6.5q-6 -12 -6 -14q0 -1 2.5 -16.5t3.5 -22.5q2 -2 7 -2h2q1 -1 2 -1q5 0 23 9.5t19 9.5q43 15 44 15q2 0 32 -4t31 -4q-10 0 42 8q1 -2 9 -11.5t12 -11.5q12 -6 26 -6q2 0 6 1h5 q7 0 13 -7q9 -11 18 -16q14 -3 37 -14q6 -4 15 -27q4 -8 10 -24l6 -22q3 -3 7 -9q1 -3 2 -8q6 -8 15 -24q9 -23 9 -33zM464 197q0 2 -5 16.5t-5 15.5q0 2 2.5 10.5t2.5 10.5q0 8 -3 14q-2 2 -6 5q-3 11 -10 27q-10 6 -24 17q-11 16 -43 45q-10 3 -28 9q-22 5 -27 5 q-9 0 -14 -2l-43 8q-11 -3 -23 -10q-7 -6 -19 -13q-15 -4 -44 -17q-8 -4 -12 -13q-6 -13 -9.5 -17.5t-23.5 -24.5q-14 -24 -14 -59q0 4 4 -24q-2 -17 5 -47q5 -7 17.5 -13.5t19.5 -16.5q10 -14 29 -34q13 -15 25 -18q10 1 27 0q7 -3 16 -6q18 -1 31 -5t26 -4q31 0 50 7 q2 1 14 18q3 4 10.5 15.5t10.5 14.5q12 10 32 29l8 15.5t11 18.5q12 18 12 23z" />
<glyph unicode="7" horiz-adv-x="496" d="M467 565q0 -1 -2 -16t-2 -21l-2 -26q-2 -16 -10 -30q-3 -12 -10 -32q-4 -4 -10 -15q-2 -14 -12 -42q-8 -14 -43 -64q-9 -11 -27 -37q-3 -13 -12 -37q-2 -4 -24 -75q-4 -7 -10 -21l-3 -21q-2 -6 -5 -18.5t-3 -22.5q0 -4 2 -18q1 -12 0 -18q-1 -5 -11 -28q-1 -11 -5 -32 q0 3 -7 -11q-1 0 -25 7q-6 2 -18 8q-3 2 -8 17q-1 1 -14 23v9q0 3 9 23q1 6 2 20q2 19 7 32q3 3 7 11q8 32 19 94q18 5 18 31q0 27 -1 24q6 6 17 19q2 8 10 22q7 7 19 21q15 5 15 28q1 9 3 13q1 1 5 5.5t6 7.5q8 16 13 40q6 4 8 11l12 32q7 20 7 34q0 16 -6 16 q-2 0 -20.5 -4.5t-19.5 -4.5q-4 0 -26 11q-4 2 -27 33l-13 8q-4 6 -15 15q-16 16 -28 16q-16 0 -30 -7q-31 -14 -39.5 -17t-9.5 -6q-3 -14 -11 -42q-13 -41 -13 -51q0 -12 2.5 -23l2.5 -11q0 -4 -8 -12q-12 -11 -13 -12q-2 -6 -8 -17q-18 -15 -20 -15q-9 0 -22 7 q-4 7 -14 19q-10 9 -12 29q0 4 1 13t1 10q0 9 -2 13q-6 12 -2.5 31.5t-2 31t-5.5 18.5q0 1 7 25q2 5 2 12q0 5 -2 15t-2 15q0 13 10 22t21 14q4 2 20 2q2 0 12.5 -3.5t11.5 -3.5q2 0 15 3t14 3q2 0 4 -1t3 -1q2 0 14 5t13 5t20.5 -3.5t21.5 -3.5t11 4t10 4q2 0 21 -8 q7 -1 22 -4.5t21 -9.5q5 -14 26 -41q3 -3 9 -6q36 -9 48 -9q7 0 12 11q0 3 1 8q3 12 12 32q1 2 17.5 7t22.5 5q2 0 12.5 -10.5t10.5 -12.5v-34q0 -2 2 -18.5t2 -18.5z" />
<glyph unicode="8" horiz-adv-x="637" d="M586 156q0 -1 -1 -4.5t-1 -5.5q-2 -19 -2 -22q-3 -15 -11.5 -23t-26.5 -27q-3 -9 -16 -26q-15 -9 -46 -29.5t-60 -28.5q-4 -1 -12 -7t-9 -6t-6.5 1.5t-7.5 1.5h-46q-15 0 -29.5 -6.5t-17.5 -6.5q-21 0 -59 9q-6 4 -23 12q-9 1 -24 6q-4 3 -12 8l-35 4q-20 3 -36 20 q-4 4 -9 25l-12 18q-1 8 -5 21q-2 6 -12 14t-11 17q-5 53 -5 47q0 11 5 24t5 21q0 7 -2 15q-2 7 3 14q7 13 22 34q5 10 18 27l26 16q20 12 20 24q0 14 -22 24q-4 11 -19 31q0 4 -3 20l-16 22q-6 7 -6 31q0 12 2.5 15t6.5 9q8 16 8 19q0 2 -2.5 10t-2.5 10q0 20 11.5 37 t23 24t39.5 21q3 1 20 5q6 1 23 22q25 -10 22 -10q16 0 28.5 4.5t14.5 4.5q1 0 22 -4.5t23 -4.5l58 6q7 0 22 -9q20 -8 50 -32q2 -4 6 -13q1 -1 4.5 -4t3.5 -5l9 -26q6 -5 14 -17l19 -52q-9 -11 -14 -29t-7 -21q-6 -10 -6.5 -17t-0.5 -14l-12 -33q-2 -4 -8 -12q-2 -3 -2 -15 v-8q2 -3 12 -10q14 -4 38 -17q25 -18 34 -34q1 -11 6 -32q10 -14 27 -42q12 -22 12 -41zM511 197q0 18 -15 36q-4 3 -9.5 9.5t-12.5 18.5q-2 2 -30 20q-3 5 -10 12q-20 13 -31 18q-10 -1 -22 0q-9 6 -14 13t-13 7h-6q-4 -1 -6 -1q-12 0 -23 14q4 5 10 10q16 4 52 23 q9 2 22 7q21 13 30 24q4 4 7 12.5t4 9.5t23 12q13 7 13 23q0 10 -4 14.5t-10.5 10.5t-6.5 11v33q0 2 -7 7t-8 6q-11 13 -33 36q-5 5 -10 5q-1 0 -9.5 -2t-10.5 -2q-1 0 -9 5t-12 6t-22 1q-3 5 -8 11.5t-12 6.5q2 0 -42 -17q-9 0 -24 -3l-20 -15q-15 -1 -38 -10 q-10 -9 -16 -28q-4 -15 -9 -29q-10 -2 -19.5 -4.5t-9.5 -15.5v-41q0 -2 -2 -11t-2 -10q0 -14 54 -44q8 0 19 -2q21 -11 53 -30q18 -10 14 -10q5 0 13 5.5l8 5.5q4 0 18 -11q-6 -7 -18 -14q-6 0 -16 -2q-3 -3 -8 -6q-12 -6 -34 -11q-13 0 -28 -2q-13 -11 -40 -31l-14 -10 q-11 -8 -13 -17q2 -12 2 -36q-1 -4 -4 -14t-3 -11q0 -6 9 -22q4 -8 6 -14q5 -19 35 -41q16 -13 43 -32q23 -12 44 -12q2 0 13.5 3t12.5 3q13 0 24 -5t15 -5q23 0 65 19q14 3 39 9q31 8 47 38q4 8 14 57q0 2 2.5 5t2.5 4zM169 479q-2 2 -4 2l4 4v-6z" />
<glyph unicode="9" horiz-adv-x="567" d="M516 364q0 -1 -2.5 -12.5t-3.5 -16.5q2 -9 3 -25q-6 -49 -22 -93q-2 -14 -9 -41l-9 -6q-5 -4 -10 -15q1 -5 1 -13q0 -3 -3 -10q-3 -3 -7.5 -9t-6.5 -18q-1 -5 -9 -15q-8 -4 -10 -7q-8 -19 -30 -49q-13 -7 -42 -25q-8 0 -23 -3q-12 -7 -36 -17q-10 -4 -29 -8 q-42 -5 -51 -5h-13q-7 2 -19 8q-14 10 -26 14q-15 6 -17 7q-10 6 -21 25t-11 35q0 21 11 45q1 4 19 16.5t25 12.5q28 0 86 -26q8 -4 10 -12q-1 3 -1 -21q-3 -16 9 -22q6 -3 20 -3q1 0 11 6t18 6h6q5 -1 7 -1q13 0 25 12q19 16 27.5 21t16.5 22q1 1 9 32l7.5 17t13.5 26 q1 3 9 11.5t8 11.5q0 16 -5 19.5t-15 3.5q-24 0 -38.5 -9.5t-33.5 -9.5q-1 0 -11.5 6t-12.5 6q-1 0 -9.5 -2t-10.5 -2q-1 0 -9 1.5t-10 1.5t-13.5 -6t-12.5 -6q-12 0 -20 2q-23 7 -71 20q-12 1 -33 6q-13 7 -21 20q-2 8 -13 26q-10 6 -30 22q-2 6 -6.5 16.5t-14.5 30.5 q-6 13 -6 50q0 1 2 28t2 29v40q0 -2 13 21q1 8 10 22q16 13 37 41q6 4 17 13l11 11l15 9q22 9 48 14q20 3 40 7q14 1 38 3l28 5q15 0 42 -16q6 -5 20 -12q8 1 22 -1t21 -8q18 -18 28.5 -35t23.5 -27.5t15 -13.5q5 -6 10 -40q-1 -9 1 -25q5 -7 13 -21q5 -12 3 -31 q-4 -30 -4 -33q0 3 6 -15q3 -6 3 -16zM466 415q0 8 -19 65q-6 12 -6 13q-1 14 -12 36q-12 7 -35 24q-4 11 -19 27q-7 2 -19 9q-6 6 -16 14q-31 11 -49 11q-1 0 -17.5 -6t-25.5 -8l-27 -4q-17 -3 -21.5 -10t-10.5 -19q-2 -3 -13 -10q-4 -9 -11.5 -19.5l-16.5 -23.5l-3 -44 q-5 -30 -5 -23q0 -22 20 -71q9 -10 23 -28q4 -8 10 -28q6 -6 7 -6l42 -23q16 -9 42 -9q39 0 52 3q15 7 41 17q9 2 22 6q17 8 26 17q3 3 6.5 10t5.5 10l1 2h1q10 6 14 13l7 29l3.5 14.5t2.5 11.5z" />
<glyph unicode=":" horiz-adv-x="279" d="M225 368q0 -18 -7 -45q-2 -9 -14 -13q2 0 -4 -2q-2 -1 -12 -14q-31 -7 -54 -7q-21 0 -41 12l-20 21q-10 11 -10 49q0 9 11 49q13 12 29 19q13 5 27 11q2 1 11 1q19 0 29 -19q12 6 18 6q4 0 14 -11t11 -17t3 -20q1 -4 5 -11.5t4 -8.5zM235 70q0 -13 -8.5 -27t-20.5 -23 q-29 -22 -36 -22q-1 0 -9 2.5t-10 2.5h-10q-8 -1 -10 -1q-39 0 -57 26q-1 5 -5.5 11.5t-13.5 17.5q-4 5 -4 19q0 27 23 65q5 7 19 18q24 14 39 14q1 0 8.5 -3.5t10.5 -4.5q13 1 39 -2q22 -6 28 -31q6 -6 14 -20q3 -22 3 -42z" />
<glyph unicode=";" horiz-adv-x="318" d="M250 365l-1 -11.5t-1 -21.5q-5 -23 -11 -30q-2 -2 -24 -13q-5 -5 -18 -13.5t-17 -8.5q-1 0 -8.5 3t-9.5 3q-3 0 -15.5 -6.5t-21.5 -6.5q-1 0 -8.5 6.5t-9.5 6.5h-22q-2 9 -8 25q-4 6 -13 16q-11 18 -11 45q0 21 13 37q4 6 19 21q2 2 17 12q7 4 21 10q11 1 33 4 q4 1 13.5 4.5t10.5 3.5t16 -7.5t22.5 -9.5l18.5 -5q15 -37 15 -64zM274 65q0 -1 -3.5 -9t-3.5 -10q0 -1 2.5 -11t2.5 -12q0 -16 -13 -30q-16 -18 -22 -34q-6 -10 -19 -30l-5.5 -5.5t-6 -8.5t-6.5 -13q-8 -9 -32 -25q-10 -7 -14 -14t-14 -17l-38 -10h-19q-11 13 -11 18l16 25 l5 15q2 2 12 13q5 5 17 15q3 2 9.5 6t9.5 6q16 12 16 27q0 6 -3 10.5t-11 14.5q-12 12 -22 12q-1 0 -5 -1h-5h-9q-4 7 -11 21q-3 2 -6.5 7.5l-9.5 14.5q-15 14 -15 47q0 14 8 25q3 12 15 31q39 25 58 35q2 0 17 -6h10q2 0 15 1t14 1q8 0 22 -14q4 -9 14 -27q5 -2 12 -10 l9 -25q20 -30 20 -33z" />
<glyph unicode="&#x3c;" />
<glyph unicode="=" horiz-adv-x="448" d="M411 427q0 -1 -2 -10t-3 -14v-9q-5 -9 -16 -22q-19 -11 -51 -11q-7 0 -17 4q-11 13 -22 13q-8 0 -27 -8t-20 -8q-7 0 -22 6.5t-26 6.5t-39 -7l-14 -7q-2 1 -9 7t-14 6q-1 0 -19 -1.5t-20 -1.5q-21 0 -25 2q-8 6 -18 23t-10 26q0 28 7 48q4 9 20 19q6 0 18 1q9 3 29 9 q8 1 25 2q2 0 8 2.5t7 2.5t19 -6.5t20 -6.5q19 0 37 3q2 0 5.5 1.5t4.5 1.5t8.5 -3t16.5 -3q12 0 18.5 3t7.5 3q2 0 9.5 -2.5t8.5 -2.5q2 0 13 2t12 2l26 -4q6 -1 19 -1q5 -1 15 -6q20 -18 20 -60zM411 228q0 -1 -2 -10.5t-3 -13.5v-9q-4 -9 -16 -22q-20 -11 -51 -11 q3 0 -17 4q-11 13 -22 13q-8 0 -27 -8t-20 -8q-7 0 -22 7t-26 7q-33 0 -53 -15q-3 3 -9.5 8t-13.5 5q-1 0 -19 -1.5t-20 -1.5q-21 0 -25 2.5t-18 22.5q-10 20 -10 27q0 27 7 46q3 8 20 19q6 0 18 1q9 3 29 9q8 1 25 2q2 0 8 3t7 3t19 -7t20 -7q19 0 37 3q9 3 10 3t8.5 -3 t16.5 -3q12 0 18.5 3t7.5 3q2 0 9.5 -2t8.5 -2q2 0 13 1.5t12 1.5q8 0 18 -2.5t27 -2.5q9 0 15 -6q20 -16 20 -59z" />
<glyph unicode="&#x3e;" />
<glyph unicode="?" horiz-adv-x="511" d="M455 469q0 -13 -35 -31q-6 10 -15 35q0 2 3 16q3 9 -2 22q-4 10 -16 28l-15 15q0 3 -4 7q-8 9 -27 26q-2 1 -17 8q-7 3 -7 11q0 15 25 15q17 0 21 -7q7 -15 23 -25q4 0 12 -3q17 -9 44 -32q5 -6 5 -17q0 -1 -4 -15t-4 -16q0 -3 6.5 -19.5t6.5 -17.5zM297 618q-5 -1 -4 -1 q-9 -14 -20 -17h-12q-2 0 -15 1t-14 1q-11 0 -40 -22t-29 -29q0 -11 3 -19q1 -4 24 -18q6 -4 18 -13q4 -8 4 -11q0 -18 -6.5 -32.5t-40.5 -45.5q-4 -4 -19 -4q-1 0 -11.5 2.5t-12.5 2.5h-5q-4 -1 -6 -1h-9q-8 2 -21 9q-2 2 -11 16q-8 6 -18 20q-1 3 -1 24q0 28 9 65 q6 25 22 42t60 40q21 11 48 11q2 0 18 -1t17 -1q2 0 24 2.5t23 2.5q11 0 16.5 -12t8.5 -12zM467 395q-9 -4 -25 -13q-5 -3 -11 -14q-7 -14 -9 -16t-6 -3.5t-6 -3.5l-48 -36q-12 -7 -24 -13q-18 -12 -22 -26v-5q-1 -4 -1 -6q3 -36 -1 -39q-7 -5 -32 -28q-13 -13 -29 -13 q-2 0 -24 13q-8 29 -8 35q0 16 7 54q0 2 3.5 5.5t5 6t4.5 8t4 7.5q5 4 13 11q10 11 25 21q4 4 12 9q14 4 22 4q2 0 9.5 -2t8.5 -2q2 0 6.5 3.5t6.5 3.5q27 10 63 58q7 9 9 21q7 -9 22 -22q8 -2 23 -7q1 -3 2 -11zM360 58q0 -22 -45 -51q-6 -2 -14 -6q-9 -9 -29 -27 q-8 -6 -20 -6q-1 0 -10 7.5t-13 9.5q-14 3 -28 7.5t-17 19.5q-2 9 -2 18q0 15 5 24q8 14 29 34l34 33q9 10 22 10q9 0 33 -18l25 -14q16 -8 23 -19.5t7 -21.5z" />
<glyph unicode="@" horiz-adv-x="761" d="M723 160q0 -8 -9 -32l-10 -26l-28 -35q0 -2 -2.5 -6.5t-10.5 -14.5q-1 -4 -7 -12q-1 0 -4 -0.5t-4 -1.5l-9 -3q-1 0 -2 1h-2t-8 -8q-9 -10 -12 -13q-7 -6 -20 -10q-8 0 -23 -3l-62 -13q-5 -1 -14 -7t-10 -6t-5.5 1t-6.5 1q-13 0 -21.5 -4l-8.5 -4q-1 0 -19 7q-5 2 -17 2 q-1 0 -13.5 -3.5t-14.5 -3.5h-42q-1 0 -10 -2t-11 -2h-38q-1 0 -15 8.5t-20 11.5q-11 2 -33 7q-48 14 -84 50q-2 6 -9 16l-18 15q-5 7 -16 20q-9 10 -12 38q-5 38 -5 39q-5 7 -11 21q-11 42 -11 38q0 2 3 13t3 12q0 11 -7 19t-7 23q0 1 4 20.5t5 28.5q0 -6 5 14q0 16 -1 12 q3 27 13 77l4 4t3 4q4 16 14 47q4 10 21 27.5t20 25.5l11 7q3 5 8 11l8 8l5 10q10 4 28 13q16 13 46 35q35 21 49 21q2 0 3 -1t3 -1q-3 0 10 10q9 -7 9 -13q0 -9 -10 -9q-1 0 -2 1t-3 1q4 0 -8 -7q-9 -3 -28 -12q-2 -3 -8 -9q-4 -1 -11 -3q-9 -6 -59 -45q-2 -2 -6.5 -7.5 t-6 -9l-3.5 -8.5q-10 -12 -26 -37q-2 -12 -11 -35q-4 -3 -10 -11q-11 -16 -11 -23q0 -2 5 -13t5 -27q0 -1 -3 -22.5t-3 -23.5q0 -51 11 -92l27 -57q3 -13 12 -37q7 -6 19 -19q1 -1 4 -18q3 -13 11.5 -16.5t25.5 -14.5q5 -7 18 -20q8 -2 22 -7q15 -9 41 -22q5 -2 21 -4 q10 0 32 -5q7 -4 10 -4t12 -0.5t12 -1t10.5 -3t9.5 -2.5q38 0 100 16q15 7 44 18h11h7q5 -1 6 -1l9 9q23 22 23 33q0 8 -1.5 11t-13.5 8t-17 5q-32 -22 -43 -22q-7 0 -42 7q-14 3 -21 6q-3 4 -9.5 11.5t-21.5 18.5q-7 4 -25 4q-1 0 -12.5 -8.5t-17.5 -10t-20 -5.5 q-13 -8 -42 -18q-9 -1 -42 -1q-20 0 -22 1q-26 18 -41 31q-2 2 -23 27q-14 17 -8 30q4 9 4 18t-4.5 23t-4.5 20q0 5 6 23v26q0 9 1.5 17t6.5 19q-1 -2 -1 9q2 5 5 8v10q10 17 20 31q1 1 7 4q1 10 7 15q0 11 3.5 15t10 10.5l20.5 20.5q24 16 33 33q9 5 27 12q14 3 44 3 q22 0 33 -3q3 -1 12 -7q5 0 15 -5q5 -5 11 -14q2 3 7 3q1 0 9 -2t12 -2h22q1 1 2 3.5t2 3.5l18 18l17 -7q4 -8 4 -12v-12q-1 -11 -1 -18q-36 -22 -36 -40v-36l-4 -20q-1 -1 -5 -7q1 -4 0 -14q-3 -5 -10 -15q-2 -7 -4 -15q-4 -11 -10 -11q-9 0 -9 10q0 -8 7 27q-8 16 5 20 q-7 19 -7 26q0 53 -12 62q-1 1 -5 12l-2.5 1t-3.5 2q-5 8 -19 21q-5 6 -22 11q-9 3 -28 3q-1 0 -7 -1t-9 -1q-13 0 -36 -10q0 -2 -3 -6q-9 -7 -15 -15q-7 -2 -18 -14v-16q-2 -12 -8 -20t-19 -27q0 -5 -1 -15q-2 -5 -9 -11.5t-7 -13.5q0 -3 3 -9q-1 -9 -1 -27q1 -1 3 -3.5 t2 -4.5q0 -5 1 -21.5t1 -24.5q-1 -24 -2 -19q2 -6 10.5 -12.5t10.5 -9.5q15 -24 27 -37q5 -6 22 -6q3 0 10 -2q17 -5 19 -5q6 0 49 16q9 3 18 12q4 4 12 25q2 5 5 15q3 3 17 10q-2 5 -2 10q0 6 4 12t4 8q0 3 -3 7l23 17q5 -1 6 -7t2 -11q-1 -1 -3.5 -3t-3 -3.5t-1.5 -6.5 t-1 -6v-25q9 -4 22 -16l10 -26q7 -17 20 -17q23 0 33 4q4 4 12 11q36 32 45 79q1 4 9.5 15t8.5 17q0 22 17 61v24q1 9 4 25.5t3 17.5q0 15 -14 40q0 4 -1 13t-6 27q-6 6 -17 22q0 8 -3 21q-1 2 -16 21q-6 11 -25 30l-38 20q-19 12 -38 15h-24q-1 0 -4.5 2.5t-5.5 2.5h-6 q-4 -1 -5 -1q-8 0 -13.5 3t-9 4t-13.5 1q-18 0 -78 -5q-6 -3 -8 -3q-8 0 -8 9v3q8 6 12 13l5 2q1 0 6 -1.5t7 -1.5q1 0 12 3t16 4q9 0 28 1q23 5 33 5q14 0 42 -4l3 -3t5 -3t12.5 2.5t11.5 2.5q9 0 19.5 -5t42.5 -16q2 -1 28 -18q23 -14 34 -13.5t18 -15.5q1 -1 1.5 -5.5 t1.5 -6.5l22 -30q3 -6 11 -19q5 -4 13 -13q1 -14 7 -44q6 -19 7 -21v-7q-1 -5 -1 -13v-42q0 -1 1.5 -11t1.5 -12q0 5 -5 -20l-3 -29v-24q1 -10 -8 -21q-15 -18 -16 -19q-1 -8 -3 -21q-3 -4 -8 -12q-3 -12 -3 -23q0 -32 10 -32q2 0 9.5 2.5t8.5 2.5q11 0 22 -14q3 -4 3 -17z " />
<glyph unicode="A" horiz-adv-x="704" d="M452 419q0 -1 -3 -16l-43 16q-8 9 -13 44q-3 17 -13 31q3 7 -1.5 24t-17.5 17q-20 0 -20 -11q0 -1 2.5 -11.5t2.5 -12.5q0 -7 -10 -22l-14 -21q-18 0 -23 1q-19 6 -19 15q0 13 2 9v13q0 1 11 13.5t11 17.5q0 2 -3.5 16t-3.5 15q0 20 11 44q8 7 22 21q3 7 12 18q8 5 22 5 q2 0 11 -8.5t12 -14.5q2 -14 8 -45q5 -6 11 -17.5t8 -33.5q1 -8 3 -16q3 -11 11 -16q2 -13 8 -23q4 -3 10 -9q6 -9 6 -43zM667 20q0 -8 -7 -13q-22 -11 -35 -11h-50l-65 -8q-17 0 -77 20q-18 6 -27 31v6q0 11 23 20q3 2 23 17q0 8 2 23l2 15q0 7 -8 17l-12 21q0 5 -2 9 q-3 8 -8 11q-10 5 -19 5q-1 0 -10.5 -2t-11.5 -2q-1 0 -17 7q-19 8 -27 11q-12 2 -27 2q-12 0 -15.5 -1t-11.5 -6t-9 -5t-15 2t-16 2q-22 0 -48 -24q1 -7 -4 -17q-3 8 -3 19q0 17 2.5 20.5l6.5 9.5q1 8 4 22q3 6 9 14q5 2 11 9q2 11 12 30q3 -2 7 -10q-2 -11 3 -35 q10 -19 41 -19h12q-2 -4 1 -10h2q1 2 1 10l8 10q7 12 27 12q2 0 23.5 -3.5t22.5 -3.5q24 0 47 37q21 33 21 41q0 1 -4 6.5t-5 8.5q-5 25 -11 38q-1 2 -6 5.5t-5 5.5q0 4 5 19q9 -1 22 -8q1 -7 21 -24q6 -5 9 -20t12 -28q0 -8 1 -25l18 -60q-1 -14 1 -41q4 -15 20 -34l13 -27 q6 -16 32 -27l40 -12q8 1 21 -4q7 -12 24 -38q6 -12 6 -18zM288 377q0 -33 -13 -72q0 -2 -7.5 -10.5t-9.5 -8.5q-8 0 -15 20q0 1 5 18.5t6 23.5q-1 16 7 41q9 7 18 7q5 0 9 -19zM281 14q0 -9 -16 -15q-20 -7 -51 -7q-1 0 -7 1t-9 1q-11 0 -34 -1h-23q-10 0 -19.5 3.5 t-11.5 3.5t-23 -5q-5 -1 -11.5 -5.5t-8.5 -4.5q-9 0 -21 9q-6 4 -8 14q-1 4 -1 12q0 30 10 41q8 8 41 22q14 -2 40 3q9 4 14.5 18.5t9.5 18.5q14 -2 21.5 -5.5t22.5 -13.5l6 -12q5 -3 13 -11l9 -15q2 -3 7 -8q21 -14 48 -36q2 -1 2 -8z" />
<glyph unicode="B" horiz-adv-x="701" d="M594 521q0 -2 -2.5 -9t-2.5 -9q0 -7 -2 -23q-1 -4 -8 -16q-7 5 -7 10q-2 17 -22 85q-1 2 -8 15t-7 17q0 8 7 8q6 0 16 -14q5 -7 10.5 -12.5t14.5 -15.5q11 -31 11 -36zM517 605q0 -10 -15 -10h-24q-7 0 -12 3q-1 2 -5 6q-8 5 -25 11q-5 0 -11.5 2t-17.5 6q-4 1 -9 1.5 t-5 5.5q0 14 22 14q7 0 69 -10q-2 0 7 -9q5 -5 11 -7q15 -9 15 -13zM570 439q0 -14 -7 -32q-5 -13 -5 -9q-7 -7 -15 -7t-8 11q0 9 5 12l2.5 1.5t3.5 2.5q4 5 9 14q1 3 4 10q3 3 5 3q6 0 6 -6zM368 627q-6 -6 -9 -6h-50q-10 -12 -28.5 -19.5t-20.5 -14.5q-1 -2 -4 -6t-3 -6 q0 -1 3.5 -12.5t3.5 -13.5q0 -9 -5.5 -24t-5.5 -14q0 -9 6.5 -15t6.5 -14q0 -4 -21 -33q-16 8 -16 31v12q1 4 5 11t4 8t-4.5 10t-5.5 13q3 15 0 43q-2 4 -11.5 13t-16.5 10h-21q-1 0 -21 -2t-22 -2q-13 0 -19 2q-28 6 -39.5 9t-11.5 11q0 3 1 10t7 9q40 11 44 11 q1 0 16.5 -2t17.5 -2t14.5 3t13.5 3t11 -3t13 -3q2 0 10 1t9 1q10 0 24 -6.5t17 -6.5q2 0 11.5 6t10.5 6q2 0 13.5 -4.5t12.5 -4.5t6.5 1t7.5 1q1 0 14 -2.5t15 -2.5q1 0 3.5 1.5t4.5 1.5q6 0 9 -3v-6zM651 160q0 -13 -8 -26q-4 -2 -10 -9q-2 -6 -5 -20q-1 -9 -7 -25 q-11 -17 -42 -48q-17 -12 -32.5 -16l-48.5 -13q-7 0 -26 -3q-24 -8 -20 -8q-1 0 -12 3.5t-13 3.5q-5 0 -19 -2q-4 -1 -11 -3.5t-9 -2.5q-1 0 -8.5 3.5t-12.5 3.5q-6 -1 -18 0q-5 0 -14 3t-10 3q2 0 -9 -5q-17 -8 -42 -8q-1 0 -27 2.5t-28 2.5q-1 0 -19.5 -2.5t-20.5 -2.5 q-1 0 -12.5 3.5t-13.5 3.5q-1 0 -13.5 -1t-14.5 -1q-39 0 -56 5q-3 0 -19 14q4 39 26 39h6q5 -1 7 -1q1 0 22.5 6.5t23.5 6.5q1 0 30 -6t31 -6q12 0 28 33q3 6 2 12q-2 9 -2 10q1 11 4 35q1 3 5 11t4 9q0 2 -3.5 15t-3.5 14v38q0 6 -6.5 12.5t-6.5 16.5q0 13 10 30 q1 12 2 33q1 12 9 33v3q-5 7 0 9v9q1 7 -3 21l-4 14q0 7 9 23q9 -10 21 -18q5 -10 5 -14q0 -5 -13 -21q-3 -3 -3 -7t7 -7q3 -1 6 -1.5t5.5 -2.5t3.5 -3q5 0 13 -1q37 -10 34 -10q2 0 14.5 2t13.5 2q-1 0 9 -10q-2 -12 -19 -11q-24 2 -38.5 -11.5t-14.5 -33.5q0 -2 5 -18 q3 -8 0 -22t7 -40q2 -8 2 -13t-10 -16q-7 -7 -14 -15q13 -12 28 -50l2 -24q3 -16 20 -22q8 1 22 -1q5 -2 14 -8.5t10 -6.5q39 0 62 7q3 1 11.5 5.5t9.5 4.5t10 -2t11 -2q9 0 20 4l22 15q8 3 22 13.5l41 31.5q17 11 17 64q0 29 -11 43q-3 5 -10 15q-7 4 -17 12l-9 24 q-9 16 -25 20q-9 2 -29 9q-3 1 -12 7.5t-11 6.5q-6 0 -20 -7q-6 7 -21 20q-22 -13 -34 -13q-14 0 -21 13q9 13 38 13h7q5 -1 6 -1q5 0 12.5 9t11.5 10q11 2 34 7q1 0 4 2t5 2q14 2 22 2l4 -2q-4 -1 -8.5 -6t-4.5 -16l17 -17q4 -5 13 -11h21q9 -9 38 -23q6 -2 24 -31 q8 -13 13 -51q-1 -9 1 -26q2 -5 9.5 -20.5t7.5 -23.5z" />
<glyph unicode="C" horiz-adv-x="574" d="M503 432q0 -4 -6 -16q-1 -4 -4.5 -10.5t-12.5 -13.5q-5 9 -12 24q-4 5 -10 14q-1 19 -7 61q-1 3 -14 21q-2 3 -5 8t-16 12q0 2 -2 6t-3 5q-1 8 -5 22q-4 7 -16 10l-17 4l-26 17q-4 7 -16 17q-8 0 -20 3t-12 20q0 16 15 16q10 0 16 -2q3 -4 11 -9q12 -2 33 -10l15 -22 q2 -2 27 -12q9 -3 13 -11q3 -4 8 -14q6 3 15.5 16.5t7.5 21.5t0 18q10 6 20 16q12 -12 14 -25q9 -56 9 -71q0 -7 -2 -11.5t-6 -14.5q0 -5 3 -10q-3 1 -3 -3q0 -1 4 -38t4 -39zM524 182q0 -12 -18 -58q-1 -8 -4 -24q0 3 -10 -10q-3 -8 -13 -22t-14.5 -19.5l-11.5 -13.5 q-17 -25 -36 -37q-10 0 -30 -4q-31 -16 -38 -16h-24q-2 0 -7 -1t-6 -1q-2 0 -22.5 5.5t-21.5 5.5t-9 -1.5t-10 -1.5q-1 0 -9.5 7.5t-12.5 8.5q-8 -2 -23 2q-12 8 -25 26q-9 12 -19 12q-1 0 -8 -1.5t-9 -1.5q-6 0 -12 15q-2 8 -5 16l-7 7q-2 6 -7 18q-5 4 -15 13q-1 4 -6 9.5 t-13 16.5t-12 32q-4 19 3 38q4 11 -5 25q-1 2 -4.5 4t-3.5 3q-6 12 -6 22q0 57 4 76q5 4 10 12q7 21 7 29q0 3 -2.5 13.5t-2.5 24.5q0 41 11 69q9 4 15 15q3 7 6 13q7 4 16 14q1 6 5 17q6 17 22 50q26 11 24 11q1 0 18 -5q8 7 12.5 18l8.5 21q12 8 31 8q26 0 38 -3 q7 -7 7 -11q0 -20 -12.5 -24t-25.5 -7q-20 -8 -33 -22q-6 -1 -18 -5q-16 -5 -23 -21q-1 -7 -6 -19q-1 -2 -7 -6t-8 -7q-6 -9 -9 -16q-1 -10 -6 -30l-12 -30q-5 -5 -15 -17q-3 -4 -1 -16l2 -17l-9 -48q8 -17 1 -37q-1 -3 -6.5 -8.5t-5.5 -6.5q0 -7 14 -29q6 -10 5 -28 q-2 -22 0 -29q10 -10 20 -29q1 -17 7 -48q1 -1 4.5 -4t4.5 -4q12 -20 25 -30q26 -20 48 -31q11 -4 32 -13q29 -14 41 -14q1 0 9 5.5t14 7.5q16 2 48 15q13 12 37 32q17 10 25 30q4 10 15 21q4 3 11 9q4 14 10 33q2 7 8 11q34 16 37 16q2 0 10.5 -6t9.5 -8q3 -6 3 -16z" />
<glyph unicode="D" horiz-adv-x="699" d="M360 612l-21 -12q-12 0 -23 9.5t-15 9.5q-7 0 -23 -31q-3 -2 -8 -7q-15 -45 -15 -64q0 -1 3.5 -10.5t3.5 -11.5q0 -7 -6 -15q-11 -2 -14.5 -10.5t-6.5 -17.5q-6 32 -6 36q-6 20 -16 28q-1 4 0 28q1 14 -7.5 27t-33.5 19q-5 2 -21 2t-27 -2q-3 0 -9 -1.5t-7 -1.5 q-22 0 -38 10q-19 11 -19 30q0 14 21 21q5 3 16 8q28 6 39 6q2 0 10.5 -2.5t9.5 -2.5h45q-8 0 20 -8q4 0 12.5 -0.5t12 -1.5t11.5 -3t9 -2q2 0 9 1.5t8 1.5q6 0 28 -11q1 0 1.5 -2t0.5 -3q13 -5 15 -5q3 0 10 7t13 7t18 -4v-22zM662 318q0 -5 -3.5 -20t-1.5 -31q2 -5 2 -11 q0 -7 -4.5 -22t-4.5 -16v-37q0 -23 -13 -44q-9 -8 -26 -25q-5 -10 -16 -27l-15 -24q-2 -3 -36 -20q-11 -7 -34 -17q-7 1 -21 0q-15 -6 -44 -16l-23 -3l-16 -8q-4 -1 -13 -1l-70 8q-5 0 -23.5 -11t-21.5 -11q-2 0 -10 6t-11 8q-9 4 -22 4q-11 0 -48 -7q-5 -3 -16 -7 q-8 14 -36 14q-2 0 -28 -3q-30 -4 -42 -5q-15 30 -15 39q0 6 4.5 20t10.5 15h14q1 0 14 -1t15 -1t9.5 2.5t8.5 2.5h33q49 0 54 37q4 5 9 22q1 13 1 43q0 12 -2 50q0 1 -2 5.5t-2 6.5q0 1 3 9t3 12q3 37 -1 111q-1 6 8 33q-2 11 4 35h22q9 -18 9 -82v-54q0 1 1.5 -13t0.5 -21 q0 -3 -2 -11t-2 -9q0 -2 1 -5.5t1 -4.5q1 -10 7 -19.5t6 -16.5q0 -1 -5.5 -14t-5.5 -15q0 -3 10 -21q2 -3 2 -23q-3 -14 -4 -12q3 -10 7 -20q5 -14 17 -21q7 -7 20 -7q2 0 11.5 4t10.5 4t10.5 -3.5t11.5 -3.5t21.5 7.5t20.5 7.5t9.5 -2t10.5 -2q5 0 32 18q7 3 21 11t32 24 q15 12 40 39q16 22 20 42q0 8 3 22q10 17 13 37q2 15 3 30q0 2 5.5 13.5t5.5 13.5q0 1 -3.5 15.5t-3.5 16.5q0 10 2 14q0 1 2.5 3.5t2.5 4.5q0 1 -2.5 5t-2.5 6q-3 7 -3 16q1 9 0 25q-3 7 -7 20.5l-12 42.5q-2 5 -11.5 8.5l-9.5 3.5q-8 5 -21 14q-5 4 -5.5 9t-1.5 10 q-3 10 -16 15l-19 7q-6 9 -21 23q-14 2 -43 9q-3 1 -11.5 9.5t-9.5 8.5t-9.5 -4t-10.5 -4q-1 0 -8.5 3.5t-10.5 4.5l2 14t1 8q18 7 17 7q2 0 20.5 -4.5t19.5 -4.5l9 2.5t13 2.5q15 0 21 -3q6 -7 20 -19q8 -1 22 -6q4 -4 12 -11q14 -5 46 -27q4 -7 13 -19q14 -11 38 -34 l7.5 -15t14.5 -36q0 -13 3 -37q0 -2 2.5 -11t2.5 -14q2 -19 5 -57q0 -4 5 -9q3 -9 3 -21z" />
<glyph unicode="E" horiz-adv-x="688" d="M624 476q-14 -6 -17 -25q-5 -31 -6 -34q-7 4 -21 13q-6 42 -6 45t-1.5 5.5t-1.5 3.5q2 12 2 36q-3 18 -14 40q-1 3 -21 8q-6 2 -23 11q-2 4 -7.5 9.5t-12.5 5.5q-1 0 -10.5 -3t-11.5 -3t-10.5 3t-10.5 2q-3 0 -11 -8t-10 -9q-7 0 -22 -3q-11 16 -23 16q-3 0 -10 -1.5 t-9 -1.5q-13 0 -27 6q-2 1 -8 6.5t-8 5.5q-1 0 -10 -6.5t-11 -6.5q-1 0 -9 1t-10 1q-3 0 -44 -12q-11 -5 -11 -23q0 -1 2.5 -11.5t2.5 -12.5q0 -9 -10.5 -24.5t-10.5 -14.5q0 -2 7 -16.5t7 -15.5q0 -9 -10.5 -18.5t-10.5 -13.5q0 -10 14 -15q5 -9 14 -31q-2 -9 -3 -27 q1 -14 14 -16.5l24 -4.5q6 -4 19 -10q-16 -10 -26.5 -11.5t-20.5 -2.5q-14 -2 -20 -14q-11 4 -22 2q-3 13 -3 47q0 8 -2 24t-2 17t3 20.5t3 21.5q0 1 -1.5 10t-1.5 14q-1 33 -1 65q-3 48 -13 58q-3 2 -9.5 4t-21 3.5t-15.5 1.5q-25 0 -42 -19l-37 26q-5 3 -29 11q0 2 -3 8.5 t-3 8.5q0 5 6 16q24 17 64 19q22 -16 30 -16h36q1 0 9 -3t10 -3t11 5.5t10 5.5q2 0 14 -4t13 -4q2 0 18 2t17 2q2 0 12 -4t11 -4q2 0 11 3t10 3q2 0 22 -6.5t21 -6.5t10.5 4.5t11.5 4.5t12 -1t11 -1q2 0 19 2t18 2q2 0 12.5 -3t11.5 -3q2 0 13 2t12 2q2 0 23 -3t22 -3 q2 0 6 1h6q2 0 11.5 -2t10.5 -2q9 3 21 3q6 0 16 -4q3 -3 7 -9q16 -37 16 -43q0 -1 -4 -21t-4 -22q0 -4 11 -21q5 -10 5 -34zM451 243q0 -5 -6 -28q-2 -6 1 -41q1 -25 -12 -35q-2 3 -9 34q-2 7 -7 21q-2 3 -5.5 10t-3.5 25q0 17 4 23.5t11 22.5q1 13 8 32l-1 1q-24 7 -62 7 q-5 0 -7 12q0 1 5 11q3 1 9 1q1 0 7 -1.5t8 -1.5q3 0 27 20q2 5 7 13q-4 7 -14 16q-5 4 -5 15q0 17 11 23t11 10q0 1 -2 5t-2 6q-4 3 -14 7q-2 8 -2 12q0 1 1 6.5t1 8.5q5 1 21 7q9 -16 9 -20q0 -1 -4 -16t-4 -17q0 -1 5.5 -17t5.5 -18q0 -1 -3 -12t-4 -15q1 -16 1 -51 q0 -2 -2 -6t-2 -6q0 -15 8 -41q1 -3 5.5 -12.5t4.5 -10.5zM638 44q0 -42 -33 -54q-5 -2 -20 -2q-1 0 -30.5 1t-31.5 1q-1 0 -11 -3.5t-12 -3.5q-4 0 -12.5 9.5t-10.5 9.5l-9 -5t-17 -5q-14 0 -22.5 6.5t-14.5 6.5q-1 0 -10 -3.5t-11 -3.5q-8 0 -22 4.5t-17 7.5v6q0 12 16 20 q13 6 24 6q2 0 10.5 -2t9.5 -2q2 0 11 3t10 3q2 0 10 -4t11 -5h12h12q13 4 39 14q7 9 22 25q8 5 20 19q5 11 5 31q0 2 -3.5 14t-3.5 13q0 14 11 35t11 28q3 0 10.5 1.5t8.5 1.5q6 0 19 -25q9 -17 11 -41q0 -9 1 -25q4 -26 4 -18q0 -1 -2.5 -12.5t-2.5 -13.5q0 -1 4 -18.5 t4 -19.5zM343 11q-9 -9 -14 -12q1 5 -7.5 10t-12.5 5q-1 0 -20.5 -4.5t-21.5 -4.5q-1 0 -19.5 1.5t-20.5 1.5q-1 0 -33 -8.5t-34 -8.5q-1 0 -10 2t-11 2q-1 0 -11 -6t-12 -6q-1 0 -11 2t-12 2q-6 -2 -15 -2q-18 0 -24.5 3t-20.5 9q-14 12 -14 26t12 19q28 11 63 11 q2 0 22 -3.5t21 -3.5q15 1 42 5q10 3 11.5 28t0.5 37q0 2 -2 9.5t-1 10.5q4 7 9 20q-1 14 -1 45l3 18q-2 17 1 52q8 -4 23 -17q5 -8 1 -31q-2 -11 7 -42q0 -11 1 -34l5 -54q0 6 5 -9q0 -2 -1 -6v-6q1 -19 37 -29q7 -2 30 -16q1 -1 31 -6q0 -6 4 -10z" />
<glyph unicode="F" horiz-adv-x="657" d="M620 438q0 -23 -5 -38h-22q-8 5 -21 19q-2 4 -2 21q0 1 2 15q1 1 2.5 3t1.5 3q0 16 -1 23q8 10 8 15q0 7 -4 17q-6 6 -8 8.5t-2 12.5v32q-2 13 -35 32q-5 5 -17 16q-16 7 -52 26q15 6 23 6q2 0 27.5 -2.5t26.5 -2.5q6 0 27 6q9 1 24 3q5 -7 13 -20q9 -27 9 -45 q0 -2 -3.5 -11.5t-3.5 -10.5q0 -2 6 -24t6 -23v-81zM391 632q-2 -2 -8 -5h-12t-18 5q2 4 5 12h33v-12zM463 198q0 -1 -3.5 -8t-3.5 -10q0 -8 -3 -22q-3 -7 -9 -7q7 0 -21 4q-3 3 -2 13q1 11 0 13q0 2 -3.5 8t-3.5 9q0 16 -5 34q-9 30 -9.5 32.5t-4.5 8.5q-49 31 -56 31 q-1 0 -11 -5t-12 -5q-1 0 -8.5 1.5t-9.5 1.5q-16 0 -30 -24q-11 -19 -11 -50q0 -7 -6 -13q17 -38 17 -58v-43q0 -30 4 -38q7 -14 36 -14q13 0 21 3t26 5q3 3 6 3q1 0 10 -2t11 -2t10 1t9 1q14 0 22 -8q6 -4 6 -27q0 -5 -5 -12q-15 -2 -24 -5q-20 -7 -38 -7q-15 0 -21 1 l-43 -8q-21 8 -23 8q-14 0 -42 -8q-7 -4 -21 -9q-16 0 -44 -4q-23 -9 -25 -9h-35q-10 0 -24 3q-2 0 -8.5 5t-9.5 6q-10 4 -24 15q-5 7 -5 20q0 22 8 30q2 2 39 25l44 -13q25 5 21 5q2 0 10 -1t9 -1q-3 0 10 3q19 5 27 26q2 5 6 35q5 7 11 23q1 2 1 7q0 1 -2 10.5t-3 13.5 q-1 6 1.5 16t2.5 14q0 9 -7.5 28.5t-7.5 29.5q0 8 4 22l5 5q0 -4 -7 41q0 1 -1 3t-1 4q0 14 1 43v28v42q0 1 -2 8.5t-2 9.5q0 -1 7 30q4 -1 8 3t4 8q0 6 -12 9l-6 31q-7 18 -24 24q-9 3 -38 3h-19q-20 -4 -16 -4q2 0 -37 23q-4 16 -4 26q0 31 28 31q11 0 21.5 -7t11.5 -7 q-8 0 19 8h13q28 0 52 -4q4 -1 12 -7.5t10 -6.5t11 3t10 3q10 0 38 -7q-3 -8 -14 -21q-15 -6 -43 -21q-6 -2 -6 -12q0 -6 6 -22q3 -7 1 -16l-2 -14v-22q3 -12 7 -37q-2 -17 -2 -49q5 -17 11 -52q2 -10 9 -15q24 -24 38 -24q1 0 8.5 1.5t9.5 1.5t23 -8q5 6 17 16q4 4 34 17 q22 9 26 26q1 6 0 26q0 16 7 26q2 -1 13 -17.5t11 -20.5v-34l2 -14t2 -21q0 -2 -2 -10l-1 -33q0 -7 2 -11q2 -7 5 -25q-1 -9 -1 -28q0 -4 4.5 -17t4.5 -15z" />
<glyph unicode="G" horiz-adv-x="597" d="M488 593q0 -2 -5 -13.5t-5 -23.5q0 -7 4 -24q-1 4 -1 -17v-34q0 -1 1.5 -17.5t1.5 -18.5q0 -1 -15 -25q-8 5 -22 15l-21 21q-4 13 -13 34q-11 27 -29 47q-6 10 -22 24q0 20 -20 28q-9 -1 -25 3q-11 7 -17 34q7 2 20 11q5 -16 27 -22l34 -10q3 -1 11.5 -15.5t14.5 -14.5 t11 3t6.5 10.5t4.5 17.5q1 5 7.5 15.5t10.5 10.5q1 0 19 -6q22 -31 22 -33zM584 259q0 -20 -17.5 -23.5t-34.5 -5.5l-24 -6q-14 -6 -25 -21q-6 -9 -6 -21q0 -2 2.5 -10t1.5 -12q-7 -47 -7 -41q0 -14 7 -56q11 -33 11 -31q0 -10 -6 -19l-17 -25l-32 20q-19 12 -30 12l-24 -17 q-11 -8 -44 -13q-6 -1 -19 -14q-16 11 -20 11l-10 -1.5t-13 -3.5q-19 -8 -20 -8t-18 5.5t-25 6.5t-21 3q-8 19 -23 21q-6 0 -19 1q-16 5 -22 17q0 10 -3 29q-1 6 -9 11q-4 4 -9 7q-13 7 -21 19l-5 18q-6 11 -16 34q-2 12 -8 36q-6 4 -14 16q-7 27 -7 54q0 6 2 15t1 39 q-1 23 10 34q1 3 -0.5 10.5t-1.5 10.5q1 8 4.5 23t3.5 20l-4 20q6 19 23 41q15 11 30 35q0 -6 -2 20q-1 14 5 21q13 4 21 17l13 13q1 1 7 13q1 1 4 2t4 2q8 4 25 15l32 27q2 0 12 -3t11 -3q2 0 11 2.5t10 2.5q2 0 29 -10q3 -1 3 -5q0 -10 -15 -17q-11 -6 -19 -6q-1 0 -9 1 t-10 1q-14 0 -18 -11q0 -7 -5 -20q-12 -6 -34 -21q-7 -12 -28 -36q-7 -4 -19 -15q-1 -5 -5 -16q0 -9 -4 -27q-2 -6 -10.5 -19.5t-8.5 -15.5q0 -1 3.5 -17t3.5 -18q0 -16 -7.5 -23t-7.5 -16q0 -1 2.5 -17t2.5 -18q0 -8 -5 -18t-5 -14q0 1 8 -20q12 -21 14 -69q0 -8 14 -33 q3 -4 4 -20.5t8 -25.5q4 -3 11 -11q2 -6 7 -18q16 -21 29 -31q9 -2 28 -9q16 -8 21 -8q2 0 10.5 1.5t9.5 1.5q2 0 22 -6q6 -2 13.5 -6t8.5 -4q14 0 32 18q1 1 6.5 3.5t6.5 3.5t17 20q11 6 27 21q5 11 16 33q3 6 21 31q10 12 10 23q0 8 -4 12t-6 9q0 9 -2 27q-6 24 -24 24 t-38 -8q-8 32 -8 25q0 11 8 15q48 16 63 16q1 0 11.5 -4.5t15.5 -4.5q15 0 24.5 4.5t14.5 4.5q2 0 10.5 -2.5t9.5 -2.5q2 0 11.5 4.5t10.5 4.5q20 0 42 -13q9 -5 9 -18z" />
<glyph unicode="H" horiz-adv-x="697" d="M636 633q0 -12 -14 -19.5t-35 -11.5h-20q-12 -2 -19 -12q-2 -5 -7 -15q-3 -3 -9 -9.5t-6 -27.5q0 -2 1 -5.5t1 -4.5q-1 -8 1 -23q6 -19 6 -29q0 -16 -1 -23q0 -3 -2.5 -10.5t-2.5 -8.5l6 -22q3 -11 3 -25q1 -2 2.5 -6t1.5 -6t1 -8v-8q-1 -17 1 -26t2 -11v-126 q0 -12 -5 -17q-9 -9 -20 -9q-6 0 -22 7q-3 6 -3 13q0 1 4 9.5t4 10.5q0 1 -2.5 4.5t-2.5 6.5q0 24 -2 66q-1 4 -18.5 15.5t-22.5 11.5q-1 0 -17.5 -2.5t-18.5 -2.5q-5 0 -10 5t-13 8q-9 0 -25 2q-3 0 -11 3t-10 3q-14 0 -19.5 -1.5t-13.5 -7t-9 -5.5q-2 0 -5.5 3t-5 3 t-5.5 1.5t-5 1.5l-20 -10q-9 -3 -28 -12q-5 -8 -16.5 -23.5t-7.5 -46.5q3 -19 -6 -62q-1 -3 -4.5 -12t-3.5 -11t3.5 -6.5t3.5 -6.5l6 -29q14 -43 30 -48q5 -2 42 -2q13 -13 13 -26q0 -33 -13 -37q-7 0 -22 -1q-8 -2 -24 -7.5t-17 -5.5q-2 0 -11 5.5t-11 5.5q-1 0 -21 -6.5 t-22 -6.5q-1 0 -9.5 1t-10.5 1q-1 0 -15 -2t-16 -2q-20 0 -40 20q-5 2 -14 6q-4 2 -10.5 11t-6.5 14t7.5 15t11.5 12q25 9 40 10.5t31 2t26 8.5q6 3 6 10q0 1 -4.5 15.5t-4.5 16.5q0 1 6 11t6 13q0 -8 -4 20q0 6 1 26v30q0 7 -2 20.5t-2 14.5q0 3 8 24q0 2 -1.5 4t-1.5 3 l-6 36q0 2 6 28.5t6 27.5t-3.5 10t-3.5 11q0 1 3.5 12.5t4.5 16.5q-1 9 1 30q6 27 6 32q-10 5 -14 10t-2 20q2 18 1 23q-12 48 -42 54q-12 1 -23 1q-14 1 -22 8q-1 1 -29 43q10 7 32 18q3 2 19 2q2 0 13 -2.5t12 -2.5t19.5 3.5t20.5 3.5t12 -4t11 -4q2 0 10 2t9 2q2 0 15 -4 t14 -4t11 1h12q12 0 14 -1q14 -4 14 -26q0 -23 -16 -27q-47 -13 -50 -38q0 -13 -2 -38q0 -4 -2.5 -9.5t-13.5 -42.5q8 -2 8 -31q-2 -26 -2 -27q0 -26 22 -37q4 -4 19 -9h27q2 0 17 1h17q-6 0 23 -9q10 -3 23 -3q2 0 12.5 2t11.5 2h6q5 -1 6 -1q11 0 19 6t9 6t20.5 -4 t21.5 -4q7 0 17 5.5t11 11.5q4 18 14.5 29.5t10.5 21.5q0 54 -3 73q0 1 -9 8v34q0 3 -2 5q0 26 -1 28q-8 16 -38 20t-39 21l-4 4q0 2 -1 4.5t-1 3.5q0 2 1 5.5t1 4.5q16 1 45 5l10 3.5t9 2.5q3 0 5 -2q15 -5 28 -5q1 0 17.5 3t18.5 3q1 0 5.5 -1t6.5 -1q1 0 12 4t13 4 q6 0 41 -16q11 -11 11 -12zM660 32q0 -28 -13 -28q-1 0 -8 1.5t-9 1.5q-6 0 -25 -13h-14q-13 1 -15 1l-99 12h-11q-8 -1 -9 -1q-18 0 -23.5 4t-15.5 22q5 8 9.5 16t13.5 8h7q5 -1 7 -1q6 0 24 5q4 1 11 10q2 6 6 17q5 17 24 51h21q5 -25 11 -50q6 -20 35 -20q1 0 6 1h7 q3 0 26 -10q9 -1 24 -6q10 -6 10 -21z" />
<glyph unicode="I" horiz-adv-x="506" d="M469 32q0 -18 -9 -23q-17 -9 -23 -9q-1 0 -8 1.5t-9 1.5q-21 0 -24.5 -1t-11.5 -6t-9 -5q-2 0 -11 4t-10 4t-11 -4t-12 -4q-13 0 -24 5t-17 5q-1 0 -8.5 -1t-9.5 -1q-8 0 -22 12q-27 -19 -23 -19q-1 0 -20 9q-9 4 -20 4q-1 0 -12.5 -2.5t-13.5 -2.5q6 0 -13 1 q-7 -4 -46 -8q-10 0 -30 5q-4 6 -15 13l-20 30q6 7 20 17h21q4 1 14 5.5t12 4.5q1 0 19.5 -5t20.5 -5q3 0 47 8q19 3 28 18q3 11 10 28q6 13 6 15q0 7 -3 9.5t-3 5.5q-3 24 -2 56q0 19 8.5 28t8.5 21q0 2 -3 6.5t-3 6.5q-10 22 -10 38q-1 12 1 26q3 15 0 45q-3 37 -3 51 q0 1 5 65.5t5 66.5q0 16 -8 28q-6 8 -18 9l-16 2q-11 5 -19 12q-1 0 -15 1q-6 0 -25 -2l-15.5 -3t-11.5 -2q-6 0 -41 11l1 15q15 15 22 15q2 0 11 -2t10 -2t14.5 3.5t19.5 4.5q11 -1 32 0q6 1 19 5l43 -9q12 2 19 2q2 0 11.5 -2t10.5 -2q-7 0 20 6q5 1 16 1q2 0 18 -2t17 -2 h57q21 0 31 -13q8 -8 8 -12t-2.5 -7t-16.5 -17q-6 -5 -20 -5q-1 0 -10.5 6.5t-11.5 6.5q-39 0 -61 -4q-8 -5 -22 -12q-8 1 -23 -1q-8 -3 -8 -24v-11l7 -7q10 -14 9 -43l-1 -34q0 -1 1.5 -8t1.5 -10q0 -11 -1.5 -34.5t-1.5 -35.5q0 -18 1 -14q-3 -6 -3 -7t2 -9t2 -12 q0 -1 -1.5 -6.5t-1.5 -7.5q0 -6 5 -16.5t5 -11.5q0 -4 -17 -21q-5 -15 -5 -12q0 -5 7.5 -13t11.5 -15q9 -18 8 -56q0 -12 -4.5 -19.5t-4.5 -13.5q0 -2 9 -36q7 -28 29 -32q2 0 4 -2q14 -10 23 -10q2 0 19.5 1.5t18.5 1.5q2 0 13 -2t12 -2q2 0 9.5 1t8.5 1q9 0 20 -11t11 -18 z" />
<glyph unicode="J" horiz-adv-x="609" d="M584 620q-22 -9 -23 -17h-20q-4 1 -11.5 3.5t-8.5 2.5t-11 -5t-14 -6q-28 -5 -75 -20q-17 -9 -17 -30q0 -3 5 -18.5t5 -23.5q0 -2 -8 -35.5t-8 -40.5v-2q-4 -12 -4 -19q0 7 7 -28q1 -4 -4 -23q-1 -5 2.5 -19t3.5 -18q2 -36 2 -75q0 -1 -2.5 -10t-3.5 -13q-3 -24 2 -45 q2 -7 -4 -33q0 -11 -3 -20q-3 -3 -9 -10q-12 -43 -35 -79q-2 -5 -21 -10l-21 -12q-18 -4 -50 -12q-10 -6 -30 -16q-4 -2 -27 -9q-10 -3 -20 -3q2 0 -42 16q-1 0 -22 3q-9 16 -29 26q-29 14 -36.5 19t-16.5 54q-1 6 -5.5 18t-4.5 13q0 20 7 42q8 16 21 45q7 4 20 9q4 1 28 1 q20 4 18 4q12 0 18 -3t13.5 -8.5l20.5 -15t13 -36.5q0 -16 -16.5 -35.5t-16.5 -27.5q0 -14 1 -18q2 -7 8.5 -10t19.5 -10q17 -20 41 -20q1 0 13.5 2t17.5 3q25 0 49 12q9 4 28 43q7 12 15 33q2 14 4 43q0 10 2 30q5 4 12 12q5 22 5 54q0 10 -9 25q-3 3 -8 9q-1 3 -1 11 q0 12 9 35t9 35q0 6 -7 27q-2 2 -5 7t-3 9q6 18 0 42q-2 3 -5 11q1 9 0 25q-1 5 -4 14q0 -1 3 29q1 17 -7 27q-12 12 -30 22h-6q-12 0 -59 -7q-2 0 -11 -4t-11 -4q-13 0 -19.5 5t-17.5 15q-8 2 -21 16q2 4 7 10q10 10 33 22q-6 -1 39 -1q2 0 31 2t30 2l14.5 -1.5t21.5 -1.5 q5 0 47 1q30 1 49 0q2 0 11.5 -4.5t11.5 -4.5t21 3.5t20 3.5q2 0 11 -2t10 -2t8.5 1t9.5 1q3 0 14.5 -4t23.5 -4q3 -1 7 -5v-17z" />
<glyph unicode="K" horiz-adv-x="705" d="M668 611q0 -3 -7 -11.5t-11 -9.5q-14 -5 -67 -10q-5 -1 -11 -6q-9 -9 -11 -10q-12 -8 -22 -12q-16 -1 -44 -12q-6 -4 -9 -17t-9 -16q-11 -2 -31 -11l-32 -39l-12 -6q-8 -5 -18 -18q-4 -16 -15 -33t-11 -19q0 -6 10 -19.5t10 -30.5q0 -26 -12 -38q-9 7 -21 11q-4 8 -12 20 q-16 13 -28 13q-4 0 -15.5 -8t-15 -12.5t-8.5 -15.5q-6 -3 -19 -12q-18 -13 -25 -28q-1 -4 -5 -11q-16 -13 -16 -34q0 -3 2 -19q1 -10 0 -24q-2 -18 -2 -23q0 -12 3.5 -35.5t3.5 -34.5q-1 -2 2.5 -7.5t3.5 -8.5q4 -14 7 -20q7 -12 17 -13q2 0 10.5 1.5t9.5 1.5q25 -3 24 -19 q-1 -14 -26 -14q-2 0 -11.5 3.5t-11.5 3.5q-1 0 -9 -3.5t-10 -3.5l-51 1q-10 0 -34 -10t-42 -10q-5 0 -24 6.5t-20 8.5q-6 8 -6 18q3 5 7 15q38 23 48 22q6 0 17 -2q25 -7 19 -7q7 -1 36 38q0 -1 -4 21q-2 7 -2 28q0 22 1 17q-6 27 -6 19l4 17.5t5 31.5q-1 9 -2 28 q1 7 4.5 22.5t3.5 16.5q0 6 -7.5 13t-7.5 17q0 9 8 25.5t8 26.5q0 24 -3 36q-9 23 -9 18q0 -7 4 13q2 10 4 33v7q-1 6 -1 8q-1 5 1.5 15l2.5 10l-1.5 12.5t-1.5 25.5q-2 6 -6 17q0 3 -1 8l-12 21q-2 4 -5 11q-7 12 -22 12q-1 0 -21 -5.5t-22 -5.5q-6 0 -30 12q-3 2 -7 10 q1 0 8 10q7 2 19 6q17 8 30 8q2 0 14 -3.5t13 -3.5q2 -1 30 4.5t29 5.5q33 -11 47 -11q2 0 8.5 1t7.5 1h43q4 -8 4 -16q0 -19 -10 -19q-2 0 -8 1t-9 1q-11 0 -20 -5q-12 -5 -32 -20q-5 -5 -7.5 -18.5t-0.5 -19.5q0 -2 3 -8q1 -4 -4 -23q1 -9 1 -28q-4 -8 -8 -23q5 -9 2 -47 q-4 -5 -11 -17q-1 -1 -1 -4q0 -4 5 -12.5t6.5 -15t4.5 -17.5q0 -3 6.5 -11t9.5 -8l11 8l19 10q5 3 13.5 11t24.5 25q5 11 18 31l27 25q4 8 16.5 18t19.5 12t19 11q1 1 1.5 4t0.5 4q5 4 13 12q1 2 10 19q22 11 23 12q13 8 17 18q1 5 2 13q5 15 5 9q0 10 -9.5 17t-16.5 7 q2 0 -20 -2q0 1 -2 5t-2 6q0 9 5 14q1 2 21.5 6t30.5 4q2 0 6.5 -1t5.5 -1t7.5 4.5t10.5 5.5t18 1q9 0 18.5 -4t13.5 -4q6 0 27 7.5t38 7.5q57 -6 57 -34zM667 14q-2 -12 -11 -27l-21 -8q-2 0 -31 4.5t-30 4.5t-15.5 -2t-16.5 -2h-12q-4 2 -12.5 9t-10.5 7q-22 0 -44 -2 q-3 0 -39 -8q-9 9 -9 22t9 22q17 1 35 2.5t19 22.5q0 5 -10 18q-4 14 -20 39q-6 4 -6 13.5t-15 26.5q-19 21 -21 25q-2 13 -7 39q-12 43 -12 36q0 7 18 12q4 0 4 -2q2 -5 6 -14q5 -5 15 -16l12 -27q11 -20 26 -22q3 -1 7 -3q6 -6 7 -11.5t3 -13.5q5 -11 16 -33l23 -39 q5 -4 15 -13q2 -1 7 -4t8 -5.5t10.5 -11t9.5 -8.5q5 0 21 16q9 -2 24 -9q5 -5 17 -13q8 -1 24 -6q7 -3 7 -19z" />
<glyph unicode="L" horiz-adv-x="675" d="M443 622q0 -5 -10 -23h-11h-11q-6 8 -21 21q-4 2 -19 2q-7 0 -23 -2q0 -2 -10 -10.5t-12 -8.5q-1 0 -9 2.5t-10 2.5q-8 1 -19.5 -5.5t-12.5 -9.5t-4 -10q-3 -2 -6 -9q-1 -6 1 -16q2 -13 2 -17q0 -8 -6 -26q-5 10 -21 36v4t-0.5 4.5t-1.5 6.5t-1 8q1 2 2 4.5t1 3.5 q0 10 -7 12q-63 22 -54 22q-1 0 -11 -6.5t-12 -6.5q-1 0 -9.5 6t-10.5 6q-4 0 -12 -8.5t-11.5 -9.5t-16.5 -1q-8 0 -25 12q-8 8 -8 19q0 13 7 14.5t22 6.5q7 0 22 1q44 10 43 10q-6 0 20 -11h15q2 0 15.5 1t14.5 1l17 -1t25 -1q2 0 6.5 -3t6.5 -3q8 -2 15 -2t17 2q3 0 9 2.5 t7 2.5q2 0 11.5 -5.5t10.5 -5.5q2 0 11.5 2.5t10.5 2.5l12 -6q1 -7 6 -9q5 0 9 9q6 2 18 5.5t18 5.5q0 -1 8 -11q2 -4 2 -11zM638 186q0 -8 -4 -15.5t-4 -16.5q1 -28 1 -29q-5 -16 -5 -29q0 -17 2 -28q6 -32 6 -23q0 -10 -14.5 -30.5t-22.5 -22.5h-25q-3 0 -9.5 -2.5 t-8.5 -2.5l-9 7t-14 7q-2 0 -19.5 -3.5t-18.5 -3.5t-11 3t-12 3q-1 0 -10.5 -1.5t-14.5 -1.5q-18 0 -27.5 1l-9.5 1q-1 0 -10.5 -2.5t-11.5 -2.5t-8 4l-10 5q-10 3 -22 3q-4 0 -36 -18q-1 0 -24 -7q-4 -2 -6 -2q4 0 -16 8q-8 2 -17 2q-7 0 -30 -6q-8 0 -24 -1q-22 -3 -20 -3 q-1 0 -10 2t-11 2q-1 0 -10 -2t-11 -2q-1 0 -9.5 1.5t-10.5 1.5t-22.5 -3t-21.5 -3q-6 0 -22 9q-8 8 -8 27q-1 9 8 32q4 6 21 13q2 1 10 1q2 0 6.5 -1t5.5 -1q2 0 11.5 4.5t11.5 4.5t22 -4t21 -4q2 0 10.5 1t9.5 1t9 -2t10 -2q11 0 17.5 14t6.5 26q2 4 6 11q1 3 1 21 q0 29 -2 42q0 4 -2 14.5t-2 11.5t5.5 15.5t6.5 21.5q-1 12 -1 38q1 8 2 23q-1 13 -1 41q0 7 1.5 18t2.5 37l1 45q1 23 27 59q12 -26 12 -39q0 1 -1.5 -12.5t-0.5 -19.5q1 -13 -3 -27q-5 -17 -5 -22q0 -1 1 -15.5t1 -20.5q6 -54 6 -42q0 -1 -2 -8t-2 -11q-1 -11 2 -27 q2 -9 7.5 -17.5t5.5 -15.5q0 -1 -4 -14.5t-4 -15.5v-2q3 -7 6 -20q0 -13 3 -40q0 -2 1.5 -8t1.5 -8v-39q0 -15 33 -15q2 0 11.5 1.5t10.5 1.5q2 0 11 -2.5t10 -2.5h39q2 0 13 -2.5t13 -2.5q1 0 9 3t12 4h17q2 0 22 -1.5t21 -1.5q13 0 32 17t20 23q6 27 10 77q0 1 -1.5 3.5 t-1.5 4.5q-2 7 3.5 29t5.5 30q8 7 22 18q1 -6 7 -15q33 -31 32 -52z" />
<glyph unicode="M" horiz-adv-x="769" d="M583 466v-5q0 -3 -1.5 -5.5t-4.5 -8.5h-4q-3 0 -7 6q0 2 -2 17q-2 12 0 19q0 1 1 3.5t1 3.5v26q-2 2 -5 6q0 3 4 19q3 11 0 22l-10 16q-1 8 -3 21q0 8 -6 8q-12 0 -20 -6q-20 -10 -22 -30q0 3 -1 6q1 -8 -2.5 -23t-12.5 -47q0 -8 -3 -24q0 -1 -2 -3.5t-3 -3.5 q0 -7 -1 -23q-2 -7 -9 -24h-5q-11 0 -11 14q0 -1 3 8q2 26 8 78q0 9 1 26l14 55q2 3 7 6q0 26 16 26q1 0 5 -2t6 -2t7.5 1.5t6.5 1.5q2 0 9 -2t8 -2q2 0 12 6.5t11 6.5l21 -12h10q9 -4 11 -8q3 4 7 11q4 3 13 7q23 5 44 5q12 0 21 -7q6 -6 6 -13q0 -14 -25 -18q-40 0 -56 -8 q-4 -1 -11 -6l-6 -13q-5 -9 -12 -27q-1 -5 -1 -28zM732 39q0 1 -1 -5q-11 -11 -20 -19q-3 -1 -10 -6l-11 -14q-19 0 -23 1t-11.5 3.5t-8.5 2.5t-8 -4.5t-10 -5.5h-4q-7 0 -22 5.5t-19 6.5l-64 -7q-7 0 -25 4t-19 4t-8.5 -1.5t-9.5 -1.5q-14 1 -14 32q0 4 6 14t9 10 q2 0 10.5 -2.5t9.5 -2.5q16 0 41 5q19 4 19 19q2 61 11 96q-1 6 -2 19q1 11 8.5 33l7.5 22v66q3 22 13 30q12 -7 11 -34q-1 -42 -1 -39q1 -1 2 -3v-24q3 -5 6.5 -15.5t1.5 -25.5q-1 -3 -1 -9q3 -21 17 -73q-1 -10 0 -31q0 -2 15 -18t27 -16q1 0 13 1h13q33 0 50 -12 q1 -2 1 -5zM450 384q0 -2 -4 -12t-5 -14q0 5 -6.5 -9.5t-11.5 -31.5q0 -7 -1 -22q0 -1 -2 -6t-1 -8q2 -35 -3 -47q-3 -8 -10.5 -23t-10.5 -22q-9 1 -22 6q-14 14 -23 34l-3 23q0 12 -5 17.5t-11 14.5q0 1 -3 38q-1 14 -7 40q0 1 -1 3t-2 2l-6 24q-4 17 -4 27q-2 1 -7 4 l-12 26q0 7 -2 17t-5 16q0 2 -2.5 5t-3.5 4q-1 5 -1 15t-0.5 13t-2.5 6.5t-2 4.5q0 10 12 10q14 0 21 -24q3 -3 7 -11q3 -25 3 -55q0 -2 1 -9.5t1.5 -9.5t2.5 -4t2 -3q2 -5 4.5 -16t3.5 -16q6 -8 15 -26q1 -6 3 -17q1 -1 7 -8q1 -2 1 -6q8 -7 20 -31q10 13 31 33q5 7 16 19 l2 23q3 20 14 20q13 0 13 -14zM314 37q0 -11 -4 -14.5t-20.5 -6.5t-28.5 -4q-2 0 -39 -8q-3 -1 -11 -4.5t-9 -3.5t-18 1.5t-19 1.5q6 0 -26 -4q-10 -3 -44 -18q-16 0 -21 5q-36 36 -36 48q0 11 14 31t23 25q2 1 12 1q8 0 19.5 -3.5t12.5 -3.5q32 0 39 14q2 4 0 9q-3 7 -3 8 q0 18 6 37q0 2 2.5 4.5t2.5 3.5t-3 12.5t-3 16.5v34q0 38 2 47q10 44 10 43q0 1 -3 10.5t-3 13.5q-5 57 -5 46q0 1 4 25t5 35q0 29 9 94q-2 8 -3 24q1 4 4 11t3 8q0 23 -14 35q-6 6 -22 6q-1 0 -10.5 -2t-11.5 -1q-2 0 -10.5 4t-17.5 4q-1 0 -6 -1t-7 -1q-3 1 -24 10 q-8 6 -8 32q0 9 7.5 13.5t20.5 4.5q1 0 9 -4t12 -4q17 0 36.5 -6t28.5 -6q2 -1 10.5 2.5t10.5 3.5q1 0 9 -6t12 -7q14 -1 41 -5q4 -4 9 -11q1 -1 7 -20q4 -4 9 -13v-30q-3 -3 -7 -3q-4 1 -10 6q-3 9 -11 25l-17 13q-6 -4 -17 -16.5t-11 -25.5q0 -6 5 -24v-7q-1 -5 -1 -6 l-1 -34q8 -12 8 -31q0 -1 -2.5 -18.5t-2.5 -19.5q0 7 4 -25q1 -9 -1 -26q-2 -21 -2 -29q6 -24 6 -27q-3 -12 -3 -33q2 -11 11 -31.5t9 -21.5v-49q0 -1 2.5 -14t3.5 -19q0 -3 -2 -17q-1 -12 0 -19q-1 -10 3 -20q5 -13 26 -34q1 -1 18 -6q13 -4 29 -13z" />
<glyph unicode="N" horiz-adv-x="691" d="M673 622q-1 -13 -38 -29q-12 -5 -21 -2q5 0 -12 1q-3 0 -32 -7q-6 0 -20 -2q-2 -2 -5 -8q-2 -24 -8 -42q0 -9 -1 -25q-1 -11 -4 -29q-1 -8 -8 -24q-1 2 -8 7.5t-6 7.5q0 2 5 16t5 16q0 17 -1 21q-2 8 -8.5 14t-6.5 9q0 2 3 12.5t3 11.5q1 15 -20 27q-14 9 -25 11t-11 13 q0 2 1 5.5t1 4.5q11 7 12 7t12 -3t13 -3q25 0 56 5q5 1 14 5t10 4q2 0 21.5 -7t20.5 -7q2 -1 11.5 5t11.5 6q14 0 20 -3q3 -2 9 -9t6 -9zM535 362q0 -2 -1.5 -3.5t-1.5 -2.5l-2 -53q0 -15 -3 -45q-3 -2 -10 -6q-9 19 -5 42q3 20 -7 62q-8 32 -8 27q0 2 1.5 4.5t1.5 3.5 q0 16 1 18q6 10 23 32q4 -12 8 -42q-1 -9 -2 -27q5 -15 5 -10zM313 465q-5 -4 -19 -12q-1 1 -3 1q-19 29 -19 31q0 7 7 16.5t14 11.5q25 -33 20 -48zM259 575q0 -11 -5 -23q-26 15 -22 15h-6q-5 -1 -7 -1q0 -4 -2.5 -12t-9 -10.5t-20.5 -17.5q1 7 -2.5 12.5t-3.5 9.5 q0 2 4 15t4 14q0 11 -11 22q-8 7 -27 15q-23 2 -41 2q-1 0 -11.5 -1.5t-12.5 -1.5t-13 11q-4 4 -4 9q0 6 6 13.5t12 7.5q2 0 11.5 -5t10.5 -5q-5 0 49 -2q14 -1 23.5 2.5t11.5 3.5q18 -8 48 -20q-1 -5 13 -24q5 -7 5 -29zM546 9q0 -34 -44 -32q-5 -1 -16 2q-4 8 -15 27 q-9 13 -19 43q-2 6 -13.5 16.5t-13 13t-4.5 21.5q-2 4 -4.5 14t-9.5 26q-7 11 -9 44q-4 12 -10 33q-2 18 -14 37q-16 25 -19 33q-2 5 2 20q-3 1 -6.5 5l-12.5 14q-4 1 -9 6q-12 38 -12 56q0 19 15 27q8 -7 21 -20q7 -11 9 -35q0 -4 1 -13q0 -1 9 -13q2 -8 10 -21 q4 -1 9.5 -3.5t10.5 -16.5l6 -18q5 -15 12 -41q4 -6 12 -19q2 -5 6 -12q12 -10 34 -33q24 16 44 47l22 8q11 -36 10 -68q0 -17 -4.5 -43t-4.5 -24q0 -11 5 -33q7 -32 2 -48zM352 31q0 -17 -13 -30q-15 3 -34 3q-3 0 -27 -3h-50q-13 0 -17 1t-11.5 6t-8.5 5q-2 0 -10.5 -4 t-10.5 -4q-11 -2 -36 -2q-37 -4 -32 -5q-1 0 -16 1.5t-17 1.5q6 -2 -27 -2q-4 16 -4 12v17q-1 11 -1 12q1 5 4 14q2 2 12.5 7.5t13.5 4.5q2 0 12 -2t11 -2q49 -2 76 30q1 1 6 21q6 24 6 18q0 -1 -4 9q-8 21 -7 38q1 16 6 29.5t5 19.5q-1 8 -2 19l1 37q0 1 -4.5 17.5 t-4.5 18.5q0 1 4.5 17.5t4.5 18.5q0 1 -3.5 20.5t-2.5 21.5q0 -3 4 17v40l2 38q0 8 3 22q3 3 7 8q5 -2 12 -9q12 -25 11 -48q0 -9 -3 -27q-6 -19 -6 -15q-1 -2 4 -11q2 -2 2 -9q2 -21 1 -31q0 -3 -2.5 -9.5t-1.5 -9.5q0 5 5 -25l-6 -36q4 -11 4.5 -34t7.5 -41q1 -2 1 -7 q0 -4 -1 -7q-5 -9 -2 -22q4 -21 4 -29q0 -2 -1.5 -7.5t-0.5 -8.5q4 -11 11 -34q0 -8 3 -26q1 -7 11.5 -16.5t16.5 -10.5q1 0 8 3t11 4q-7 -1 44 -1q12 0 21 -3q13 -13 11 -21z" />
<glyph unicode="O" horiz-adv-x="568" d="M543 212q0 -18 -11 -26q-5 -2 -11 -8q-2 -9 -8 -27q-3 -3 -8 -9q-5 -10 -7 -25q1 -8 -2 -23q-3 -1 -10 -6q-11 -7 -32 -24q-1 -6 -4 -16q-9 -19 -23 -30q-7 -1 -21 -5q-6 -8 -19 -19q-10 -1 -29 -4q-7 -2 -21 -10t-15 -8t-10.5 6t-11.5 6q-1 0 -19.5 -4t-20.5 -4 q1 0 -19 4h-26l-8 8q-7 5 -21 13q-12 2 -35 10l-7 10l-23 27q-5 3 -13 10q-3 11 -13 30q-10 10 -28 31q-3 8 -8 24q-4 7 -14 23q0 6 -1 20q-2 24 -9 74q-1 4 -5.5 17t-4.5 15q0 1 4.5 12.5t5.5 16.5q1 10 4 32v22q1 11 9 32q3 6 8 17q0 9 1 26q2 14 10 22q7 4 15 13.5 t15 21.5q3 11 12 30l23 18q6 10 19 27q6 6 12 20t12 17t20 6q6 3 19 7q55 13 63 13q1 0 9.5 -4.5t14 -5.5t17.5 -5q15 -10 37 -10h12q23 5 16 5q10 0 27 -15q8 -10 25 -26q6 -1 13 -6t8 -12q-1 -11 2 -30l23 -23q1 -3 5 -11q-9 -9 -16 -9q-1 0 -7.5 4.5t-14.5 4.5l-6 15 q0 3 1 9v8q0 4 -15.5 13l-42.5 25q-3 5 -9 13l-34 21q-11 6 -30 6q-9 0 -32 -14q-7 -2 -21.5 -7t-43.5 -18q-7 -6 -22 -20q-10 -6 -29 -21q-3 -8 -10.5 -20.5t-23.5 -35.5q-3 -2 -7 -7.5t-4 -18.5q1 -5 -5 -16q-7 -14 -7.5 -20t-3.5 -18t-7 -30l-6 -29q1 5 1 -23 q0 -3 -1 -11.5t-1 -9.5q0 -13 16 -56q3 -3 7 -11q4 -18 14 -53q6 -6 14 -19l6 -33q2 -9 10.5 -13t15.5 -7q4 -6 17 -19q9 -3 26 -13q6 -10 21 -25q36 -16 64 -16q-2 0 9 1h32q8 8 23 19q10 1 27 9q5 4 14 22q2 8 21 33q5 2 12 7q28 34 31 66q9 3 13.5 13.5t2.5 19.5 q-3 13 5 42q2 2 5 7q7 14 7 22q0 1 -3.5 11t-3.5 12q0 1 5.5 15.5t5.5 16.5q0 4 -3 10q-17 20 -17 23v41q0 2 -2 16t-2 15q0 30 10 30q8 0 16 -3t12 -13q1 -8 4.5 -14t9.5 -19q1 -11 4 -33q2 -11 2 -43q0 -3 1.5 -12.5t1.5 -10.5q0 -9 -5 -42q0 -1 -2.5 -4.5t-2.5 -5.5 q0 -11 5 -44q0 -2 2.5 -11.5t2.5 -11.5z" />
<glyph unicode="P" horiz-adv-x="629" d="M604 421q0 -12 -7 -45q-16 -4 -39 -24q1 2 1 -11q0 -10 -3 -13q-11 -13 -22 -19q-8 -1 -21 -4q-7 -7 -22 -19l-21 -3q-8 -6 -30 -15q-7 -1 -13 -1q3 0 -18 3q-9 0 -25 1q-4 0 -11.5 3t-9.5 3q-17 0 -29 -5q-18 -8 -35 -12q-11 -4 -15 -13q-7 -15 -7 -43q0 -1 1 -8.5 l2 -14.5q3 -37 3 -38q-2 -14 10 -42q3 -12 7 -17q10 -12 29 -13l32 -1q32 -7 68 -12q10 -10 10 -22q0 -7 -5 -18.5t-9 -12.5q-26 -12 -58 -12q-1 0 -21 4t-22 4t-22.5 -5t-21.5 -5q-5 0 -37 8q7 -1 -23 -1h-11q-7 1 -9 1t-27 -4q-1 0 -20 3t-21 3q-1 0 -18.5 -2t-19.5 -2 q-57 0 -57 33q0 12 4 19t13.5 16.5t12.5 13.5q9 0 26 -1t18 -1q20 0 67 14q21 6 21 28q0 -5 -5 13q-2 7 -2 15q0 14 5 26.5t5 19.5q0 2 -4 15t-4 14q0 13 4.5 24t4.5 15q0 7 -4.5 17.5t-4.5 16.5q0 9 4 17.5t4 9.5q0 3 -2 9l-6 6q-2 3 -4 14q-3 15 -3 36q0 1 2 11t2 15 q0 20 5 62q-1 5 -2 13q-3 20 1 34q5 10 5 8q3 15 3 17q0 7 -2 9q-25 27 -27 27h-43q-9 12 -30 13q-17 1 -34 1q-16 19 -16 20q0 3 16 34q12 -1 38 -7q2 -1 26 -1t29.5 2t20.5 5q2 0 7.5 1t6.5 1q2 0 30 -3.5t29 -3.5q2 0 22.5 3.5t21.5 3.5q2 0 33.5 -5.5t32.5 -5.5 q2 0 10.5 4t10.5 5q11 3 21 3q-1 0 79 -19q17 -1 49 -6q6 -36 21 -39t20 -21l4 -25t7.5 -19.5l14.5 -20.5q3 -7 3 -11q0 -1 -3 -31q-1 -6 1 -7q1 0 2 1l-2 -2q-1 -6 0.5 -17t1.5 -15zM567 425q0 23 -2 33q0 3 -5 11.5l-6.5 11t-1.5 6.5t2 11t2 11q0 6 -1 11.5t-3 11.5 q-7 1 -18 6q-4 3 -22 21q-5 11 -19 24h-10h-5q-4 -1 -5 -1q-2 0 -23 9t-22 9t-10 -4.5t-11 -4.5q-1 0 -11 5.5t-12 5.5q-1 0 -8.5 -3.5t-10.5 -4.5q-12 -3 -46 -7q-14 -1 -40 -6q-14 -5 -23 -18q11 -30 11 -31t-7 -10t-7 -12q0 -2 3 -15t3 -14q0 -4 -7 -24t-7 -31 q27 -18 27 -37q0 -1 -2.5 -13t-2.5 -14q0 -23 32 -39q11 0 25 -1q3 -1 11 -7t10 -6t20 7.5t19 7.5q-3 0 15 -11q3 -1 16 -1q2 0 7 1h6q2 0 10.5 -2t9.5 -2q8 0 35 18q15 6 36 17q5 7 15 16q4 1 9 5q24 42 24 60z" />
<glyph unicode="Q" horiz-adv-x="558" d="M480 339q0 -14 -6 -17q-12 -7 -17 -12q0 -1 -6 11q-3 18 -15 52q-3 3 0 22q2 2 2 5l-6 29q1 9 0 25q0 5 -1.5 13.5t-1.5 9.5q0 11 7 11l6 -21q5 -15 15 -25l8 -36q0 -2 2.5 -8t2.5 -9q3 -21 7 -31q3 -6 3 -19zM570 -85q0 -56 -18 -76q-2 -2 -2.5 -9t-7.5 -20l-41 -28 q-7 -2 -16 -6t-25 -12q-6 -3 -22 -3l-33 20q-4 1 -11.5 5t-20.5 14q-7 7 -22 18q-2 7 -8 19l-13 15q-5 6 -5 34t4 45.5t4 27.5q0 11 -3 14q-9 1 -27 5q-2 1 -8 4.5t-8 3.5q-10 0 -28.5 -6.5t-33.5 -6.5q-2 0 -23 3q-12 16 -23 20q-7 0 -19 3q-7 5 -21 11q-18 41 -42 56 q-3 4 -9 10q-1 2 -6 5t-7 4q-15 26 -21 46q-4 13 -3 25q1 17 0 25q0 2 -5 16q-4 10 -2 16q3 19 3 20q-16 53 -16 59q0 5 5 6.5t7 6.5q7 14 7 27q0 2 -6 17.5t-6 16.5q0 -8 9 23q-1 11 0 32l9 27l8 27t11 21q7 1 19 11q5 11 5 20q4 9 11 21q2 7 7 10.5t43 41.5q6 6 23.5 9 t20 5t12.5 12q7 9 9 9q1 0 10 -4t11 -4q9 0 20 9l25 -14q2 -1 9 -8t9 -7t10.5 2.5t9.5 2.5q4 0 22 -11l9 -12q11 -9 33 -31q3 -6 9 -16q5 -4 13 -14q10 -18 10 -29q0 -10 -8 -10q-2 0 -5 4t-5 5q-5 5 -14 9q-3 9 -16 25q-10 5 -27 16q-2 1 -19 19q-14 15 -24 15q9 0 -39 -2 q-9 0 -27 -4.5l-18 -4.5q-1 0 -9 1.5t-10 1.5t-22 -20q-13 -6 -33 -28q-2 -11 -8 -33q-27 -11 -35 -43q-3 -5 -7 -19v-31q0 -1 -9 -24q0 -1 2 -7.5t2 -11.5q0 -1 -1 -5.5t-1 -6.5q0 -1 2 -4.5t2 -5.5l-6 -14.5t-6 -28.5q0 -31 3 -42t11 -33q1 -2 4 -21q4 -13 10 -39 q0 -7 2 -21q0 1 4 -7q4 4 4.5 10t4.5 19q3 6 12 14q6 3 21 3q2 0 11.5 -2t10.5 -2q17 0 40 8q4 1 13 6t11 5q5 0 21 -9q4 -6 14 -16q10 -4 28 -12l23 -14q2 -4 9 -11q5 -3 15.5 -8t15.5 -8q5 2 14 9q2 2 12 26q12 11 29 31q1 6 8 15q5 2 13 8q3 11 9 30l3.5 -24t2.5 -19 q0 -6 -3 -20q-3 -4 -8 -12t-5 -33q0 -20 -9 -31q-10 -6 -27 -20q-1 -6 -6 -18q-5 -15 -12 -20q-12 -11 -12 -19q0 -1 2.5 -18t2.5 -18q0 -2 -4 -18t-4 -17q0 1 4 -29q3 -8 10 -22v-11q10 -10 23 -10q1 0 14 9.5t20 11.5h22q16 0 25 10q2 3 2 15q-2 15 -1 24q1 12 5 37 q2 6 18 41q8 -6 22 -11q5 -12 14 -37q1 -3 7.5 -11t6.5 -10v-36zM333 74v32q-4 8 -14 10.5t-11 3.5q-11 6 -21 18q-3 7 -8 10t-11 3q-18 0 -43 -13q-7 -9 -24 -24q-9 -7 -20 -10q-29 -9 -29 -22q0 -26 4 -31q12 -16 33 -28q26 -12 36 -12q15 0 28 17q2 2 6 11q3 4 7 6 q14 4 22 4t8 -13q0 -1 -1 -6.5t-1 -8.5q0 2 1 5q3 -3 2 -3q3 0 1 2q4 1 12 1q13 9 8 25q15 1 15 23zM292 20q-3 1 -3 3q-2 -8 -2 -15q3 6 5 12z" />
<glyph unicode="R" horiz-adv-x="691" d="M653 14q0 -12 -16 -32q-7 1 -22 2q-8 2 -25 5q-27 0 -82 7q-7 0 -21 17t-20 30q-3 6 -3 28q0 8 4.5 19.5t4.5 15.5q0 2 -3.5 23t-3.5 22q0 6 6 18.5t6 17.5q0 7 -11 26q-3 8 -5 16q-6 13 -16 18q-3 11 -18 31q-9 3 -25 10q-14 15 -42 32l-65 -16q-45 5 -39 5q8 0 -20 -8 h-12q-9 0 -13 -1q-7 -2 -7 -5q-7 -15 -11 -37q2 -8 2 -21q-2 -4 -11.5 -12t-9.5 -16q0 -1 13.5 -26.5t13.5 -27.5q0 3 -31 -51q-18 6 -22 5q1 11 0 30l-4 16q0 -7 5 18q0 2 -1.5 7.5t-1.5 6.5q0 5 5.5 13l5.5 8q0 2 -4 8t-5 9q0 9 -2 26q-5 15 -5 11q0 10 7 21q4 4 12 11 q-4 10 -12 23v7q0 6 5 18q2 7 2 21q0 4 -3 18q-2 11 0 18q1 3 7.5 12.5t6.5 16.5q0 2 -5 21.5t-5 21.5q0 7 5 14.5l5 7.5q0 12 -5.5 16t-12.5 7q1 17 -9 37q-12 24 -32 24q-2 0 -11.5 -5t-10.5 -5q-3 0 -14.5 9.5t-15.5 16.5q-10 12 -19 17q2 3 4 11q5 1 13 6.5t10 15.5 q7 0 23 1l16 1h49q1 0 17.5 4t18.5 4t13.5 -3t12.5 -3t10 2.5t11 2.5q1 0 8 -2.5l10 -3.5q18 -3 23 -3q1 0 11 4t12 4t39 -4t38 -4t12 1h13t15.5 -3.5t14.5 -3.5q2 0 6.5 1t5.5 1q13 0 23 -7q7 -10 23 -27q8 0 22 -4q6 -3 18 -26t12 -33q0 -12 -6 -18q-8 2 -26 5 q-1 3 -12 19q-5 10 -18 27q-21 15 -52 15q-1 0 -6 -1t-7 -1q1 0 -32 12q-6 2 -27 2q-23 0 -36 -3q-3 -1 -11.5 -7t-9.5 -6t-10.5 4.5t-13.5 5.5q-8 2 -16 2q-11 0 -34 -8q-28 -11 -29 -21q0 -15 -2 -24l-11.5 -14.5t-7.5 -27.5v-12q2 -4 9 -16t7 -14q0 -1 -5.5 -8.5 t-7.5 -12t-2 -14.5q0 -9 7.5 -19.5t9.5 -18.5q0 1 -3 -11q-3 -5 2 -10q20 -20 23 -20q2 0 10.5 4t9.5 4q2 0 23.5 -3t22.5 -3t7 1h7t14.5 -2t13.5 -2t9 1h10q1 0 11.5 -1.5t12.5 -1.5q18 0 28.5 9t12.5 9h6q4 -1 5 -1q9 0 19.5 8t21 11t17.5 18q10 19 12 21t25 17 q16 10 18 21q-1 10 0 26l8 11v11q5 13 13 13q3 0 11.5 -10t10.5 -14q9 -16 9 -23q0 -1 -2 -8.5t-2 -11.5q2 -10 -5 -32q-5 -3 -14 -12q-7 -18 -28 -50q-6 -7 -22 -12q-19 -5 -20 -5q-10 -4 -16 -17q-2 -4 -8 -10v-4q0 7 10 -23q1 -3 2.5 -13.5t4 -15t7.5 -6.5q1 -2 4 -7 q7 -7 17 -11l3 -26q1 -12 11 -35q3 -3 6 -9.5t3 -13.5t-2 -14q4 -6 9 -18q11 -28 37 -39q6 -4 18 -11q19 -10 39 -11q6 -3 7.5 -4t6.5 -15t5 -23zM312 18q0 -7 -9 -12q-9 0 -28 -2q-48 -10 -62 -10q-1 0 -20.5 4t-21.5 4q-7 0 -27 -6t-35 -6q-9 0 -20 7q-3 3 -15 21 q-3 5 -11 5q-2 0 -10 -3.5t-9 -3.5q1 0 -6 3v10q10 10 32 24q8 3 16 3q2 0 11 -2.5t10 -2.5q5 0 12.5 8.5t23.5 18.5q21 12 27 16v5q2 -7 19 -12q21 -5 24 -8q7 -7 21 -19q5 -2 25 -2q2 0 7 1h7q9 0 26 -9q5 -3 8 -10q5 -11 5 -22z" />
<glyph unicode="S" horiz-adv-x="594" d="M508 551q0 1 -5 -31q1 -11 1 -34q-1 -8 -18 -39q-12 4 -22 10q2 10 -6 31q-5 4 -16 12q0 19 -1.5 25.5t-10 14.5t-9 8.5t-4.5 17.5q-3 10 -10 14l-29 12q-8 7 -26 19q-12 5 -24 9q-22 9 -22 16q0 2 5 12q21 6 26 6q-1 0 5 -3q15 -3 30 -14l33 -21q2 -3 7 -8 q28 -17 32 -17q7 0 23 7q3 2 7 10q1 13 10 32q2 2 6 -4q5 -10 6 -28v-25q12 -22 12 -32zM244 637q-2 -7 -6 -9q-11 -2 -33 -8q-12 -5 -38 -26q-10 -5 -31 -20q-7 -7 -7 -22q-1 -21 -3 -28q-7 -8 -19 -25q-3 -4 -3 -16q0 -16 21 -27q5 -4 9 -15q5 -14 8 -16.5t9 -9.5 q9 -27 25 -32v-5q-3 -1 -3 -2h-4q-2 0 -5.5 3t-4.5 3q-13 1 -26 1q-18 2 -29 14q-1 10 -7 28q-5 3 -14 10q-2 3 -2.5 17.5l-1.5 41.5q-1 7 -6.5 21t-5.5 15t2 9.5t2 12.5q3 24 30 45q19 10 52 30q6 4 15 18q51 6 52 6q14 0 24 -14zM545 187q0 -1 -3.5 -11.5t-3.5 -13.5 q1 -15 1 -44q0 -1 -11 -31q0 -2 -11 -14q-7 -9 -19 -22q-31 -34 -54.5 -43t-67.5 -22q-40 -12 -43 -12q-13 0 -25 6t-16 7q-27 3 -82 12q-3 10 -27 24.5t-36 14.5q-9 0 -42 -25q-7 -1 -22 -7q-7 4 -21 13q-5 23 -21 57q-4 4 -4 18q0 40 3 65q4 5 9 15q1 3 -1 32q0 18 12 29 q2 6 6 17l3 3h13q11 0 24 -16q4 -9 11 -27q4 -4 9 -13q8 -22 26 -66q3 -7 24 -23q11 -9 35 -26q7 -1 22 -8q9 -6 20 -21q9 8 21 24q16 -13 21 -13q1 0 6 2.5l7 3.5q36 5 50 4q1 7 2 22q17 14 28 14q7 0 18 -2q3 -1 8.5 -3.5t7.5 -2.5q3 0 4 5l7 21q9 6 24 24q16 41 16 50 q0 2 -18 30q-1 5 -5 13l-23 31t-26 23q-12 1 -43 5q-7 5 -21 11q-11 2 -27 6q-12 4 -22 4q-1 0 -6.5 -1t-7.5 -1q-1 0 -21 20q-7 -7 -19.5 -8t-23.5 -2q-8 10 -29 26v14q2 -3 4 -1q4 0 13.5 1t13.5 1q29 0 41 -19q14 8 21 15q4 -11 20 -11q33 9 43 9q1 0 38 -8q2 -1 14 -6.5 t14 -5.5q1 0 9 2t10 2q8 0 20 -8q4 -7 15 -17q10 -2 28 -10q2 -2 16 -22q10 -13 29 -46q15 -36 15 -64z" />
<glyph unicode="T" horiz-adv-x="588" d="M327 159q-16 35 -16 41t18 21q0 13 -1 14l-9 22t-5 22q0 2 1.5 8t1.5 9q0 5 -3 14t-3 10v6q9 22 9 23q-1 3 -4 8q0 27 5 43q8 24 5 47q-1 8 0 20q2 15 2 18q0 6 -1 16.5t-1 15.5q0 2 1.5 5t1.5 4q-1 7 2 33q2 9 15.5 23.5t21.5 14.5q19 0 40 -12l22 -19q8 0 23 -3 q10 -4 13 -10l7 -14q9 -8 19 -22q1 -14 4.5 -34l10.5 -60v-12q2 -21 9 -28q18 -15 23 -15q2 0 20 9q5 13 5 15t-3 15.5t-3 14.5q0 2 2.5 16t2.5 15q0 10 -5 27l-7 24q0 2 4.5 13t4.5 12q0 15 -8 43q-1 6 -9 21q-1 2 -17 21q-3 9 -13 21l-17 11h-12q-11 0 -21 -6t-13 -6 q-25 0 -42 4q-7 4 -19 9q-6 2 -21 2q-2 0 -9 -4.5t-11 -5.5q-7 -1 -19 -4q-2 -2 -5 -2q-1 0 -31 6.5t-32 6.5q1 0 -12 -5.5t-29 -5.5q-1 0 -9 1.5t-11 1.5q-10 0 -27 1l-10 3.5t-8 2.5q-2 0 -21 -3t-20 -3t-10.5 2.5t-11.5 2.5q-13 0 -28 -11t-18 -24q-1 -4 -1 -35 q1 -21 -17 -28q0 -4 -1.5 -11.5t-1.5 -9.5q0 -4 7.5 -9.5t8.5 -7.5q4 -5 8.5 -13.5t9.5 -27.5q0 -8 -5 -23q-7 -21 -7 -26q0 -8 8.5 -15l17.5 -14q8 4 20 14q15 20 15 33q0 2 -3.5 13.5t-3.5 12.5q0 37 10 64q11 14 28 41q2 5 24.5 17t33.5 12q2 0 11.5 -3t10.5 -3 q2 0 11 4.5t10 4.5q2 0 11.5 -4.5t13 -4t12.5 -28.5t9 -39q0 -5 -5 -33q-1 -7 3 -28l-2 -2q0 -1 1 -15v-16v-35q0 -1 4 -8.5t4 -13.5q0 -8 -4.5 -14.5t-4.5 -18.5q0 -6 2 -16q9 -3 9 -9q0 -1 -3 -9t-3 -10q0 -1 3 -7t3 -8q0 -1 -4.5 -13t-4.5 -14v-39q17 -10 17 -14 q0 -10 -8 -22q-2 -4 -9 -11q4 -7 11 -52q-4 -1 -3.5 -7.5t-2.5 -8.5q-3 -5 -11 -16q-3 -4 -14 -14q-14 -12 -20 -12q-1 0 -3 1h-4q-9 0 -17 -2.5t-18 -6.5q-1 0 -9 1.5t-10 1.5q-15 0 -26 -8q-1 -3 -3 -8q-7 -10 -18 -14q-3 -12 -3 -11q9 -5 28 -14q6 -2 21 -2q2 0 10.5 3.5 t9.5 3.5q2 0 10.5 -3l11.5 -4q14 -1 44 -7q5 -1 12.5 -6.5t8.5 -5.5t9 3.5t12 4.5q8 2 23 2q4 1 40 -2q3 0 22 -11q16 0 62 17q12 4 22 13q1 2 1 8q0 14 -3 21q-17 32 -42 31q-1 0 -10 -3.5t-11 -3.5t-11.5 5t-10.5 5q-2 0 -11 -3.5t-10 -3.5q-3 0 -14 4t-13 7q-5 9 -15 22 l-6 3t-5 2q-1 6 -6 14q8 24 15 48z" />
<glyph unicode="U" horiz-adv-x="680" d="M643 627q0 -7 -22 -29q-26 15 -21 15q-15 0 -25 -7q-21 -15 -29 -19q-3 -7 -16 -16q9 -7 11 -22q0 -11 1 -22q2 -22 6 -31q10 -26 10 -36q0 -11 -1 -13q-4 -7 -11 -21q-3 -11 -10 -34q-8 14 -11 32q-6 28 -6 29q3 18 -4 50q-6 9 -4 26q0 3 1.5 9.5t1.5 9.5l-2 18 q-3 13 -13 20q-17 12 -27 12q-6 0 -21 -5q-5 3 -12 9q-1 4 -6 11q9 10 24 21q10 3 34 11q9 3 24 3q29 0 44 -6q20 -8 21 -8q12 0 22 3q1 0 8.5 4.5t10.5 4.5l20 -12q2 -4 2 -7zM561 335q0 -16 -3.5 -19.5t-7.5 -11.5t-4 -26q0 -1 4.5 -10.5t5.5 -13.5q-1 -11 0 -33 q0 4 3 -14q0 -20 -2 -31q-2 -9 2 -10q0 -2 -1 -3.5t-1 -2.5q4 -28 2 -34q-6 -17 -20 -52q-5 -5 -14 -19q-2 -10 -10 -30l-28 -13q-11 -9 -35 -25q-8 0 -23 -3q-7 -3 -23.5 -11t-17.5 -8q-2 0 -18 4.5t-17 4.5h-64q-4 0 -15 9t-16 12l-40 21q-13 17 -42 38q-2 4 -5 20 q0 1 -17 29q-9 27 -9 64q0 1 2.5 14.5t2.5 15.5t-2.5 19t-2.5 18q0 -1 1 26v41q0 1 5 28q1 7 -1.5 17.5t-2.5 12.5q0 1 1 12t1 16q0 21 1 62q0 4 4 11t4 12q0 1 -2 6t-2 8q-2 13 -2 54q0 5 -4 11t-10 10.5t-15 4.5q-12 0 -16 2q-47 21 -59 21q-11 14 -11 26q0 11 12 30 q7 4 21 11h20q28 0 46 -3q2 0 9.5 -2.5t9.5 -2.5t11 3.5t10 3.5q2 0 8.5 -2t7.5 -2h41q-2 0 23 -10q9 0 27 -2q4 -1 11 -8t7 -9q0 -25 -40 -35l-21 -12q-7 -2 -19 -8.5t-14 -23.5q1 -14 1 -40q-4 -44 -4 -63q0 2 3 -49q3 -54 3 -81q0 -7 -1 -28l-1 -21v-43q0 -10 3 -40 q4 -34 7 -37l4 -27q3 -14 14 -34.5t41 -22.5q7 0 28 -13q5 -5 15 -11h23.5h23.5q3 0 10 2.5t8 2.5h41q6 0 14 9q12 11 32 31l21 30q23 30 22 40q-2 11 0 19q6 20 6 13q0 2 -3.5 6t-3.5 5v35q7 5 7 9q0 1 -1.5 13.5t-1.5 19.5q0 1 -2 2.5t-2 3.5t6 11.5t6 10.5t-11 26 q-3 4 -3 16q0 13 7.5 21l16.5 17q18 -16 21.5 -22t3.5 -19z" />
<glyph unicode="V" horiz-adv-x="708" d="M677 609q0 -2 -9 -26q-14 2 -20 2q11 0 -66 -7q2 0 -10 -4q-8 -3 -23 -15q-7 -10 -7 -22q0 -2 -2 -7q-7 -11 -14 -65q-3 -11 -7 -38q1 -6 0 -17l-9 -18q-3 -7 -11 -22q-4 -5 -11 -16q-2 -5 -5 -16.5t-5 -17.5q-8 -5 -17 -20q1 -7 0 -20q-7 -32 -18 -64q2 -14 0 -42 q0 -14 -7 -34q-1 -3 -15 -19q-8 -9 -13 -21q1 -4 0 -11q-5 -11 -9 -40q-4 -23 -13 -34q0 -7 -3 -21q-3 -6 -12 -19q-3 -1 -13 -1q-15 0 -39 8q-9 3 -12 9q-3 12 -11 36q-4 6 -10 19q0 7 -1 22q-6 14 -15 41q1 5 0 13q0 -6 -5 11q-1 8 -4 24q-3 6 -8 17q-1 10 -5 29 q-3 6 -8 19q-1 9 -4 28q-5 25 -5 19q0 9 -2 25q0 5 -3.5 15t-3.5 11q0 2 2.5 10.5t2.5 11.5q-8 7 -26 21q-8 18 -8 28q0 15 8 20q14 9 21 9q1 0 13 -12q1 -5 4 -12q11 -14 11 -29v-27q1 -6 10.5 -17.5t23.5 -31.5q11 -20 6 -42q0 -1 -2 -5t-1 -6q4 -11 11 -32q0 -6 1 -20 l14 -25l3 -18q1 -6 10 -16q24 -13 25 -13q24 0 37 62q1 3 5.5 12.5t4.5 12.5q0 9 -7 14q7 10 11 23q6 19 7 21q7 6 16 21q-1 11 -1 32q3 14 10 24q3 2 7 5q10 19 14 65q1 13 9 37l8 24v34q0 7 10 20t10 31q0 8 -3 12q-6 14 -27.5 20.5t-27.5 15.5q0 7 -3 18q32 18 64 18 q-1 0 25 -10q1 0 8.5 2.5t11.5 2.5q29 3 65 3q31 0 63 -7q9 -2 9 -18zM275 608q0 -4 -4 -10.5t-6 -6.5q-44 -8 -61 -37q0 -7 -1 -22q0 -1 -6 -10q-2 -4 -2 -10q4 -10 10 -22q7 -6 19 -20q6 -7 6 -21q0 -11 -29 -21q-3 9 -21 17q-1 9 -5 24l-8 14q-3 24 -18 71q-3 6 -15 8 q-17 4 -18 4q-22 5 -66 20q-19 9 -19 20q0 3 10.5 17.5t13.5 14.5q1 0 9 -1t10 -1t16.5 2t15.5 2q2 0 18.5 -3t17.5 -3t9 1t12 1q18 -3 17 -3q2 0 11.5 2.5t10.5 2.5q2 0 42 -11q10 -1 25 -7q6 -2 6 -12z" />
<glyph unicode="W" horiz-adv-x="755" d="M724 619q0 -16 -33 -23.5t-44 -18.5q-2 -2 -3.5 -15t-8.5 -41l-20 -30q-13 -13 -13 -18l6 -13.5t6 -23.5q0 -5 -5.5 -20t-5.5 -31v-33q0 -1 -1.5 -7.5t-1.5 -9.5q0 -11 -6 -24q-7 -16 -8 -20q0 -9 -2 -28q-4 -11 -11 -33q0 -7 -3 -20.5t-10 -42.5q0 5 -7 -22 q-3 -22 -11 -66q-3 -7 -6 -21t-6 -38q-2 -11 -17 -24q-22 -18 -25 -22q-8 0 -22 4q-7 5 -21 19q-6 6 -12 27l-8 37q-4 17 -4 20q0 11 3 17l3.5 4.5t3.5 9.5q0 1 -3 8.5t-4 11.5q-3 21 -11 60q2 12 -3 33q-8 11 -12 26q-4 5 -8 14.5t-8 13.5l-12 -14q-5 -6 -10 -6 q-9 0 -11 10q0 1 1 5t1 7q0 7 -2 17q-2 7 -7 17q-4 6 -4 13t3.5 15t5 17t6.5 27q6 15 19 44q4 4 9 11q9 -5 22 -17q1 -6 5.5 -18.5t4.5 -23.5q-2 -18 -2 -16q1 -8 5 -13l8 -11q4 -7 6 -25t3 -23q7 -6 15 -20q-1 6 -1 -41q0 -29 20 -47q5 -2 13 -9l-1 -14q-1 -7 8 -11 q1 13 4 36q1 6 9 22q9 9 23 29q1 15 7 43q4 20 13 61q2 13 4 27.5t10 26.5v18q0 9 7 25q2 9 8 25q5 5 12 15q0 8 1 23q3 21 8 42q-2 6 0 30q-7 14 -24 21q-20 8 -25 13q2 5 7 12q22 13 43 13q2 0 11 -2.5t10 -2.5t11 6.5t12 6.5t22.5 -3.5t21.5 -3.5t6 1h7q8 0 18.5 -5.5 t10.5 -12.5zM230 591q0 -7 -6 -9q-19 -6 -29 -11q-4 -5 -11 -12.5l-20 -22.5q-1 -3 -6 -10q10 -13 12 -35q2 -29 5.5 -37.5l7.5 -17.5q7 -16 7 -28q0 -6 -5 -16q-8 -13 -9 -17q2 -3 8 -6q11 -29 11 -28q0 -18 -10 -20q-8 8 -22 15q-5 5 -3 14q2 13 2 16q-8 7 -11 16 q-4 14 -5 16q-4 3 -12 10q-1 3 -6 10q7 12 2 24q-5 5 -10 16q-1 7 -1 23q0 1 3 22q1 2 -0.5 6.5t-1.5 5.5t3.5 5t3.5 6q0 1 -1 4.5t-1 5.5q-8 5 -26 12q-9 0 -25 1.5t-28 7.5q-3 3 -10 8q-5 20 -5 23q0 13 5 21q21 11 42 34q7 -9 22 -20q13 0 38 -2q68 -11 56 -11q1 0 6 1h7 q6 0 20 -6q3 -9 3 -14zM226 230q0 -4 -5 -34q-5 -5 -10 -5q-8 0 -15 8.5t-6 14.5q0 1 -6.5 16t-6.5 19v34q0 11 29 30q1 -10 9 -36q7 -21 7 -35q0 -1 2 -5.5t2 -6.5zM344 186q0 -13 -2 -20q-6 -2 -18 -10v-5q-1 -4 -1 -6t5.5 -17t5.5 -24q0 1 -6 -27q0 -6 -1 -18 q0 -3 -1 -9.5t-2 -9.5q0 -15 1 -12q-1 -6 -8 -16q-6 -6 -20 -18.5t-20 -18.5q-8 1 -23 6q-2 7 -6 15q-5 5 -15 17q-7 9 -7 43q0 32 2 39q3 18 3 21q0 11 -4 35q-2 1 -5.5 3.5t-3.5 8.5q0 11 15 11q8 0 14 -14v-4q-1 -3 -1 -5q9 -3 22 -16q3 -4 8 -13q3 5 9 13q1 1 15 8 q9 5 9 12q0 2 -3 17t-3 17q0 13 15 31q10 2 23 -5q3 -27 3 -29z" />
<glyph unicode="X" horiz-adv-x="742" d="M658 631q0 -6 -6 -18h-10q-7 -1 -8 -1q-2 0 -23 3.5t-22 3.5q-3 0 -43 -10l-18 -2q-12 -3 -18 -12q-2 -3 -7 -23q3 21 -20 27l-20 20q-7 -1 -22 -5q-1 5 -1 12t1 11q10 -2 17 -2q12 0 17 7.5t9 7.5q11 0 18 -5q4 -2 13.5 -8.5t11.5 -6.5q1 0 9.5 4t14.5 4.5t18 3.5 q4 4 14 9q24 8 30 8q22 0 39 -12q6 -6 6 -16zM266 623q0 -1 -6 -12.5t-7 -18.5q2 6 2 -12q0 2 -3 -31q-3 5 -8 16q-1 1 -15 10q-3 5 -9 12q-20 14 -33 14q-1 0 -9.5 -2.5t-10.5 -2.5l-19 6q-8 1 -26 5q-4 0 -19.5 11t-15.5 16q0 7 15.5 16t21.5 9q1 0 14.5 -4.5t19.5 -5.5 q14 -3 32 -3q2 0 10 1h10q13 0 22 -3q15 -6 32 -9q0 -2 1 -6.5t1 -5.5zM711 22q0 -14 -17 -19q-21 -6 -69 -9q-5 0 -18.5 -2.5t-15.5 -2.5q-1 0 -9 2.5t-11 2.5q-9 0 -26 1l-17 1q-1 0 -21 -3.5t-22 -3.5q4 0 -24 8q-10 4 -21 15q-6 5 -6 18q0 21 20 54q7 5 17 13q1 2 1 7 q0 -2 -30 55q0 4 -3 11.5t-8 38.5q-4 6 -11 15t-21 25q-5 8 -9 16q-7 11 -14 11q-10 0 -19 -3q-4 -2 -6 -8q-10 -26 -12 -44q-2 -12 -21.5 -36.5t-21.5 -37.5q0 -1 -12 -18t-12 -23q0 -13 10.5 -26l22 -27t11.5 -22q0 -4 -2 -8l-21 -23q-2 -2 -9 -2q-25 -5 -30 -5 q-1 0 -23 3.5t-24 3.5q-1 0 -47 -2t-48 -2q-1 0 -30 5q-14 1 -44 7q-7 40 -7 53q0 19 11 19q1 0 8.5 -1t9.5 -1q1 0 4.5 1t5.5 1q34 1 77 21q6 1 17 5.5t26 21.5q0 4 4 13.5t19 13.5q19 7 27 29l10 34q7 6 19.5 18t23.5 28q2 2 5 6q7 12 23 37q1 4 5 12q1 2 12 11q6 5 6 13 q0 14 -8 26l-22 35q-2 6 -8 20q-7 22 -22 62q-3 8 -15 16q-16 13 -19 16q2 10 22 17q8 -8 22 -24q1 -8 6 -23q5 -2 14 -8q14 -16 27 -33q18 -20 35 -20q15 0 23 16t29 48q4 11 13 31q7 9 21 24l21 27q24 1 24 -21q0 -13 -2 -17q-5 -13 -20 -38q-6 -3 -15 -11 q-13 -33 -43 -95q-2 -3 -13 -14.5t-11 -19.5q0 -11 9 -20q14 -14 16 -17l17 -40q6 -6 17 -18q2 -7 8 -20q2 -3 14 -15q11 -19 32 -49q11 -15 20 -32q6 -5 16 -17q5 -7 13 -21q2 -3 13.5 -10t14.5 -7q2 0 20 3.5t19 3.5q14 0 36.5 -11.5t30.5 -23.5q12 -19 12 -41z" />
<glyph unicode="Y" horiz-adv-x="710" d="M679 640q0 -8 -10 -22q-17 -3 -42 -8q3 0 -19 -11q-14 -4 -36 -18q-9 -15 -28 -44q-5 -3 -13 -12q-2 -9 -9 -27q-4 -3 -10 -11t-9 -23q-3 -18 -5 -23q-5 -14 -18 -43q-7 -2 -14 -6.5t-13 -15.5q-1 -2 -2.5 -9t-3.5 -10q-6 -18 -5 -30q0 -1 3 -15t3 -16q1 -6 -5 -19 q-7 -18 -10 -28q-6 -26 -5 -62q1 -18 -3 -55.5t-4 -34.5q0 2 4 -18q1 -7 6 -22q5 -8 12 -9.5t12 -3t8 -1.5q2 0 10.5 2.5t9.5 2.5q2 0 12 -4t11 -4q2 0 2.5 1t1.5 1q10 0 17 -2q12 -3 23 -11q3 -1 7 -10q-2 -2 -6 -7.5t-5 -6.5q-9 -11 -21 -11q-2 0 -10 2t-10 2q-1 0 -11 -3 t-12 -3q-1 0 -8.5 1t-10.5 1l-42 -10q-7 3 -22 7q-51 7 -46 7q-8 0 -19 -2q-2 0 -9.5 -4t-9.5 -4h-35q-1 0 -14 -3t-15 -3t-6.5 4t-6.5 5q-33 14 -52 11v15q3 -1 10 7t11 10q8 1 23 5q3 1 11.5 6t9.5 5q9 0 25.5 -8l16.5 -8q-5 0 12 8q10 3 21 7.5t17 14.5q12 21 10 41 q0 1 -2 18t-2 19v48q0 55 -7 81q-3 4 -10.5 12.5l-21.5 24.5q-5 16 -15 45q-8 16 -24 44q-3 4 -5 11.5t-19 18.5q-3 10 -10 31q0 5 -2 12q-4 4 -10 9q-14 19 -22 36q-2 8 -9 23l-33 27q-6 9 -22 24q-8 0 -22 3q-30 9 -37 9t-25 -15q-13 7 -22 8q0 3 -1 8.5t-1 7.5q0 16 2 22 q0 3 8.5 17t14.5 14q2 0 21 -5.5t20 -5.5t11.5 5t12.5 5h7q6 -1 7 -1q2 0 13 2t13 2t21 -5t20 -5t22 7q1 0 11 -3.5t12 -3.5q5 0 13 2q16 0 28 -6q8 -13 8 -21q0 -9 -13 -22q-10 -4 -21 -8q-19 -8 -19 -14l5 -13.5t7 -21.5q-1 -9 1 -26q14 -38 48 -91q14 -13 32 -46 q1 -11 2 -35q3 -12 17 -19q1 -2 5 -6q8 -4 14 -4q2 0 5.5 1.5t4.5 1.5q17 6 26 43q3 10 6 28q5 1 7 3q30 37 32 62q5 6 10 18.5l14 36.5l7 7q4 4 6 12t8 25q1 1 5.5 6t4.5 10q0 4 -5 11q-7 3 -19 10q-17 6 -51 22v13q22 4 56 12q1 0 4 1t5 1t10.5 -2t9.5 -2q2 0 12 3t11 3 q2 0 18.5 -1.5t17.5 -1.5q2 0 14 1.5t13 1.5q2 0 10 -1t9 -1q2 0 11 5.5t15 5.5q27 0 28 -19z" />
<glyph unicode="Z" horiz-adv-x="600" d="M534 611q0 9 -3 -27q-5 -7 -17 -17q-21 -10 -32 -36l-14 -41q-3 0 -7 -4t-26 -32q-1 -2 -3.5 -9.5t-5.5 -11.5t-20 -16q-6 -1 -15 -7q0 -11 -6 -31q-12 -17 -23 -17q-3 -1 -11 3q3 4 4.5 28.5t7.5 35.5q12 0 21 12q7 0 20 1q1 1 11 37q1 3 11 16q5 2 17 4q4 8 4 6 q1 10 5.5 31.5t4.5 22.5q0 22 -11 22q-2 0 -13 -2t-12 -2q-2 0 -44 4t-44 4q-17 0 -25 -2q-13 -4 -32 -6q-3 0 -10.5 -2.5t-8.5 -2.5q4 0 -19 9q-3 2 -14 2q-40 0 -57 -40q-1 -3 -7 -44q-2 -12 -6 -29q1 -11 -3 -26q-19 -13 -23 -13q-31 0 -31 22q0 4 0.5 6t3 4.5t1.5 4.5 q0 1 -6.5 13.5t-8.5 18.5q1 7 1 21q0 -1 -8 13q-2 6 -7 19q0 1 -3.5 4.5t-5 6.5t-1.5 9q0 19 44 50q8 10 21 15q9 5 23 5q2 0 9.5 -1t8.5 -1q2 0 13.5 6.5t12.5 6.5q12 0 18 -2q7 -5 21 -12q7 0 23 -2q18 -6 20 -6q1 0 12 5.5t13 5.5l80 -9q2 0 12 3t11 3t10.5 -2t11.5 -2 q1 0 9.5 1.5t10.5 1.5t21 -3t20 -3q2 0 11.5 3.5t10.5 3.5q-2 0 18 -9q6 -3 6 -20zM346 343q0 -6 -3 -12l-12 -14q-9 -9 -9 -14q-22 13 -22 17q0 11 3 23q0 3 8.5 14t10.5 11q9 0 16.5 -8t7.5 -17zM563 80q0 -1 -3 -12t-2 -17.5t-2 -19.5q-5 -3 -16 -9q-7 -8 -25 -26h-53 q-1 0 -14 1.5t-15 1.5q-1 0 -11 -2t-12 -2q-1 0 -10 1.5t-11 1.5q-1 0 -10.5 -2.5t-11.5 -2.5l-7.5 3t-11.5 3q-13 2 -60 2q-8 0 -15 -6q-10 -9 -12.5 -10.5t-27.5 -2.5q-11 0 -28 3t-24 3q-1 0 -22.5 -5t-23.5 -5q-1 0 -10.5 2.5l-13.5 3.5q-27 4 -31 5q-19 4 -28.5 12.5 t-14.5 22.5q0 22 11 55q5 14 21 30q6 10 21 31q15 18 42 44q3 2 26 15q20 11 32 28q5 3 14 9q3 7 13 16q36 20 41 52h8q2 0 16 -7q1 -2 4.5 -9.5t3.5 -9.5q0 -10 -11 -29l-38 -32q-8 -16 -25 -45q-5 -6 -12 -19q-3 -16 -3 -27q0 -23 2 -27q12 -22 68 -20q1 0 16 1.5t17 1.5 t10.5 -1.5t9.5 -1.5q-2 0 18 4h71q26 0 35 3q16 6 23 27l8 8q14 28 14 42q0 2 -3.5 12t-3.5 11q0 2 5 20q0 6 1 15q13 11 22 11l21 -6q11 -15 22 -38q2 -3 2 -13q0 -1 -1 -8t-1 -10q1 -8 1 -25q0 -3 -2 -10.5t-2 -8.5q9 -27 9 -33z" />
<glyph unicode="[" />
<glyph unicode="\" horiz-adv-x="525" d="M535 -119q0 -18 -8 -47q-2 -10 -9 -12q-12 -9 -22 -9q-12 0 -20 8q-5 5 -13 26t-20 36q-3 10 -9 26q-4 4 -7.5 12l-8.5 19q-9 9 -22 33q0 13 1 11q-5 14 -18 42q-4 6 -10 16q-6 5 -15 15q-10 15 -15 24q-3 13 -18 41q-4 5 -4 20q1 4 1 11q-11 23 -24 38q-11 10 -24 25 q-3 19 -15 55q-10 16 -27 46q-4 3 -10 10q-2 4 -4.5 10.5t-5.5 10l-10 11.5q-3 12 -13 36q0 4 -1 11q-1 3 -17 22q0 17 -1 20q-4 12 -17 25t-16 19t-4 17v13q-5 3 -14.5 9.5t-17.5 25.5q-5 14 -11 27q-9 17 -23 27q-7 5 -18 26q-3 7 -2.5 20t-2.5 18.5t-9 15.5q-6 20 -27 37 q-16 13 -14 38q3 27 29 34l19 -15q14 -19 37 -47q-1 -13 10 -34q9 -13 23 -38q2 -5 6.5 -14.5t10.5 -27.5q1 -2 1 -7v-7q1 -7 18 -29l9 -21q4 -6 12 -24q5 -4 12 -11q13 -15 36 -49v-31q7 -9 15 -21q2 -5 6 -14q5 -3 11 -9q14 -15 20 -32q1 -9 3 -21q1 -4 12 -21q1 -3 3 -7 q8 -13 15 -21l4 -16q6 -12 18 -32q14 -11 32 -27q1 -8 5 -23q8 -6 17 -23q0 -6 2 -19q3 -7 19 -29q4 -2 7.5 -5.5t5 -15t7.5 -17t23 -29.5q4 -9 12.5 -25t16.5 -25q4 -2 8 -6l8 -22q6 -7 15 -19l11 -27l12 -25q16 -17 14 -33z" />
<glyph unicode="]" />
<glyph unicode="^" />
<glyph unicode="_" horiz-adv-x="584" d="M635 -136q0 -18 -18 -37l-28 -25q-6 -6 -22 -6q-1 0 -24 2t-25 2q-1 0 -23 -2.5t-24 -2.5q-10 0 -53 16q-9 0 -20 -2q-7 -1 -24 -8t-18 -7q-3 0 -22.5 7t-39.5 7t-29 -4q-18 -8 -15 -8q2 0 -11.5 6t-29.5 6q-1 0 -32 -4t-33 -4q-1 0 -9.5 2t-10.5 2q-1 0 -10.5 -2 t-11.5 -2t-10.5 1.5t-9.5 1.5q-2 0 -11.5 -2.5t-10.5 -2.5q-13 0 -53 11q-2 0 -5.5 3.5t-5.5 3.5q-1 0 -8.5 -2t-9.5 -2h-4q-4 9 -15 23q-9 11 -9 17q0 5 2 9q9 18 22 27q3 2 23 7l11.5 5.5t11.5 4.5q1 0 10 -1h11h17q4 1 13 4.5t10 3.5q2 0 12.5 -3t11.5 -3t11.5 1t12.5 1 t23 -3t22 -3q5 0 29 3q4 1 15 4.5t13 3.5t19.5 -2t18.5 -2q2 0 14.5 2.5t13.5 2.5t19.5 -2.5t20.5 -2.5t10 1.5t9 1.5q2 0 11 -3t10 -3t19.5 5.5t30.5 5.5q1 0 7 -1h7q1 0 10 2t11 2t10.5 -2t9.5 -2l22 10h11q13 0 21.5 -5t11.5 -5q2 0 10.5 2.5t9.5 2.5q10 0 19 -3 q22 -10 47 -46q1 -2 1 -8z" />
<glyph unicode="`" horiz-adv-x="365" d="M139 826q3 -1 7 -3q8 -6 22 -18q6 -4 22 -17q1 -1 31 -22q11 -5 23 -14q2 -4 7 -9q2 -1 43 -13.5t42 -12.5q21 -10 26 -22q4 -9 0 -16q-1 3 -19 -26q-23 -2 -27 0q-2 2 -6 4q-12 5 -35 13q-19 8 -69 16q-27 4 -40 4q-4 0 -15 3.5t-16 4.5q-10 4 -27 8t-26 9 q-20 10 -27 11h-6q-18 8 -27.5 26.5t-9.5 45.5q2 4 6 10q1 2 6 8q10 5 25 16l22 6q2 1 5 1q6 0 17.5 -4l14.5 -5q9 1 31 -4z" />
<glyph unicode="a" horiz-adv-x="604" d="M579 95q0 -1 -1 -6.5t-1 -8.5q2 -13 -5 -44q-18 -12 -21 -12q-5 0 -21 8q-9 -7 -9 -14q0 -2 2.5 -8t1.5 -10q-5 -5 -16.5 -10t-37.5 -5q-1 0 -11.5 1t-15.5 1q-2 12 -10 35q-4 2 -11 8q-20 24 -58 24q-6 0 -13.5 -6.5t-9 -11t-5.5 -13.5q-15 -6 -30.5 -13t-29.5 -7 q-12 0 -23 5q-12 -14 -21 -30q-8 0 -22 4q-20 11 -21 11t-10 -4t-11 -4q4 0 -15 11.5t-35 15.5t-45 19q-1 5 -5 12q-6 11 -27 38q-5 8 -5 14q0 -3 1 9t1 37q0 9 3 24q4 4 10 12q1 10 10 28q13 0 43 13q15 12 43 25q8 5 21 5q2 0 12 -3.5t11 -3.5t6 1h6t17 -2.5t16 -2.5 q2 0 20 3.5t19 3.5q2 0 11 -4t10 -4q4 0 35 18q1 1 4.5 1.5t4.5 1.5q5 5 19 15q32 16 39.5 26.5t7.5 33.5q0 21 -7 38q-2 5 -19 17q-7 6 -23 14q-23 2 -66 7q-44 11 -37 11q-2 0 -22 -12t-21 -12q-8 0 -19 -2q-18 -9 -16 -44q1 -23 -8 -43q-6 -13 -20 -13q-1 0 -9.5 4 t-11.5 4l-22 3q-1 0 -10 7t-12 6q0 -1 0 10q-1 11 -1 30q-1 4 -3.5 11t-2.5 9t16 46q2 7 11 11q8 0 23 2l21 15q8 6 18.5 6.5t29.5 1.5q3 0 9.5 1.5t7.5 1.5t14.5 -2t18.5 -2q1 0 11 1t12 1q12 0 30 -7.5t19 -7.5t8.5 7.5t12.5 7.5q3 0 21 -5q14 -4 17 -11q6 -14 22 -17 l26 -4q10 -14 25 -43q10 -30 10 -59q0 -6 -8 -51l13 -68q-4 -8 -9 -27q-4 -50 -4 -46q0 -24 19 -54q1 -5 5.5 -15t23.5 -10t23 11q0 12 6 35l9 32q6 9 13 15q6 -4 17 -15q11 -16 11 -33zM406 181q0 18 -10 22q-22 14 -35 14q-3 0 -17 -6.5t-24 -6.5q-5 0 -14.5 6l-9.5 6 q-1 0 -10 -5.5t-11 -5.5q-1 0 -9.5 2t-10.5 2q-1 0 -21 -10t-22 -10t-10.5 3.5t-9.5 3.5q-3 0 -13 -7.5t-10 -9.5q-17 5 -20 5q-2 0 -14 -27q-4 -5 -12 -16q-3 -4 -3 -12q0 -9 1 -12q16 -32 25 -41q6 0 16 -1q6 -2 8 -11t4 -10q7 -3 16 -9q17 -18 43 -18q6 0 27 8q5 5 16 12 q6 5 14 7q12 4 36 11q3 4 10 10q1 1 22 5q16 3 18 13q-2 9 -2 25q3 6 7 16q9 4 22 15l-8 11q11 15 11 21z" />
<glyph unicode="b" horiz-adv-x="590" d="M553 233l-4 -14t-4 -21q1 -46 0 -51q-4 -9 -10.5 -26.5l-18.5 -50.5q-4 -3 -11 -11q-13 -21 -31 -34q-6 -3 -16.5 -9t-15.5 -12q-30 -39 -86 -37h-3q-2 -1 -4 -1q-6 0 -16.5 9l-10.5 9q-1 0 -10.5 -2t-11.5 -2q-17 0 -20 2q-29 27 -62 54q-8 0 -15 -16.5t-7 -23.5 q-19 -11 -21 -11q-8 3 -21 10l-0.5 2t-1.5 3q-4 16 -8 40q0 20 -8 81q1 -8 1 57q0 8 -1 26.5l-1 18.5q0 2 6 26q2 2 2 4l-5 124l3 90q0 13 9 41q5 2 21 7q-4 6 -4 10q-6 4 -16 10q-6 19 -10 46q-2 7 -7 11q-14 8 -23 8q-1 0 -9.5 -4.5t-12.5 -5.5q-22 -4 -38 -4q-8 0 -26 8 q-3 1 -8 9.5t-4 12.5q0 3 14 31q27 9 23 9q2 0 10.5 -3.5t9.5 -3.5t11 4.5t12 3.5q2 0 8 -2t8 -2q16 0 47 -5q12 -2 23 -16q5 -6 13 -22q3 -9 3 -12q0 -1 -3 -8t-4 -10q2 -11 0 -34q-1 -4 -10 -16q-4 -5 -6 -15q2 -2 6 -5q22 -8 19 -49q1 6 1 -21q0 -20 12 -32 q10 15 32.5 18t31.5 12q5 4 43 14q7 2 18 4q17 4 46 3q26 -1 47 -12l37 -22q15 -8 38 -39q4 -6 4.5 -22.5t8.5 -25.5q5 -3 11 -10q6 -14 11 -44q1 -8 8 -20t7 -31zM498 245q0 20 -3 36q0 6 -13 29q-5 5 -5 13q-3 14 2 33q-33 11 -58 38q-19 21 -52 22q-15 1 -42 -5 q-30 -5 -35 -12l-29 -30q-4 -7 -11 -17q-6 -5 -21 -28q-7 -6 -18 -20q-7 -10 -3.5 -12t-8.5 -28q-13 -29 -13 -35t4 -19q1 -2 4 -6.5t4 -6.5q1 -15 3 -41q1 -9 11 -17q14 -12 18 -17q1 -4 4 -13q8 -10 23 -27q9 -9 27 -19q8 -2 19 -8q15 -12 35 -13q10 0 32.5 10t28 11 t16.5 6q12 10 27 25q4 13 10 30q27 30 35 62q-1 5 -2 13q11 42 11 46z" />
<glyph unicode="c" horiz-adv-x="520" d="M482 124q0 -17 -3 -22l-34 -47q-3 -1 -9 -5q-2 -4 -3 -16.5t-9.5 -19t-43.5 -20.5q-8 0 -21 -3q-40 -20 -63 -20q-6 0 -13.5 5t-8.5 5t-20 -3t-21 -3q-1 0 -10.5 3t-11.5 3q-1 0 -7 -1t-8 -1q-19 0 -28.5 6t-20.5 23q-7 10 -43 38q-1 1 -5 9l-16 11q-4 3 -9.5 20t-5.5 26 q0 6 5.5 13.5t5.5 8.5q0 7 -13 21t-16 19q-2 12 -9 34q3 7 1 10q-5 14 -5 29q0 18 4 25q5 3 12 18q-1 8 1 23q2 6 8 15q7 5 18 27q5 3 14 12q3 8 10 23q9 12 16 18q15 16 48 37q10 2 42 21q7 6 21 6q1 0 10.5 -4.5t11.5 -4.5q1 0 10.5 5t11.5 5q1 0 9 -1t10 -1q1 0 11.5 2 t12.5 2q14 0 24 -7.5t17 -7.5q2 0 9.5 1.5t8.5 1.5q11 0 23 -9q3 -5 10 -15q12 -10 33 -31l8 -14q2 -2 14 -15q6 -10 6 -38q0 -16 -2 -38q-1 -2 -4 -7q-6 -7 -21 -20q-2 -1 -17 -1l-48 12q-1 24 -6 66q-1 9 -5 25q-5 8 -13.5 13t-16.5 9l-9 11.5t-12 6.5q-32 0 -43 -8 q-6 10 -39 10q-22 0 -26 -7q-14 -27 -15 -28q-4 -1 -10 -5q-16 -12 -25 -21.5t-22 -27.5q-3 -10 -10 -28q-3 -3 -8 -11q0 -12 -3 -34q-1 -8 -5.5 -24.5t-4.5 -17.5q0 -35 21 -59q0 -4 2 -11q3 -15 23 -50q8 -5 23 -18q11 -14 35 -31q9 0 28 -3q3 -1 20 -10q14 -7 22 -7 q26 0 57 25q8 1 23 5.5t27 12.5q5 2 8 10q0 8 5 21q5 3 13 12q1 7 5 22q2 5 13.5 18t14.5 13q11 0 17.5 -5t18.5 -26v-11z" />
<glyph unicode="d" horiz-adv-x="588" d="M449 601q0 -18 -8 -50q1 9 1 -38q0 -12 -2 -18q-7 -3 -21 -7q-4 7 -9 20q0 32 1 23l-6 30q-10 12 -30 18q-23 7 -29 12l-22 4q-6 1 -30 9q-2 14 1 26q13 0 22 7q18 -11 31 -12q7 0 39 11l36 12q3 -6 17 -24q9 -13 9 -23zM563 40q0 -9 -12.5 -27.5t-18.5 -20l-21 -5.5 q-22 -9 -33 -9q-12 0 -20.5 5t-9.5 5t-9 -2t-10 -2l-11 7v5q-1 4 -1.5 6.5t-4.5 8.5q-21 31 -26 31q-10 0 -21 -6q-6 -6 -18 -13.5l-36 -21.5q-33 -19 -35 -19h-6q-5 1 -7 1q-19 1 -32.5 -5.5t-18.5 -6.5q-12 0 -18 5q-12 9 -20 13q-8 0 -24 3q-11 3 -18 11l-20 32 q-9 7 -23 21l-3 12q-6 11 -17 35q0 4 -3 14q-7 13 -13 64q-1 7 -8 19t-7 13q0 9 7 17t7 13q0 2 -2.5 5.5t-2.5 4.5v19l-1 13q0 9 2 12q7 7 16 18q3 12 12 33q13 0 15 12q2 9 3 19q2 6 8 10l32 29q3 6 9 13q8 4 35 13q4 3 8.5 5t13 4.5t9.5 2.5q19 0 45 -2q35 -3 58 -10 q16 -5 29 -17q8 -10 27 -28q9 -1 27 -17q21 15 21 20q0 2 -3.5 17t-3.5 16q0 18 9 30l22 -8l-1 -29q-7 -5 -12 -10t-6 -11q0 -6 5 -9l10 -6q3 -30 3 -28l-1 -35q0 -1 3.5 -16t3.5 -17q0 -1 -4.5 -13t-4.5 -14q0 -1 3 -10.5t4 -14.5q3 -23 3 -26q-6 -24 -6 -28q-1 -6 3.5 -12 t5.5 -8q5 -14 5 -22q0 -1 -5.5 -10t-5.5 -11q0 2 6 -8.5t11 -32.5q4 -17 11 -20.5t20 -9.5q3 -1 7 -1l37 3q11 1 19.5 -3t8.5 -15zM412 268q1 8 -11 33q-2 3 -9 7q-1 12 -2.5 25.5t-17.5 20.5q-2 21 -27 34q-15 1 -35.5 6.5t-31.5 14.5q-6 5 -21 5h-12q-19 -5 -54 -15 q-19 -6 -23 -11q-8 -15 -15 -31q-11 -17 -27 -21q-1 -11 -7 -31q-6 -6 -13 -17q0 -11 -3.5 -26.5t-3.5 -38.5q0 -31 -1 -24q4 -7 10 -20q3 -12 7 -32q0 -9 1 -23q12 -19 40 -42q14 -11 27 -16q10 -3 19 -6q18 -8 17 -8q6 0 11.5 5.5t9.5 5.5q1 0 14.5 -2t18.5 -3q7 -10 7 -8 q-1 9 25 26q9 4 24 13q2 2 2 9q16 14 24 22q14 4 38 24q1 11 5 26t4 14q0 1 -4 13.5t-4 14.5t6 10.5t7 11.5q5 12 5 34zM241 37q-2 2 -2 4q-1 -1 -3 -4h5z" />
<glyph unicode="e" horiz-adv-x="524" d="M484 274q0 -3 -1.5 -10t-3.5 -10q-7 -13 -13 -17q-9 -7 -20 -7q-1 0 -10 2.5t-11 2.5q-1 0 -15 -6t-16 -6h-54q-14 11 -20 11q-2 0 -10 -4q-26 -7 -35 -7q-1 0 -19.5 2.5t-20.5 2.5q-1 0 -13 -2.5t-14 -2.5q-1 0 -6 1h-6q-3 0 -24 -7q-10 -1 -21 -3q-14 -2 -19.5 -11 t-5.5 -18q-2 -2 -2 -5q0 7 7 -18l3 -24q2 -8 14.5 -16t16 -15l10.5 -22q5 -10 36 -23q5 -5 19.5 -15.5t26.5 -10.5q2 0 16 1.5t15 1.5h15q13 -1 14 -1q29 0 45 16l30 31q3 9 11 25q6 2 16 9q2 3 6 7q2 0 3 3v10q3 0 9.5 1.5t7.5 1.5q14 0 23.5 -10.5t9.5 -25.5l-11 -35 q-4 -5 -11 -18q-2 -9 -10 -24q-1 -1 -21 -13q-4 -1 -13 -5q-3 -4 -9 -10q-13 -8 -52 -18q-10 -3 -32 -6q-28 -1 -60 -1q-4 0 -13 -1.5t-11 -1.5q-10 0 -22 3q2 0 -12 10l-29 15l-22 19q-5 4 -22 6q-2 5 -12 8.5t-12 8.5t-6 13q-9 5 -23 20q-3 4 -18 52q-2 5 -11 16 q-9 8 -9 15v123q0 10 11 20t14 15q1 0 -1 2.5t1 15.5q0 6 2 16l29 29q3 11 14 30q9 4 25 14q11 9 20 21l10 16t11 8q1 0 25 -2t26 -2q9 0 21.5 6t25.5 6q27 0 48.5 -7t61.5 -25q17 -11 44 -41q1 -1 8 -33q0 -10 1 -12.5t13 -8.5q0 -14 14 -23q5 -2 12 -9q11 -30 11 -44z M435 302q0 7 -2 10t-9 7l-3 32q0 4 -3 7l-35 18q-7 7 -20 16q-10 0 -27 1q-8 0 -16 4.5l-19 10.5q-12 3 -24 3q-20 0 -40 -6q-2 0 -27 -11q-19 -8 -48 -28q-12 -22 -12 -42q0 -4 8 -22t14 -18q2 0 12 2t11 2q12 0 22 -2q3 -1 9.5 -3.5t7.5 -2.5q-5 0 15 6q7 2 21 2 q6 0 16.5 -3.5t11.5 -3.5q2 0 11.5 3.5t10.5 3.5q11 0 24.5 -6.5t20.5 -6.5q2 0 9 1h9q8 0 10.5 -0.5t6 -2t4.5 -1.5q3 0 21 12q8 8 9 10.5t1 7.5z" />
<glyph unicode="f" horiz-adv-x="541" d="M528 574q0 -1 -5 -8.5t-6 -11.5q-1 -14 -12 -39q-12 -5 -18 -5q-2 0 -44 18q-3 7 -1.5 26t-2.5 28q0 9 -7 26q-3 6 -13 8t-19 4q-16 5 -19 5q-13 0 -43 -22q-2 0 -13.5 4t-12.5 4q-12 0 -17 -2q-18 -8 -34 -24q-10 -10 -15 -21q-6 -19 -6 -48q0 -14 8 -27q3 -7 31 -12 q23 -5 37 -5q2 0 10.5 1t9.5 1q15 0 23.5 -4.5t8.5 -12.5q0 -9 -11 -18q-19 -16 -20 -18q-14 14 -21 14q-1 0 -9.5 -6t-13.5 -8l-28 -10q-17 -7 -21 -19t-4 -28l1.5 -12.5t1.5 -19.5v-10q-1 -8 -1 -11t1.5 -9.5t0.5 -10.5q0 -1 -3 -35q-2 -21 0 -32q3 -15 2 -30 q-2 -17 -1 -22q0 -3 2.5 -11.5t2.5 -12.5q0 -5 -2 -19.5t-1 -22.5q0 -2 9 -20q3 -11 16 -23q21 -4 47 -4q2 0 11.5 1t10.5 1t10 -2t11 -2t6 1t5 1q7 0 9 -1q19 -8 19 -38q0 -8 -6.5 -15t-12.5 -7q-1 0 -11.5 3t-12.5 3q-8 0 -61 -16q-11 4 -25 11q-12 3 -16 3q-11 0 -25 -5 l-16 -6q-42 -3 -44 -3q-1 0 -18.5 1t-19.5 1q-1 0 -12.5 -3t-13.5 -3q-1 0 -8 2t-10 3q-8 -1 -25 1q-19 7 -32 24q-3 6 -3 10q0 2 18 15q6 8 17 20q5 1 15 4q20 5 36 5q14 0 34 -5q15 0 31 24q3 4 2 34q-1 42 3 76q0 9 4 17q1 3 3.5 7t2.5 5q0 2 -2 4t-2 3q-5 18 -5 26 q-1 6 1 21t2 18q0 51 -7 75l-12 10q-2 8 -6 22q-4 8 -14 8q-1 0 -11 -3.5t-12 -3.5q1 0 -26 4q-13 1 -37 4q-14 2 -21 7q-4 1 -9.5 10.5t-5.5 14.5q0 10 15 25q2 1 6 4q17 10 15 10q2 0 13 -3.5t13 -3.5q1 0 11 1t12 1q13 0 18 -1q2 0 9 -3t9 -3q4 0 30 26q4 12 9 31 q-2 12 3 35q7 16 21 44q1 2 22 29q7 0 20 1q2 0 22 23q42 6 64 6q2 0 11.5 -3.5t10.5 -3.5q2 0 21 4t20 4t8 -3t10 -3q8 1 26 -1q4 -1 41 -24q3 -3 7 -9q5 -2 14 -8q3 -10 11 -29q1 -2 6 -8.5t5 -9.5z" />
<glyph unicode="g" horiz-adv-x="583" d="M564 390q0 -21 -10 -28q-7 -2 -23 -8q-12 -6 -10 -6q-1 0 -22 6q-12 25 -30 35q-3 4 -11 10q-6 2 -16 2q-12 0 -12 -8q0 -1 2.5 -10.5t2.5 -11.5q0 -1 -6 -20.5t-6 -21.5q0 -4 7.5 -16t7.5 -21q0 -16 -6 -36q-5 -7 -14 -22q-5 -22 -24 -63q-9 -2 -25 -6q-10 -8 -28 -20 q-16 -8 -12 -8q-1 0 -9.5 1.5t-10.5 1.5q-1 0 -10 -2t-11 -2q-4 0 -17 13q2 4 6 11q11 3 32 8q3 1 26 24q9 5 26 18q5 5 14 26q1 8 5 21.5t4 51.5q0 2 2.5 10.5t2.5 9.5q0 2 -12 22q-11 13 -31 39q-9 13 -38 13h-9q-7 -1 -9 -1t-12 9.5t-12 9.5l-6 -3q-18 -3 -43 -18 l-34 -20q-32 -15 -43 -15q-8 0 -22 9q-6 8 -6 18q0 12 6 20q4 2 10 6q10 10 32 26q22 11 28 11h6q4 -1 6 -1q14 0 24 14l63 12q1 0 8 -8t11 -11q14 -10 24 -14q7 0 21 -2q24 -6 23 -6q10 0 40 14q10 2 28 8q5 4 14 8q33 11 45 11q11 -11 27 -30q6 -5 19 -14q2 -2 8 -20 q2 -5 5.5 -10.5t3.5 -15.5zM556 -39q0 -15 -13 -38l-15 -15q-2 -3 -5 -10q-2 -3 -8 -3h-8q-1 7 2.5 19.5t3.5 19.5q0 10 -14 25q-2 7 0 14l3 6q0 17 -24 28q-5 6 -17 16q-9 3 -25 13q0 2 -3 5t-5 3q-6 2 -10 2q-3 0 -13.5 -10.5t-11.5 -10.5t-20 7t-21 7q-1 0 -9.5 -3 t-11.5 -3q-1 0 -11 4t-12 4q-1 0 -12 -3.5t-13 -3.5q-14 0 -25 8t-13 8q-5 0 -33 -10q-13 -7 -20.5 -15.5t-22.5 -12.5t-28 -8q-3 -1 -19 -16l-23.5 -22.5t-11.5 -23.5q0 -18 4 -25q1 -1 26 -28q7 -8 23 -19q7 0 21 -3q30 -10 23 -10q-8 0 40 11q14 -18 20.5 -20t39.5 -2 q22 0 25 1q14 4 21 23q39 -11 44 -11q1 0 11 1.5t12 1.5t8 -1h7q11 0 38.5 16t42.5 14q2 1 8 1q2 -5 2 -6q0 -4 -12 -12q-6 -5 -12 -9q-3 -7 -11 -20q-3 -5 -11 -12q-31 -13 -65 -13q-1 0 -9.5 1t-10.5 1q-13 0 -25.5 -6t-21.5 -6q-1 0 -3 1t-4 1q-11 0 -19 -5.5t-11 -5.5 q-2 0 -21.5 6t-20.5 6t-10.5 -4t-11.5 -4q-1 0 -11 2.5t-12 2.5q-1 0 -9 -1t-10 -1q-16 0 -49 11q-29 9 -37 14q-2 2 -12.5 13.5t-17.5 15t-21 13.5q-1 3 -4 11q-1 4 -6 15.5t-4 16.5v6q-1 5 -1 6q0 30 3 41q3 4 7 12q5 19 6 30t1 32v32q0 3 -3 11.5t-3 9.5q0 2 3 6t3 6 q-1 11 -1 31q1 2 8 19q4 2 9 7q2 5 7 15q2 3 11.5 7t12.5 13q2 4 2 20q0 19 -8 69q0 3 -3 10t-3 8q0 9 2.5 12.5t12.5 11.5q15 8 22 8q20 0 20 -8q3 -11 2 -15q0 -2 -1.5 -5t-1.5 -4q2 4 2 -11q-2 -25 7 -42q1 -6 5 -20q4 -5 29 -27q7 -9 22 -25q26 -22 41 -23q0 -2 12 -11 q-27 -9 -31 -9q-1 0 -10.5 5l-13.5 7q-8 3 -36 3q-30 0 -47 -10q-7 -4 -18 -16q0 -4 -2 -12q0 -2 -3 -6t-3 -6q0 -7 21 -28q5 -7 17 -20q6 -3 16 -3q12 0 17.5 3.5t17.5 10.5q7 1 20 4q4 1 13 5.5t10 4.5q2 0 12 -5.5t11 -5.5q2 0 22.5 5.5t21.5 5.5h7q5 -1 7 -1q1 0 12.5 3 t13.5 3q10 0 42 -18q2 0 10.5 2.5t9.5 2.5q-3 0 42 -7q3 -7 13 -16q16 -4 53 -6q3 -12 17 -23q12 -7 23 -15q7 -6 10 -30q0 -3 2.5 -9.5t2.5 -7.5z" />
<glyph unicode="h" horiz-adv-x="685" d="M196 511q0 -16 -23 -16h-4q-5 6 -11 17q0 1 3 20l-3 16q-4 23 -13.5 30t-21.5 7q-18 1 -20 1q-6 3 -20 8q-7 0 -22 3q-7 5 -21 10q0 2 -3 11q0 14 3 23q2 3 11 12.5t11 9.5q9 0 42 -7q3 -1 11.5 -4.5t10.5 -3.5t5.5 1.5t4.5 1.5q5 1 17.5 3t14.5 2t10 -9t11 -16 q6 -15 6 -40zM660 33q0 5 -20 -48q-14 -2 -26 3q-3 0 -9.5 3.5t-7.5 3.5t-9.5 -3.5t-10.5 -3.5q-1 0 -10.5 4.5t-11.5 4.5l-14 -5t-27 -6q-9 1 -29 1q-1 0 -6.5 -1t-7.5 -1q-1 0 -9 4.5t-13 5.5t-17.5 1.5t-18.5 1.5q-9 0 -9 11q0 29 23 36q15 0 41 10q18 15 20 31q0 9 2 29 q0 -2 8 10q3 3 3 16v34q0 1 1 7t1 9v18q-1 12 -1 13q0 23 7 45v5q-1 3 1 3h9q1 1 1 5q-4 15 -10 18q-4 13 -10 38q0 8 -2 22.5t-10 26.5q-4 7 -13 16q-6 2 -19 6q-24 12 -31 12q-1 0 -10.5 -3t-11.5 -3t-11 3.5t-11 2.5q-10 0 -24 -10q-8 -5 -16 -11q-10 -1 -28 -9 q-4 -9 -16 -25q-9 -5 -23 -18q-7 -14 -24 -41q-10 -9 -25 -28q-1 -9 -6 -27q-5 -7 -12 -21q-8 -18 -8 -27l1 -125q0 -11 26 -26.5t27 -10.5q2 1 8.5 -1.5t21.5 -9.5q2 -7 10 -11q-8 -6 -14 -6l-1 -2t-2 -3q-6 -3 -18 -8h-14q4 1 -23 1q-8 0 -26 -12q-2 -1 -10.5 1t-9.5 2 q-2 0 -21 -2.5t-20 -2.5q-22 0 -67 9q-6 15 -6 20q0 14 6 28q8 7 29 7t34 10q1 1 8.5 1.5t22.5 8.5q5 6 2 17q-4 13 -2 27q0 4 3.5 11.5t3.5 8.5t-3.5 14t-3.5 15q0 11 5.5 27.5l5.5 16.5q0 2 -6.5 17t-6.5 16t5 20t5 21q0 1 -5 13t-5 14q0 6 4.5 16.5t4.5 24.5q0 1 -3.5 18 t-3.5 19q0 9 3 23q1 3 3 5.5t2 9.5q0 1 -3.5 13t-3.5 14q0 7 7 26q11 2 22 6q7 -37 5 -49v-15q1 -11 5 -35q0 -13 4.5 -19.5t7.5 -8.5q10 5 28 15q3 2 13 12q2 2 14 8q11 11 29 27l33.5 18.5t29.5 25.5q15 3 46 6q6 1 23 5t18 4q47 0 63 -12q7 -5 11 -20l6 -21q3 -7 8 -21 q-1 -12 0 -36q8 -8 17 -19q3 -7 3 -18q0 -17 -4 -45l-17 -11q0 -1 5.5 -21.5t5.5 -22.5q0 1 -6 -22q-1 -4 -1 -17q0 -10 7.5 -21.5t7.5 -12.5t-2.5 -9t-2.5 -10t2 -6t2 -5v-37q0 -1 1.5 -6.5t1.5 -8.5l3 -3q11 -4 29 -12q7 -4 20 -4q1 0 15 2t16 2q3 0 18 -17q4 -5 4 -10z " />
<glyph unicode="i" horiz-adv-x="454" d="M276 627q0 -25 -5.5 -36.5t-25.5 -29.5h-14q-28 0 -47 5q-8 3 -19 16q-1 2 -3 4q5 6 3 17q-2 12 -1 15q8 28 17 39q7 4 21 13h7q19 0 59 -20q8 -3 8 -23zM441 26q0 -8 -5 -21q-6 -1 -19 -4q-8 -2 -25.5 -9t-18.5 -7t-11.5 3t-12.5 3q-1 0 -18 -2.5t-19 -2.5q-1 0 -11.5 4 t-12.5 4t-11.5 -4.5t-10.5 -4.5t-14 2.5t-15 2.5q-1 0 -10 -1h-10q-1 0 -17 3t-18 3q-3 0 -47 -3q-3 0 -19 -3t-17 -3q-3 0 -12.5 8t-12.5 8q-1 0 -8.5 -1.5t-9.5 -1.5q-5 0 -10 8q-9 15 -9 26q0 4 1 7q4 13 16 22q1 1 10 1q2 0 6 -1t5 -1q2 0 11 2t10 2q2 0 21 -3t20 -3 t9.5 5.5t13.5 4.5q6 -1 11 -1q22 0 35 17.5t13 36.5q0 9 -5 16q-10 13 -12 17q7 5 10 9q5 10 5 12v25q0 2 1 4t1 3q0 10 -11 21q-1 1 -1 6q0 2 2.5 7t2.5 7q4 21 4 32q0 2 -2.5 11t-2.5 10q0 2 4 24t4 23q0 32 -5 57q-1 10 -33 10q5 0 -23 -7q-6 -2 -19 -10q-18 15 -19 15 h-45q-11 0 -20.5 7.5t-9.5 19.5q0 8 13 24t17 17q10 2 19 2q1 0 13 -3.5t14 -3.5t9.5 1.5t8.5 1.5t20.5 -3.5t21.5 -3.5q1 0 10.5 2.5t10.5 2.5q17 0 43 -8q3 -1 10.5 -15t7.5 -18q0 -5 -2 -19q0 -2 -4.5 -7t-4.5 -7q0 -8 6.5 -17t6.5 -12q0 -2 -7 -17t-7 -16t4 -18.5 t4 -19.5q0 -1 -5 -18t-5 -19q0 10 9 -35q0 -2 -0.5 -7t0.5 -8q0 2 5 -8q4 -4 4 -11q0 -1 -3 -22.5t-3 -23.5q0 -7 5 -17v-8q-1 -15 4 -35t30 -25q31 -6 50 -6q4 0 14 5t24 5l21 -13q8 -2 22 -8q10 -6 10 -24z" />
<glyph unicode="j" horiz-adv-x="472" d="M395 611q0 -15 -3 -20q0 -1 -13 -11q-2 -3 -8 -10q-2 -1 -20 -4q-3 -1 -11 -5.5t-10 -4.5q-6 0 -43 20q-5 30 -5 36q0 23 2 31q2 1 20 19q12 8 21 11q6 0 30 -6q11 -2 29 -10q6 -3 6 -10q5 -30 5 -36zM401 429q0 -1 -5 -21v-37q0 -12 -2 -36q-3 -21 3 -59q-1 7 -5 -28 l3 -24q2 -18 0 -28q-5 -19 -5 -25q0 -1 2 -4t2 -5q0 -6 1 -23q0 -11 6 -35l9 -23q0 -6 -9.5 -22t-9.5 -24q9 -12 19 -40q-2 -12 -4 -27l1 -38q0 -2 -22 -47l-25 -30q-8 -7 -29 -16q-8 -3 -21 -14q-3 -4 -11 -10q-2 -1 -13.5 -1.5t-17.5 -3.5q-30 -18 -31 -18q-2 0 -12.5 3 t-11.5 3q-6 -2 -12 -2h-7q-9 3 -22 9q-3 4 -10 11q-5 3 -32 11q-3 3 -9.5 6t-14 7.5l-21.5 12.5q-2 3 -6.5 6t-14.5 7q-13 18 -22 36q1 5 0 14q-17 71 -17 61q0 31 10 45q16 23 40 31q48 16 43 16q1 0 9 -4t12 -4q10 0 29 -4q8 -2 12 -10q11 -23 12 -47q1 -25 -19.5 -38 t-19.5 -33q0 -9 12 -18q20 -15 24 -20.5t6 -7.5q9 -13 17 -11q-6 0 21 9q2 0 17 -2t16 -2h12q37 21 37 59q0 9 5.5 24.5t5.5 19.5l-2 32q0 1 3 9t3 13.5t1 20.5q1 29 2 23l-4 6q2 15 4 44q18 34 18 41q-8 15 -16 32l-3 63q0 2 2 14t2 13q0 -7 -5 28q1 9 0 29q-2 11 -7 34 q0 1 -1 4.5t-2 4.5q-4 8 -9 17q-3 6 -13 10q-2 2 -7 2q-1 0 -7.5 -1.5t-8.5 -1.5q-12 6 -54 10q-16 -1 -12 -1q-6 -2 -36 12q-5 2 -7 10q0 -1 7 11q11 8 50 16h12q12 -1 13 -1q2 0 11 3.5t10 3.5q2 0 11.5 -4t10.5 -4q2 0 16 2.5t15 2.5q26 1 53 -9q4 -4 12 -11 q13 -10 13 -27z" />
<glyph unicode="k" horiz-adv-x="648" d="M623 442q-18 -12 -50 -38q-2 -2 -5 -2q-1 0 -7 1h-7q-19 0 -26.5 -6l-21 -17t-23.5 -11q-1 0 -6 1h-6q-11 0 -17 -14q-4 -9 -8 -19q-3 -4 -18 -9.5t-18 -11.5q-10 -16 -10 -34q0 -4 1 -8q-1 -3 -25 -21q0 -9 2 -12t4 -12.5t7 -29.5q1 -2 16 -12q3 -2 7.5 -14t12.5 -14 q15 -5 19 -5q-2 0 21 10q2 -2 6 -8q-3 -5 -3 -9q0 -12 18 -12q23 -29 23 -46q0 -4 -1 -8q-2 -12 -2 -13q10 2 17 2q1 0 10 -4t13 -5q18 -7 46 -9q19 -24 19 -32q0 -3 -8.5 -11t-10 -9t-23.5 -6q-3 -3 -10 -6q-16 -7 -30 -7q-6 0 -25.5 8t-30.5 8q-1 0 -22.5 -4t-23.5 -4 q-9 0 -22 10q-17 13 -17 21q0 -5 5 10l12 8q3 3 3 10q0 -2 -7 22l-8 27l-6.5 27.5t-13.5 22.5q-5 1 -15 4q-15 8 -17 16q2 8 -1 22q-6 10 -24 21q-3 1 -14 1t-23 -11q-2 -5 -6 -13q-8 -8 -21 -14q-16 -8 -19 -10l-10 -16q3 -9 3 -15q0 -5 -3 -11t-3 -11q0 -19 15 -19 q8 0 18 2l2 -7q4 -32 60 -35q9 -2 17 -10q3 -3 6 -21q0 -9 -22 -31q-4 2 -12 5q-40 4 -31 4q-1 0 -7 -1h-7t-13.5 2t-12.5 2t-12.5 -4t-13.5 -4q-1 0 -34.5 2t-35.5 2q-14 0 -30 -5t-23 -5q-2 0 -5 3.5t-5 4.5q-13 6 -21 19q-5 6 -11 18q-2 11 -2 18q0 3 8 15t11 13t13 1 t12 -1t10 -8.5t13 -7.5q31 0 47 22q6 12 6 31q0 4 -1.5 10.5t-1.5 10.5q0 10 8 26t8 21q0 -3 -5 11q-15 43 -15 59q0 2 10 21.5t10 20.5t-6 10t-7.5 14t-1.5 38q0 1 2 3q-1 9 -2 28q0 9 2.5 26t2.5 18q0 12 -1 18q-3 10 -1 37q1 23 -6 34.5t-6 16.5q5 22 -1 31q-8 17 -16 19 q-22 9 -27 9q-1 0 -10 -3.5t-11 -3.5t-24 11q-7 4 -19 14q-4 4 -4 7q0 10 19 27.5t27 17.5q1 0 11.5 -4t12.5 -4q1 0 12 1t13 1l41 -3h11q11 1 13 1q35 0 64 -26q4 -4 4 -11q0 -4 -4.5 -10.5t-7.5 -6.5q-1 0 -6 1h-6q-13 0 -13 -9q0 -7 9 -17l-14 -32q1 4 1 -25l-6 -54 q0 -1 2.5 -19t2.5 -20q0 -1 -2.5 -13.5t-2.5 -14.5q0 -1 3 -12t1 -27q-3 -22 -3 -25q0 -17 4 -41q1 -7 8 -32l21 -7q3 0 8 8.5l5 8.5q17 8 44 31q15 15 41 47q6 11 20 28q6 4 15 13q6 6 6 15q0 2 -4 11.5t-4 11.5q0 13 18 30q8 7 21 7q2 0 12 -3.5t11 -3.5q2 0 13 2t12 2 l79 -3q2 0 12.5 3t11.5 3q19 0 44 -16q2 -3 6 -11z" />
<glyph unicode="l" horiz-adv-x="518" d="M493 8q-1 -7 -8.5 -15.5t-13.5 -7.5q-15 0 -27 5l-14 8q-12 7 -21 9q-8 -10 -11 -11q-35 -10 -34 -10q-15 0 -27.5 6t-24.5 6q-24 1 -48 -5t-26 -6q3 0 -17 8q-6 0 -15 1q-20 0 -32 -3q-32 -8 -40 -8q-14 5 -52 11q-2 0 -17 -1.5t-17 -1.5q3 0 -18 7q0 6 -1.5 17.5 t-1.5 12.5q0 -3 3 24q6 4 20.5 9.5t21.5 5.5l64 -8q25 -3 66 8q4 1 18 17q10 11 10 21q0 8 -4 17.5l-4 9.5q0 2 4 10.5t4 9.5q0 2 -2 4q-11 35 -10 46q5 11 11 26q0 5 2.5 16t7.5 24q0 6 -7 13q-3 4 -7 8q-4 13 -4 19q0 12 8.5 25t8.5 19q0 11 -7 17t-7 19q0 10 8.5 17.5 t8.5 10.5t-5.5 13t-5.5 14q0 2 3 13t3 12t-5 12.5t-5 16.5q0 23 -1 68q-5 16 -39 17q-17 0 -27 -4t-16 -4q-12 0 -24 6t-35 7h-19q-7 0 -23 2q-3 0 -10 9.5t-7 13.5t5 17t7.5 15.5t23.5 12t26 9.5q27 -9 22 -9q2 0 10.5 2.5t9.5 2.5q2 0 11.5 -3t10.5 -3q4 0 42 11 q1 0 10.5 -5t11.5 -5t11 3t10 3q8 0 19 -4q17 -6 44 -10q11 -44 11 -45q0 -2 -2.5 -9.5t-3.5 -11.5t-1 -15q0 -17 2.5 -27l2.5 -10q0 -2 -2.5 -10.5t-2.5 -9.5l-1 -33q0 -1 -4 -9v-37q0 -4 -2.5 -13.5t-2.5 -10.5l-2 -48q2 -8 4 -28q-1 -14 -2 -41q0 -8 1.5 -26t1.5 -20 q0 -1 -3 -14t-3 -15q0 -1 2 -22t2 -23q0 2 -7 -19v-22q0 -15 1 -11v-4q-1 -4 -1 -6q0 -1 2 -6t1 -8q0 -25 35 -46q8 -5 22 -5q9 0 40 9h12q8 0 15.5 -3t13.5 -4q15 2 44 -4q8 -4 14.5 -16.5t6.5 -19.5z" />
<glyph unicode="m" horiz-adv-x="744" d="M694 51q0 -25 -8 -52q-3 -9 -21 -9q-1 0 -10 2t-11 2q-1 0 -10.5 -3t-11.5 -3q-1 0 -9.5 2.5t-10.5 2.5t-19.5 -2.5t-19.5 -2.5q-1 0 -12 2.5t-13 2.5q-1 0 -10.5 -4.5t-11.5 -4.5q-9 0 -21 12q-9 9 -17 21q-6 9 -6 18q0 6 7 14t26 12q23 5 32.5 11t9.5 35q0 45 9 89 q0 16 2 44q9 18 9 26q0 1 -1.5 9.5t-1.5 13.5q1 4 0 12q-3 4 -6 12q1 15 -1 41q0 5 -9 18q0 1 -1 3q2 8 -4 24q-2 4 -12 9t-14 5q-10 0 -28 -10t-20 -14q-4 -12 -16 -33q-2 -2 -11 -7t-13 -8q-7 -8 -19 -23q-3 -2 -8 -7q-4 -8 -14.5 -21t-18.5 -21q3 -11 2 -16q-2 -7 -2 -10 q0 -4 2 -12q0 -2 -1 -7t-1 -7q-1 -6 5 -11l11 -9q7 -9 7 -31q0 -5 -7 -14.5t-7 -10.5t5 -11.5t5 -12.5q0 -1 -4.5 -16t-4.5 -17q0 -18 10 -22q8 0 22 -5q9 -7 24 -20q4 -2 4 -9q0 -4 -13 -18l-16 -16q-16 8 -21 8q-1 0 -15.5 -2.5t-16.5 -2.5q-1 0 -15 1.5t-16 1.5 q-1 0 -9.5 -1.5t-10.5 -1.5q-6 0 -23 15q-3 3 -3 10q0 10 5 17t19.5 13t17.5 9q23 15 23 28q0 1 -3.5 12.5t-4.5 15.5l6 37q0 6 -3 16.5t-3 23.5v13q1 7 6 18q1 5 -1.5 14.5t-2.5 12.5q0 1 2 9.5t2 12.5l1.5 36t0.5 11q0 27 -5 54q-3 17 -36 42q-12 16 -17 16 q-1 0 -3.5 -1.5t-4.5 -1.5t-20 5q-3 -15 -18 -42q-4 -3 -11 -11q-3 -6 -10 -17q-5 -4 -13 -14q-5 -16 -4 -24q-5 0 -8 -4q-5 -14 -7 -51q0 -2 -1 -7t-1 -8q-7 0 -7 -7v-13l-5 -5q0 -6 -2 -8t-6 -7v-6q-1 -4 -1 -6q0 6 7 -19q2 -13 7 -36q2 -6 10.5 -8.5t10.5 -4.5 q4 -6 2 -20q-2 -16 -1 -19q4 -19 14 -34q20 -31 20 -37q0 -9 -37 -30q-15 1 -41 -6t-39 -7q-1 0 -11.5 1t-12.5 1q-1 0 -10.5 -2t-11.5 -2t-9 13q-1 5 -5 16q-1 2 -5 8t-4 8t1.5 5.5t1.5 4.5q8 11 22 14l22 6q5 2 11 19q5 13 2 39q-2 17 4 44l3 6q2 12 2 19q0 2 -2.5 16 t-2.5 15t4 13t5 17q4 20 4 33q0 1 -3.5 18t-4.5 26q-2 3 -5 9q-1 18 -11 56q-4 8 -34.5 22t-30.5 26q0 26 13 30q4 1 13 1q2 0 11.5 -1t10.5 -1q9 0 18.5 5t11.5 5q13 0 28 -6.5t31 -7.5l4 -12q0 -1 -2.5 -9.5t-2.5 -10.5q0 -6 25 -7q1 0 9 7t13.5 10t19.5 10q9 0 26 3 q4 1 10 8t8 7t24 -4t23 -4t6 1h6q8 0 13 -11q2 -5 5.5 -16t6.5 -17q10 3 32 8q11 1 27 13l25 20q9 3 24 9q23 9 26 9q37 0 58 -2q1 0 16 -11q5 -3 8 -10q3 -10 3 -22q3 -17 14 -25q5 -1 12 -8q2 -6 5 -17q7 -28 7 -27l-2 -12.5t-2 -19.5l-5 -5q-4 -12 -4 -19t5.5 -10t7.5 -6 q8 -12 8 -22q0 -2 -4.5 -15.5t-4.5 -15.5q0 -1 4 -8.5t5 -11.5q0 -2 -1 -27q-1 -16 9 -26q0 -3 2.5 -12t1.5 -19q-1 -13 -1 -14q1 -8 12 -28q2 -4 9 -6q11 0 21 -3q8 -13 8 -21z" />
<glyph unicode="n" horiz-adv-x="600" d="M562 44q0 -18 -1 -22q-3 -8 -16 -23t-57 -15q-1 0 -33.5 8t-34.5 8q-14 0 -26.5 -5.5t-22.5 -5.5h-10q-14 16 -14 29q0 19 13 33q7 8 25 16.5t25 15.5q3 3 8 25q1 16 9 44l10 14q0 2 1 14q0 -2 -4 25q-1 4 1 12.5t2 11.5l-3 18q0 1 7 13.5t8 18.5q0 2 -6.5 27t-6.5 27 t3 11t3 10q0 13 -3 22q0 1 -4 5t-4 6q0 18 -14.5 30t-28.5 12h-7q-5 -1 -7 -1q-7 4 -36 8q-11 0 -20 -2q-3 -1 -13 -4q-18 0 -20 -1q-12 -13 -39 -38l-24 -18q-17 -13 -22 -25q0 -5 -3 -15q-5 -5 -12 -16q-1 -12 -7 -33q-6 -5 -17 -16q-12 -17 -12 -25q0 1 2.5 -5.5 t2.5 -18.5q0 -1 -3 -13t-3 -14q0 1 5 -7.5t12 -24.5q-1 4 -1 -21v-34q-2 -3 3 -10q25 -27 53 -27q2 0 6 1h6q17 0 17 -26q-6 -17 -14 -24q-3 -2 -35 -14q-10 -5 -30 -12q-3 -1 -10 -1q-9 0 -20.5 5.5t-26.5 5.5q-23 0 -42.5 -4.5t-24.5 -4.5q-7 1 -12 8t-5 11q3 7 5 22t4 43 q1 3 8 5l20 -7q15 4 20 22q3 10 7 25q1 22 10 49q0 -1 -1 25l-1 35q0 2 3.5 11.5t3.5 10.5q0 -1 -6 23q-1 17 -11 51q-8 15 -2 32q0 8 13 21q-2 4 -10 8q-6 16 -6 17q-5 9 -15 14q-5 3 -42 5q-4 16 -4 14q0 5 5 20q17 9 29 9h6q5 -1 7 -1q1 0 11 5t12 5q-3 0 20 -10 q4 -4 4 -11.5t2.5 -23.5l2.5 -16q0 -8 -3 -23t-3 -11q0 -6 16 -23q4 -1 13 -1q13 0 21 3q2 1 7 10q7 3 9 7q2 9 10 24q17 8 47 32q9 11 22 11q2 0 11.5 -5.5t10.5 -5.5q3 0 15 14t13 15q9 7 14 7t21 -9q2 -1 10 -1q2 0 27 2.5t26 2.5q14 0 26 -9q3 -4 10.5 -9.5t16.5 -17.5 q1 -3 4.5 -8t12.5 -14q5 -5 6 -20t5 -22q-9 -6 -9 -11l-1 -42q8 -13 14 -21q-1 -7 -4 -23q0 -1 2.5 -4.5t2.5 -4.5q-1 10 -1 -31q0 -17 2.5 -28t9.5 -22.5t7 -17.5q0 -2 -4 -12.5t-4 -12.5q0 -1 2 -4.5t3 -5.5q2 -11 20 -26q22 -17 24 -20q8 -12 6 -35z" />
<glyph unicode="o" horiz-adv-x="508" d="M489 218q0 -9 -9 -32q0 -2 -3 -6.5t-4 -7.5t-1 -13v-39q0 -5 -7.5 -13.5t-10.5 -9.5q-5 -7 -16 -21q-5 -2 -14 -9q-2 -6 -10.5 -18.5t-30.5 -34.5l-27 -15q-6 -1 -17 -6q-4 -4 -12 -11q-12 -5 -16 -5q-1 0 -9 1t-10 1q-1 0 -11.5 -2.5t-12.5 -2.5q-6 0 -42 4q-7 3 -21 7 q-7 0 -22 1q-23 6 -25 6t-5 -1h-4q-2 0 -5 1t-4 1q-14 9 -40 28q-15 13 -22 22q-1 4 -5 11q-7 9 -17 13q-4 11 -4.5 33t-2.5 31q-6 4 -14 13q-16 27 -16 40q0 1 3.5 7.5t3.5 9.5q2 15 2 25q-1 23 5 40q1 4 0.5 17t1.5 19q8 16 21 27q8 4 18 15q8 26 8 28l-3 4t-3 8 q0 5 10 17.5t14 14.5q16 5 26 17q3 4 8 13t6.5 11t6.5 2q2 0 6.5 -1t5.5 -1t22.5 8.5t23.5 8.5q1 0 10.5 -5t11.5 -5t10.5 2t9.5 2q5 0 21 -13q11 6 31 6h15q21 -8 63 -28q23 -13 27 -28q2 -9 13 -24q8 -1 22 -6q9 -4 19 -12q4 -4 7 -31q1 -9 6 -22q4 -4 11 -16 q-1 -21 1 -60q0 -3 3 -9t3 -7zM400 173q0 1 -4 12t-3 13q0 16 -11 114q0 3 -2 7q-12 8 -27 20q-5 7 -11 27q-5 17 -12 23q-17 13 -60 13q-18 0 -23 -4q-4 9 -25 9q-14 0 -19 -2q-21 -9 -41 -27q-13 -14 -40 -38q-5 -3 -13 -9q-9 -12 -9 -21q0 -2 1 -6.5t1 -5.5 q-5 -11 -12 -41q0 -5 -4 -14t-4 -10q0 -2 2.5 -8.5t2.5 -7.5q-2 -43 -2 -38q1 -21 14 -35q15 0 21 -11q8 -15 11 -24q0 -14 2 -31q4 -10 26 -15l27 -6q7 -3 13 -8.5t8 -5.5q21 -2 31 -1q13 2 7 2q2 0 13 -2.5t12 -2.5q16 0 22 3t19 12q3 1 7 3q8 1 22 8q18 16 22 25.5 t11 22.5l11 11q4 6 8 17q1 6 4.5 18.5t3.5 13.5z" />
<glyph unicode="p" horiz-adv-x="573" d="M536 201q0 -10 -4 -33q-4 -19 -2 -31q-8 -15 -25 -41l-28 -54q-1 -2 -17 -14q-3 -5 -12 -15q-25 -20 -42 -28q-23 -10 -63 -10q-36 0 -65 9l-21 9q-39 11 -41 11q-7 0 -11 -13q-1 -8 -2 -15q-3 -13 -10 -28q0 -1 1 -5v-6h-1l2 -2q-1 -3 -1 -8v-2q4 -14 13 -40q1 -7 12 -7 q8 -1 24 -4q6 -1 21 -5.5t16 -4.5q-8 0 20 4l41 -15q0 -2 1 -6t1 -5q0 6 -22 -32q-2 0 -11.5 -5.5t-11.5 -5.5q-1 0 -32.5 7.5t-33.5 7.5q-17 0 -28.5 -7t-27.5 -7q-1 0 -12 5t-13 5q-1 0 -13.5 -3t-14.5 -3q-1 0 -5.5 1t-6.5 1q-1 0 -21 -5t-22 -5q-8 0 -33 14q1 -8 1 29 q-3 18 -3 20q0 17 22 17q9 0 19 -4t15 -4q12 0 18 4q39 24 39 56q0 4 -7 28q0 5 -1 13q0 4 -3 11.5t-3 8.5t5 13.5t5 13.5t-2 6.5t-2 7.5q0 8 -1.5 24t-1.5 17t3.5 19.5t3.5 20.5q0 8 -5 15.5t-5 10.5q0 1 4 5t5 6q3 12 3 36q0 1 -2.5 12.5t-2.5 13.5q0 10 12 31 q15 -1 24 -12t9 -22q0 -1 -2.5 -13.5t-2.5 -14.5q0 -7 9 -15t14 -16q4 -14 13 -41q1 -5 13.5 -12t14.5 -9q5 -8 15.5 -22.5t28.5 -14.5q2 0 6 1t5 1t9.5 -4t13.5 -4q20 -2 35 -2q22 0 46 8t30 19q3 7 11 18l25 17.5t13 23.5q0 2 -3 14t-3 13t3.5 17.5t4.5 25.5v44 q0 5 1 14.5t1 10.5q0 15 -10 30q-4 3 -10 11l-5 21q-2 5 -15 15q-16 11 -17.5 13.5t-7.5 18.5q-4 12 -15 16q-7 -1 -21 0q-7 8 -21 18q-18 5 -38 5q-12 0 -52 -13q-11 -3 -28 -15q-2 -8 -10 -23q-13 -10 -34 -35q0 -7 -3 -21q-6 -7 -14 -21q-3 -13 -11 -38q-11 2 -22 2 q1 3 -9 12t-11 11q-3 6 -1 17q0 19 1 32q0 12 0 10q0 11 -22 45q-3 9 -13 21q-17 3 -51 11q0 2 -3 14l-17 22q1 0 7 10q2 1 6.5 3.5t6.5 3.5q14 4 21 4q1 0 11 -6.5t12 -6.5t10.5 5.5t9.5 5.5q20 0 43 -11q16 -8 22 -29q1 -6 2 -18q5 -12 19 -12q11 0 22 12q15 18 18 20 q32 22 46 22q1 0 9 -2t10 -2l19 11t24 11q1 0 13 -5.5t17 -6.5q17 -6 51 -12q14 -1 32 -21l26 -25q12 -6 30 -25q6 -15 14 -75v-35q1 -2 3 -7q0 -8 1 -24q6 -25 6 -29z" />
<glyph unicode="q" horiz-adv-x="526" d="M526 -177q0 -6 -7 -18q-13 3 -28 3q-9 3 -28 -2q-1 0 -3.5 -1t-4.5 -1q-1 0 -7.5 5.5t-9.5 6.5q-12 7 -24 7q-14 0 -22 -4q-4 -1 -13 -6q-5 -3 -13 -3q-11 0 -46 5q-3 3 -5 11q3 4 9.5 10.5t23.5 20.5q9 1 26 5q11 5 15 35q0 55 -7 68q-1 2 0 7q2 7 2 9q4 37 -5 41 q-9 1 -24 -3q-10 -6 -22 -20.5t-14 -15.5q-30 -17 -50 -17q-11 0 -21 5q-1 1 -9.5 8t-10.5 7q-1 0 -18.5 -1.5t-19.5 -1.5q-29 1 -61 45q-9 6 -26 20q-8 9 -20 29q-1 2 -12 29q-2 3 -9 10q-3 7 -9 19q0 1 -10 11q-3 3 -3 10q0 10 2 28q0 2 -1.5 9.5l-2.5 12.5v18 q-1 12 -1 13q4 44 4 46q-1 7 1 23q0 11 4 15q14 14 24 41q4 4 12 14l14 28q9 19 20 24q57 22 101 28q9 3 28 7q-7 -1 36 -1q8 0 27 -8q7 -6 21 -16h9q9 0 12 -1q4 -5 14 -11.5t27 -22.5q12 -2 21 -2q7 -1 22 25q13 7 13 9h9q0 -10 1.5 -31t1.5 -22q0 -6 -5 -34q0 -4 -9 -9 q0 -4 -1.5 -11t-1.5 -8t4 -9t5 -11q2 -13 1 -17q0 -13 -4 -29q-21 -12 -20 -18q1 7 -5 19q-10 11 -27 33q-2 6 -9 17q0 5 -3 15q-1 5 -16 26q-2 7 -8 20q-11 9 -33 29q-4 5 -14 15q-20 14 -30 14q-1 0 -21.5 -2t-22.5 -2q-1 0 -5.5 1t-6.5 1q-1 0 -25 -11q-7 -1 -20 -5 q-3 -2 -21 -33q-8 -17 -27 -48q-3 -1 -10 -7q-8 -13 -10 -39q2 -8 3 -22q-1 -10 -1 -28q0 -11 6.5 -35.5t6.5 -33.5q0 -3 -10 -21q0 1 29 -53q4 -7 2 -21q2 -8 21 -11q19 -10 59 -28q10 -4 21 -4q16 0 22 4q7 8 22 22q11 6 21 12q16 9 21 19q11 0 30 9l6 21t9 39q2 1 4 3 q24 1 31 28q5 23 9 45q1 2 1 8q4 -6 12 -9q13 -20 12 -44q-1 -29 -17 -30v-12q9 -23 9 -20q0 -1 -3 -8.5t-4 -10.5v-33q0 -1 -2 -4.5t-2 -5.5q1 -7 1 -23q-4 -8 -4 -9q-1 -5 5.5 -12t6.5 -8q0 -7 2 -24t2 -18q0 -15 -4 -34t-4 -16q0 -4 3 -19q0 -31 -1 -27q4 -14 24 -20 l27 -4q8 -4 9 -4q5 0 21 7q8 -16 6 -21z" />
<glyph unicode="r" horiz-adv-x="519" d="M507 399q0 -45 -9 -65q-11 -25 -18 -25q-5 0 -13 4.5t-10.5 5.5t-9 2t-9.5 3.5t-12 9.5q-1 1 -4.5 2.5t-4.5 2.5q-11 15 -14 32q-1 3 0 11q2 10 2 14q0 11 -7 18q-4 -3 -11.5 -6t-17.5 -3q-1 0 -6 1h-6q-1 0 -12 -3t-16.5 -3t-16.5 -2t-29 -16q-2 -6 -7 -18 q-14 -13 -36 -42q-3 -15 -13 -51q-3 -5 -7 -13q-7 -24 -7 -49q0 7 4 -37q4 -4 10 -11q1 -2 1 -18v-37q0 -1 -1.5 -5t-1.5 -6q0 -5 4 -14q1 -2 9.5 -8.5t9.5 -6.5t10 2.5t11 2.5t12 -3.5t11 -3.5q2 0 10.5 1.5t9.5 1.5q18 0 42.5 -13t24.5 -28q0 -16 -25 -26q-19 -8 -39 -8 q-7 0 -21 2q-4 0 -13 -1h-10q-1 0 -11.5 3t-12.5 3q-1 0 -20 -3t-21 -3q-1 0 -9.5 1.5t-10.5 1.5q-1 0 -19 -1.5t-20 -1.5q-1 0 -12 2t-13 2q-1 0 -11.5 -2t-12.5 -2q-15 0 -39 9q-7 1 -23 2q-11 22 -11 25q0 18 11 27q8 7 23 7q2 0 10 -2t9 -2q2 0 11.5 5.5t10.5 5.5 q2 0 6.5 -3.5t6.5 -4.5q10 -3 25 -3q6 0 25 7q3 2 10 11.5t7 12.5t-9.5 13.5t-9.5 18.5q0 7 7.5 21t7.5 20q0 2 -6.5 16t-6.5 15q0 2 6.5 12.5t6.5 19.5q0 10 -5 18t-7 16q0 13 -3 41q0 1 -4 15q-3 11 -3 18q0 1 1.5 5.5t1.5 6.5q2 19 0 30q0 1 -15 22q-6 9 -20 27 q-42 -9 -86 -12q-11 7 -11 31q0 25 11 38q10 2 17 2q1 0 12.5 -2.5t13.5 -2.5t11 3t10 3t10.5 -6.5t11.5 -6.5t13 6t12 6q6 0 16 -2q1 0 7 -6q14 -8 37 -28q16 -31 21 -31q15 0 26 8q3 1 10 11l5 5q7 1 24 1q6 0 12 8q3 5 7 10q8 8 14 10q13 5 31 17l18 12q21 -12 25 -12 q2 0 11 1h10q15 0 19 -2q6 -5 20 -12q7 -1 20 -5q2 -1 13.5 -13.5t13.5 -27.5v-29z" />
<glyph unicode="s" horiz-adv-x="550" d="M500 136q0 -39 -3 -52t-7 -17.5l-11 -12.5q-2 -5 -9 -16q-11 -12 -23 -20q-5 -4 -19 -12q-13 -4 -38 -11q-3 -3 -9 -6q-34 -13 -40 -13q-1 0 -9 2.5t-10 2.5q-1 0 -10.5 -3.5t-11.5 -3.5q-39 0 -48 17.5t-29 17.5q-1 0 -11 -1t-12 -1q-7 0 -16 8t-14 8q-16 0 -18 -1 l-18.5 -25t-24.5 -22q-4 -2 -22 -2q-8 29 -27 86q-1 2 -5.5 7.5t-4.5 7.5l5 18q1 19 5 58q0 7 6 14q17 21 22 21q15 0 24 -5q11 -9 32 -28q2 -1 24 -25.5t46 -39.5q13 -8 41 -11q4 0 13 -3t10 -3q2 0 5.5 2t4.5 2q22 6 35 12q2 1 6.5 4.5t6.5 3.5q25 11 29 11q1 0 8.5 -2 t9.5 -2q15 0 25 25q7 18 7 30q0 7 -24 31q-1 1 -19 18q-10 11 -22 12q-37 4 -30 4q-1 0 -23 -2t-24 -2q-28 0 -37 1q-3 0 -11.5 4.5t-9.5 4.5t-9.5 -2.5t-11.5 -3.5l-62 -2q-1 0 -31 43q-5 4 -13 13q-4 5 -10.5 25t-6.5 25q0 2 8 17q5 9 5 21q0 2 -2.5 16t-2.5 15q0 15 9 23 q8 4 26 17q5 8 16 22q7 0 22 3q31 9 24 9l37 -4q8 0 15 5t9 5.5t10 0.5q7 0 19 -5.5t13 -5.5t10 1.5t11 1.5q1 0 6 -3t8 -3q10 0 28 -5l29 -18q10 -6 23 -6q14 0 18 4q1 1 13 19h5q7 -3 17 -11q7 -10 13 -29.5t6 -23.5v-45q0 -1 2.5 -9t2.5 -10q0 -7 -23 -24q-10 10 -20 14 q-7 1 -23 5q-4 2 -7 12t-6 15t-23 21l-27 3q-8 19 -40 21q-9 2 -22.5 8.5t-22.5 6.5q-38 0 -86 -22q-6 -11 -18 -28q-5 -5 -10 -9q-8 -7 -8 -12q0 7 14 -32q0 -4 2 -12q10 -10 18.5 -10t24.5 -2q5 -3 13 -11.5t9 -8.5t8.5 4.5t11.5 5.5q11 -1 45 3q2 0 9.5 5t9.5 5 q8 -6 33 -15q12 0 36 -2.5t35 -6.5q4 -4 12 -11q11 -3 31 -13q20 -14 27 -25q11 -11 19 -41q0 4 4 -12q3 -12 3 -23z" />
<glyph unicode="t" horiz-adv-x="482" d="M469 123q0 -8 -6 -17t-7 -13q0 -21 -12 -59q-10 -16 -22.5 -27t-41.5 -28q-16 -10 -40 -10q-2 0 -24 3q-3 0 -11.5 4t-9.5 4q3 0 -7.5 -1t-32.5 -1q-4 4 -14 9.5l-31 16.5q-12 7 -21 21l-17 61q-1 2 -4 4q-12 24 -12 27q0 6 4 21.5t4 20.5q1 12 1 97q2 6 2 7v34 q0 2 3 5.5t3 4.5q0 2 -3 4.5t-3 3.5v57q0 9 -18 16q-4 3 -14 8q-40 14 -54 14q-8 0 -20 -2q-3 -1 -11 -5t-9 -4t-9.5 2t-12.5 2q-7 16 -7 30q0 16 6 22q13 9 24 9q1 0 10.5 -3t11.5 -3t10 1t9 1q2 0 11.5 -2t10.5 -2q17 0 41 23q5 1 14 7q18 30 20 44q-1 21 -2 63q0 2 1 4.5 t1 3.5q1 13 9 39h8q14 0 16 -4.5t6 -12.5q6 -4 13 -15q6 -22 6 -48q0 -1 -5 -11t-5 -12q0 -1 1.5 -5t1.5 -6v-43q0 -2 6 -17q1 -4 15.5 -11.5t21.5 -7.5q2 0 8.5 3t8.5 4q15 6 25 6q2 0 11.5 -4t10.5 -4q2 0 12 3t11 3q50 0 50 -22q0 -19 -32 -34q-3 -1 -16 -1q-3 0 -13 4 t-20 4t-21 -6t-13 -6q-1 0 -10.5 3t-11.5 3q-33 0 -39 -23q2 8 2 -26q0 -30 -3 -45q-4 -18 -11 -35q-5 -13 -5 -24q0 -14 1 -19q7 -38 4 -51q-1 -3 2 -21.5t8 -53.5q2 -16 24 -41.5t40 -25.5q2 0 10 1.5t9 1.5q2 0 11 -2t11 -2q1 0 3 2q42 17 54 47q1 16 6 47q3 11 21 44 q10 0 28 -7q6 -5 12.5 -21.5t6.5 -25.5z" />
<glyph unicode="u" horiz-adv-x="649" d="M630 13q0 -13 -5 -16q-11 -2 -31.5 -8t-29.5 -6q-2 0 -7.5 2.5t-7.5 2.5q-11 -1 -30 2q-20 7 -42 27q-2 6 -6 15q-5 16 -13.5 20t-22.5 8q-6 -11 -21 -29q-14 -4 -36 -15q-7 -10 -26 -26q-8 0 -24 -1q-4 -1 -14 -4t-11 -3h-7q-6 1 -8 1q-1 0 -21 -3.5t-22 -3.5 q-11 0 -22 9q-31 21 -85 62q-2 1 -7 25l1 82q-4 23 -3 63q1 4 1 28q-6 61 -2 83q0 3 -2.5 17t-2.5 21t-5 20t-21 13q-6 0 -44 -15l-21 19q-7 6 -7 43q0 13 6 20q4 1 13 5q23 15 63 15q7 0 14.5 -2.5t14.5 -3.5q17 -2 45 -10q1 0 14 -17q9 -11 9 -18q0 -2 -6 -27t-6 -26t1 -4 t1 -5q1 -15 7 -42q1 -3 1 -12q0 -2 -4 -11.5t-4 -10.5t5 -31t5 -32q0 -1 -4 -8t-5 -12q-6 -47 -6 -48q0 -29 5 -64q1 -9 36 -46q18 -20 35 -20q8 0 56 10q7 5 22 13q8 2 21 8l7 10q12 11 31 32q1 8 5 21l41 63q1 8 8 21q4 4 9 12q2 6 2 34q0 30 -4 48q1 3 0 11q-4 8 -4 9v38 q0 21 -30 32q-18 5 -49 22q-3 1 -9 5q-10 13 -10 22q0 23 37 23h7q6 -1 7 -1q2 0 13.5 2.5t12.5 2.5q-5 0 50 -1q12 0 31 -7q4 -2 6 -9q5 -28 5 -53q0 5 -5 -20q-1 -5 -1 -17q0 -14 3.5 -32t3.5 -16q0 -1 -1 -5t-1 -6q1 6 1 -24q0 -4 -2 -16l-3 -18q1 -12 0 -35 q-5 -30 -5 -23q0 -1 2 -9.5t2 -12.5q0 -28 -1 -21q3 -21 5 -42q5 -27 13 -42q7 -1 20 -4q20 -10 21 -10q48 1 48 -38z" />
<glyph unicode="v" horiz-adv-x="578" d="M559 451q0 -10 -6 -19q-5 -2 -18 -6q-5 0 -14 -2q-20 0 -24 -4q-15 -13 -41 -46q0 -12 -2 -36q-5 -5 -13 -18q0 -11 -4 -32q0 -1 -9 -20q-7 -14 -7 -23l6 -13q2 -5 2 -13q0 -5 -4 -10t-6 -10.5t-7 -40.5l-10 -20q-1 -10 -5 -30q-3 -5 -7 -16q-5 -22 -9 -43 q-7 -30 -17 -47q-4 -6 -20.5 -17t-21.5 -11q-12 0 -22 7q-11 15 -42 38q-3 5 -8 15q-1 3 -3 12t-4.5 14.5t-6 16.5t-7.5 34q0 2 -12 18q-3 4 -2 19q1 20 0 24q-8 30 -21 36q-3 2 -3.5 13t-1.5 24q0 8 -9 22t-10 21t-5 20q-4 8 -11 24l-6 23q-6 16 -17 23q-3 4 -13 14 q-13 10 -34 10q-1 0 -9.5 -1t-13.5 -1q-20 -5 -15 -5q-14 0 -20.5 12t-6.5 42q0 11 4 21q7 4 23 9q17 2 51 2q1 0 37 -4t38 -4t12 4t11 4t14 -5.5t15 -5.5h35q8 0 18 -25q0 -17 -19 -32q-10 -8 -18.5 -7.5t-23.5 -1.5q-9 -4 -9 -11q0 -3 11 -17q6 -8 5 -27.5t4 -29.5 q0 -7 1 -20q4 -3 9 -8q8 -12 22 -36q10 -24 7 -51q1 -3 14 -21q3 -13 18 -33q8 -2 23 -9q17 15 21 31q6 9 14 26q1 11 7 31q5 5 10 13q3 12 12 34q6 5 13 14q2 4 2 18q-4 12 -4 9q0 3 3 11t3 11q2 7 2 18q0 1 -1.5 18t-1.5 26q-1 19 -16 24q-21 2 -64 10q3 8 13 21 q14 11 28 14q52 10 55 10q9 0 18 -2q2 0 6.5 -2.5t6.5 -2.5t11 2.5t11 2.5t12 -3t11 -3q16 0 27.5 6.5t16.5 6.5q16 0 20 -7q2 -16 2 -27z" />
<glyph unicode="w" horiz-adv-x="685" d="M666 448q0 -10 -14 -23q-5 -1 -13.5 -5.5t-15.5 -16.5q-11 -20 -12 -21q-9 -8 -20 -26q0 -4 -1 -12q-4 -5 -9 -18q-3 -6 -8 -43q-1 -9 -4 -25q-4 -5 -12 -18q1 -13 -1 -39q-1 -6 -15 -36q-2 -4 2 -18q2 -7 -2 -24l-6 -12q0 -11 -3 -30q-2 -8 -9.5 -25t-9.5 -26 q-1 -12 -8 -33q-8 -8 -25 -23q-8 0 -21 5l-10 29l-11 20q-3 10 -6 22t-15 21q-1 3 -3 7q-4 8 -8 23q0 5 -1.5 14t-7.5 27q-10 27 -22.5 36.5t-20.5 9.5q-6 0 -18 -24q-6 -6 -10 -9v-6q-1 -4 -1 -5q0 -3 2 -9q-1 -8 -1 -23l3 -12t2 -9q0 -11 -7 -18.5t-19 -22.5 q-6 -10 -17 -33q-2 -12 -9 -32q-7 -12 -17 -12q-5 0 -15 2q-15 12 -24 29q-16 29 -18 32q-2 8 -7 24l-16 19q-5 25 -20 62q-7 12 -4 25q2 7 2 14q0 10 -5.5 22.5t-6 18t-4.5 17.5q-4 7 -25 19v34q0 -2 -22 31q-2 12 -11 34q-9 15 -31 26q-28 12 -31.5 17t-1.5 9l2 4 q0 6 -2.5 12.5t-2.5 10.5q0 6 8 15q5 4 14 12q32 27 37 27q2 0 10.5 -1t9.5 -1q2 0 11.5 2.5t11.5 2.5q10 0 22 -6l18 -8q8 0 23 -2q10 -3 21 -12q8 -6 17 -25q3 -4 3 -14q0 -2 -5 -10.5t-24 -43.5l-3 -21l-3 -19l3.5 -15.5t3.5 -23.5q0 -43 14 -63q1 -2 4 -22.5l9 -60.5 q6 -6 17 -22q1 -2 -2 -22q-2 -12 12 -12q8 0 17 4q5 3 7.5 9t4.5 11.5t6 18.5q0 2 -2 14t-1 17q1 2 0.5 6t-0.5 6q1 8 8 19l11 15q0 8 12 28q0 4 -4 9q2 10 5 13.5t8 11.5q1 13 4 39q0 8 3 23q8 6 23 19q32 -32 42 -79q6 -8 15 -25q0 -10 5 -30q6 -11 15 -32q1 -3 0 -10 q-2 -8 -2 -11q0 -18 23 -42q2 -7 8 -21q2 3 4.5 10.5t4 9.5t8 5t9.5 7t7 43q1 14 6 28q4 3 8 11q3 13 7 43q0 -7 5 13q0 8 2 21q0 -2 11 22q3 7 3 16q0 25 -3 44q-4 16 -23 32q-8 11 -28 28q-2 3 -2 15q14 17 38 17q29 1 49 14q4 4 30 4q13 0 34 -6q16 -5 33 -20q4 -4 4 -12 z" />
<glyph unicode="x" horiz-adv-x="704" d="M679 49q0 -21 -7.5 -28.5t-24 -15t-20.5 -7.5q-1 0 -9.5 1.5t-10.5 1.5q-1 0 -20.5 -3t-21.5 -3q-1 0 -11.5 3.5t-12.5 3.5q-1 0 -14 -1.5t-15 -1.5q-1 0 -15.5 1.5t-16.5 1.5q-1 0 -11 -2.5t-12 -2.5t-42 25l-6 12q0 32 14 43q11 9 11 18q0 6 -10 33q-9 24 -21 35 q-4 3 -22 9q-21 7 -28 7q-5 0 -19 -11.5t-16 -15.5q-2 -9 -9 -24q-13 -12 -32 -40q-3 -6 -3 -16q0 -11 10.5 -17.5t10.5 -18.5q0 -9 -7 -23q-27 -11 -36 -11q-14 0 -28 12q-13 -13 -21 -16q-39 -16 -64 -16q-10 0 -29.5 8t-21.5 8h-33q-11 9 -22 14q0 -2 -4 10q-4 24 -4 37 q0 11 8 24q24 8 64 8q2 0 11 -4t10 -4t9 6t12 8q10 0 20 1q15 1 22 11q2 8 7 21q11 12 15 43q10 0 21 -2q10 7 21 20q14 0 20 13q-2 8 1 28l23.5 8.5t12.5 16.5q0 -3 -4 13q0 6 -3 18q-7 15 -28 36q-3 5 -10.5 11t-21.5 16q-9 6 -11 11q0 13 -11 31q-11 4 -30 10 q-30 16 -44 16q-1 0 -9 -1.5t-10 -1.5q3 0 -23 6q-7 5 -21 11q-5 5 -5 12q0 8 5 30q0 5 9 14q6 4 13 4q-6 0 17 -4q52 -9 54 -9q1 0 7 1h7t10 -2t9 -2q4 0 13.5 3.5t19.5 3.5q12 0 21 -4.5t11 -4.5q5 0 21 9q23 -23 23 -36q0 -15 -15 -27.5t-15 -16.5q0 -1 9.5 -14.5 t12.5 -18.5q5 -10 9 -20q7 -13 17.5 -20t23.5 -7q15 0 26 5q2 1 15 22l18 26q11 18 11 29q-1 2 0.5 4.5t1.5 3.5q0 8 -11.5 18t-11.5 14q0 -2 13 24l3 1q1 0 6 -1t7 -1t14 3.5t13 3.5t10 -2.5t11 -2.5q-3 0 21 7q11 3 20 3q2 0 11.5 -3t10.5 -3q2 0 11 4.5t10 4.5 q2 0 27.5 -7t36.5 -9q2 -6 2 -16t-2 -18q-32 0 -45 -2q-3 0 -10.5 -4.5t-8.5 -4.5t-9.5 2t-10.5 2q-6 0 -22 -22q-13 -10 -25 -21q-15 -13 -16 -23q-18 -10 -34 -29q-1 -7 -8 -23q-13 -13 -15 -22q-3 -15 -3 -28q0 -36 39 -73q11 -13 32 -36l29 -24l18 -24q1 0 2.5 -1 t1.5 -2q30 -12 65 -12q2 0 10.5 1t9.5 1q19 0 41 -15q5 -3 11 -17v-8z" />
<glyph unicode="y" horiz-adv-x="616" d="M597 453q0 -31 -28 -37q-16 0 -45 -4q-17 -4 -18 -16q1 -19 -2 -57q-3 -14 -21 -41q-7 -3 -15 -14q0 -9 -5 -28q-4 -2 -10 -10q-1 -15 -13 -41q-22 -11 -21 -11q-2 0 -10.5 3t-10.5 3q0 4 -1 13.5t-1 11.5q0 8 2 11q7 9 14 19q12 17 12 22q0 2 -2.5 4t-3.5 4.5t-1 13.5 q0 8 2.5 10.5t7.5 8.5q12 19 16 36q2 8 2 34q0 16 -26 31q-28 11 -28 18q0 19 28 28q10 3 20 3q1 0 11 -4t12 -4t11 5t10 5t11 -3.5t12 -3.5q16 0 28.5 10l12.5 10q2 0 12.5 -6t11.5 -6t6 1h6q14 0 14 -19zM423 163q0 -1 -2 -5.5t-2 -6.5q1 -6 2 -18q-4 -7 -10 -22l-3 -26 q-3 -17 -11 -49q-11 -10 -27 -32q0 -15 -5 -44q-7 -11 -18 -33q-3 -12 -12 -33q-18 -26 -40 -42q-12 -7 -37 -24q-2 -3 -8 -8q-2 -1 -34 -23q-18 -12 -32 -12q-2 0 -20.5 4.5t-19.5 4.5t-18 -2t-19 -2q-12 0 -26 10q-6 4 -31 42q-11 8 -24 26q-1 2 -1 7q0 42 13 58 q6 8 21 21q10 4 29 13.5t15 9.5q16 0 20 -2q24 -12 36 -25t22 -41q1 -7 2 -20q1 -4 4 -11q14 1 40 4q16 3 30 19q9 11 27 43q21 40 21 56l-7 18.5t-8 28.5q1 -8 1 21q0 3 -3 10t-3 10q-5 37 -34 66q-15 15 -40 50q0 19 -7 53q0 1 -19 9q-1 5 -3 12l-16 44v5q0 3 -1 4 q-4 12 -11 18l-13 11q0 1 -4 16q-3 12 -13 15q-19 5 -43 5q-1 0 -9.5 -1.5t-10.5 -1.5q-19 0 -27 18.5t-15 36.5q2 1 21 13q15 9 23 9q2 0 9 -1.5t8 -1.5q2 0 12.5 3.5t11.5 3.5t16 -1.5t17 -1.5t14.5 1.5t13.5 1.5t11 -2t12 -2t10 2t9 2t23 -11q14 -1 41 -4q3 -1 13 -11 q1 -1 1 -5q0 -8 -27 -24t-27 -35q0 -1 8.5 -21.5t11 -31.5t6.5 -31q-1 5 -1 -27q0 -4 7 -7l8 -4q7 -13 12 -93q1 -10 9 -15q7 -1 18.5 -6.5t24.5 -20.5q7 0 21 1q2 3 5 6q3 7 10 17t15 18q12 13 12 20q25 -13 25 -26z" />
<glyph unicode="z" horiz-adv-x="510" d="M472 106q0 -29 -5 -52q-4 -10 -10 -32q-1 -2 -11 -20q-10 5 -22 5q-15 0 -19.5 -3t-13 -10t-9.5 -7t-9.5 6.5t-13.5 7.5q-8 2 -29 2q-27 0 -32.5 -1.5t-12.5 -6.5t-9 -5q5 0 -19 5q-19 4 -39 4q-7 0 -49 -10q-1 0 -8.5 1t-9.5 1q-1 0 -11 -4.5t-12 -4.5q2 0 -8.5 1 t-33.5 1q-25 7 -43 11q-3 6 -5 14l-1 42q-3 5 6 30l32 30q2 2 5.5 8.5t5.5 8.5q7 8 22 21q6 1 15 7l49 50q17 14 43 41q19 -3 32 16q3 7 10.5 17.5t19.5 25.5l31 29q4 9 15 21q2 1 24 6q16 3 16 11q0 31 -4 42q0 6 -16 17q-1 0 -15 1q-13 1 -25 -7l-23 -16q-5 0 -13 -2 q-1 0 -4 -1t-5 -1q-1 0 -10 5.5t-11 5.5q-23 0 -43 -3q-2 0 -9.5 -5.5t-11.5 -6.5q-10 -1 -19 -2q-14 -2 -19.5 -8.5t-6.5 -23.5q-2 -24 -2 -25q-1 -4 -6.5 -11.5t-10.5 -7.5q-7 0 -21 10q-6 -13 -21 -15q-11 33 -11 31q0 5 4.5 14.5t4.5 10.5q1 2 -4.5 21t-5.5 20 q0 11 13 34q19 33 46 33q2 0 11 -1.5t10 -1.5q2 0 10 1h9q12 0 27.5 -3.5l15.5 -3.5q2 0 10 1.5t9 1.5l9.5 -3t23.5 -3q2 0 13 1h12q7 0 18.5 -3.5l11.5 -3.5q1 0 9 2t10 2q1 0 9 -3.5t12 -4.5l42 8q18 -8 23 -9q-4 0 20 3q3 -3 3 -6q5 -14 3 -20q0 -11 -3.5 -19.5 t-4.5 -8.5q-16 -2 -28 -20q-6 -13 -13 -26q1 -3 -1 -11l-32 -31q-2 -8 -9 -21q-23 -20 -58 -57q-6 -13 -20 -37q-10 -5 -26 -21q-1 -7 -5 -21q-5 -8 -21 -18q-10 -7 -21 -14q-5 -4 -12 -32q0 -14 11 -22t27 -8q2 0 5 1h4q9 0 17 -4t10 -4q1 0 10.5 7.5t11.5 7.5t11.5 -7 t11.5 -7q45 0 39 2q3 0 12.5 -6t10.5 -6t8.5 7t11.5 9q8 1 21 3q8 8 6 12q-1 8 6 27q8 23 10 35q0 28 0.5 29t21.5 22q6 -3 15 -15q5 -11 6 -19q4 -13 4 -58z" />
<glyph unicode="{" />
<glyph unicode="|" />
<glyph unicode="}" />
<glyph unicode="~" horiz-adv-x="436" d="M411 310q0 -1 -2 -10t-3 -14v-9q-5 -9 -16 -22q-33 -19 -29 -19l-18 -14.5t-21 -13.5q-5 6 -11 6q-4 0 -11.5 -3t-10.5 -3q-8 0 -23 5.5t-16 5.5q-7 0 -20.5 14.5t-24.5 14.5q1 0 -13.5 10t-21.5 8q-14 4 -31 6q-10 1 -22 5q-2 2 -7.5 -10t-6.5 -12t-6 -5.5t-5.5 -5.5 t-8 -14t-19.5 -14q-6 4 -16.5 22t-10.5 27t7 28q4 9 20 19q6 15 18 31q9 3 29 9q8 1 25 2q2 0 8 2.5t7 2.5t19 -6.5t20 -6.5q-1 0 14.5 -14t22.5 -13q2 0 5.5 1.5t4.5 1.5t4 -8.5t13.5 -8.5t21 -5.5l10.5 -5.5q2 0 16 1.5t15 1.5t9.5 4t9.5 4t2.5 21.5t6.5 20.5q2 -1 15 4 t16 5q5 -1 15 -6q20 -18 20 -40z" />
<glyph unicode="&#xa1;" horiz-adv-x="295" d="M77 59q0 22 7 35q4 10 12 28q6 10 14 31q6 39 5 73q0 2 -2 14.5t-1 18.5l3 21t2 15q0 2 -2.5 16.5t-2.5 15.5q0 6 15 36q25 5 20 5q7 0 22 -11q4 -6 4 -14q0 -24 -1 -21q6 -9 12 -28q-5 -12 -2 -36q8 -12 13 -30q6 -26 9.5 -30.5l10.5 -13.5l4 -23q2 -5 14 -29 q9 -19 9 -30q0 -18 1 -30q0 -12 0 -10q0 -14 -11 -35t-20 -27q-7 -2 -21 -7q-7 -5 -20.5 -11.5t-22.5 -6.5t-20 9q-7 9 -23 24l-20 12q-8 48 -8 39zM51 558q0 7 5.5 13.5t6.5 16.5t7 26q2 2 26 22q4 6 13 15q13 10 19 10q2 0 10 -5t9 -5q2 0 10 2t9 2q18 0 39 -9 q7 -3 19 -12q1 -1 7 -14q3 -8 12 -12q5 -8 6 -18q3 -24 3 -29q0 -15 -9 -35q-4 -3 -11 -11l-8.5 -14t-28.5 -21q-4 -4 -10 -8q-18 -6 -20 -6q-1 0 -7.5 1.5t-8.5 1.5q-1 0 -10 -3t-11 -3q-18 0 -40 11q-9 5 -17 18q-1 2 -4 24q-3 10 -10 26q-6 13 -6 16z" />
<glyph unicode="&#xa2;" horiz-adv-x="655" d="M643 604q0 -16 -10 -27q-4 -3 -11 -11q-2 -9 -9 -24q-11 -9 -28 -29q-3 -12 -13 -33q-6 -7 -26 -15.5t-25 -18.5q0 -8 -1 -24t-15 -26.5t-14 -24.5q0 -1 3 -13.5t3 -14.5q0 -4 -5 -15t-6.5 -12.5t-6 -4t-7 -5.5l-8.5 -10q-8 -3 -21 -14q-4 0 -22 -1q-7 0 -18 -13 q-8 -9 -16 -19q-8 -5 -15 -14q-3 -10 -15 -28q-12 -3 -34 -14q-19 -18 -33 -60q-1 -4 -4 -12q-1 -1 -14 -9q-12 -51 -12 -53q0 -5 5.5 -13.5t7.5 -9.5q10 -2 17 -8q1 -5 4 -6q9 -7 26 -7t26 6q23 12 36 18q5 5 14 12q15 13 28 13h8q7 -1 8 -1q8 0 15 13l8 14q18 11 43 34 q23 -13 23 -22q0 1 -6 -11q-1 -4 -4 -11.5t-13 -19.5q-4 -1 -10 -8q-2 -9 -10 -24q-9 -10 -22 -15q-6 0 -16.5 -4l-30.5 -12q-13 -2 -37 -12q-7 -4 -23 -4q-1 0 -8 1t-9 1q-7 0 -16.5 -4.5t-20.5 -4.5h-11q-14 7 -15 7q-9 -1 -27 1q-6 2 -15 6q-5 2 -15 2q-15 0 -32 -9 q-5 -9 -19 -23l-74 -68q0 -19 -2 -23q-9 -8 -25 -27q-1 -5 -7 -13q-13 -9 -22 -9q-5 0 -21 7q-5 13 -5 30q0 19 5 25q3 1 8 5.5t13 20.5q27 33 43 59q11 8 31 27q8 9 8 36q0 17 -19 47q-2 14 -9 37l-11 17q-7 16 -7 49q0 28 7 43q5 5 12 15q0 11 1 34q1 29 8 42.5l21 42.5 l21 22q1 1 4.5 2.5t4.5 2.5q5 7 14 16q13 4 41 28q6 7 21 11q8 0 20 3q4 2 21 21q18 0 49 3q25 4 18 4q23 0 42 -3q6 -3 19 -7q19 -7 64 -7q5 0 21 26l35 36q19 20 24 42q1 5 5 15l11 11q2 7 8 18l22 26q8 8 22 8q5 0 15.5 -5.5t11.5 -7.5q5 -7 5 -16zM378 384q0 10 -14 19 t-26 9q-10 0 -34 -10q-4 -2 -12 -5q-16 -2 -40 -9q-7 -8 -22 -21q-11 -1 -32 -7q-5 -2 -6 -5q-1 -14 -4 -42q-14 -9 -36 -32q-9 -15 -9 -43q1 -7 0 -21q-1 -4 -5 -15.5t-4 -15.5q0 -6 9 -19l9 -13q0 -7 7 -24q4 -6 10 -9q14 -4 19 -4q9 0 24 12q6 12 21 31q6 5 33 16 q3 4 3 17t5 18q12 8 32 24l25 34l13 15q12 16 21 37t9 44q0 3 2 10.5t2 8.5z" />
<glyph unicode="&#xa3;" horiz-adv-x="519" d="M109 408q10 -1 26 -4q1 0 6.5 3t8.5 3q4 0 6 -4l38 2q16 -6 25 -6t23 5q4 2 13 2q6 -4 14 -8q1 -1 1 -2v-1q1 -1 9 -3q7 -5 13 -20v-3q1 -9 4 -9q-1 -1 -1 -4l-16 -7h-6q-20 -3 -24 -5q-4 -4 -13 0q-2 0 -18 4q-4 1 -8 1t-38 -5l-49 2q1 -34 0 -39q-3 -12 -3 -19 q0 -36 4 -49q3 -4 0 -3l-4 -14q-12 -34 0 -49q17 -23 53 -15q9 2 10 2q28 -15 89 -44q6 -3 19 -4q2 0 10 -4q15 -10 25 -10q9 0 23 8q3 2 7 1q32 -1 45.5 5t46.5 37q19 12 26 30q4 2 8 2l3 -4q2 -2 10 -2q5 -6 14 -39q-1 -1 -1 -4q-4 -11 -4 -21q-3 -35 -31 -73 q-4 -3 -11.5 -10.5t-22.5 -20.5q-15 -2 -44 -9q-12 -3 -27 -5q-40 12 -64 16q-10 2 -33 14q-7 5 -24 12q-68 24 -91 24q-27 0 -52 -16l-47 -34q-5 -4 -7 -4q-8 0 -11 1q1 -1 3 -1l-8 8l-2.5 7.5t-2.5 12.5q-4 32 -2 40q4 22 4 27t-3 20l-2 9q2 10 7 33q14 6 26 35q9 15 9 30 q0 -6 2 79q1 -3 3 7q3 19 3 34q0 19 -3 30q-2 2 -2 4l2 5q2 10 2 18l4 42q0 1 6 12t6 13q0 -1 10 -17t10 -33q0 -8 -2 -16zM301 667q-12 8 -36 8q-7 0 -29 -9q-14 -6 -39 -9q-35 -5 -53 -37q-8 -6 -23 -23v-11q-5 -11 -5 -18q0 -3 -2.5 -4t-2.5 -2l-3 -6l-1 -36q0 -2 -6 -16 q-2 -6 -5 -14q-2 -3 -6 7t-4.5 8.5t-4 32t-4.5 50.5q5 18 18 48q10 16 39 45q6 6 33 17h9q10 4 26 9q20 4 37 4q1 0 4 -1l28 -5q9 -2 13 -2q5 0 15 2l5 1h1h-2q6 0 20 -9q8 -4 22 -8l4 -1q4 -2 11 -9q4 -10 7 -10q2 0 4.5 3.5t3.5 3.5q3 0 3 -3q2 -8 8 -19.5l17 -32.5 q1 -3 1 -25q0 -30 -2.5 -42.5t-12.5 -29.5q-2 -5 -16 -12t-19 -7q-13 0 -35 14q-10 5 -17 23q-11 28 -11 29q0 15 2.5 17.5t18.5 43.5q7 -4 21 -11q13 24 13 32q0 7 -14 7q-10 0 -20 -3q-5 4 -11 10z" />
<glyph unicode="&#xa4;" horiz-adv-x="574" d="M533 432q0 -4 -6 -16q-1 -4 -4.5 -10.5t-12.5 -13.5q-5 9 -12 24q-4 5 -10 14q-1 19 -7 61q-1 3 -14 21q-2 3 -5 8t-16 12q0 2 -2 6t-3 5q-1 8 -5 22q-4 7 -16 10l-17 4l-26 17q-4 7 -16 17q-8 0 -20 3t-12 20q0 16 15 16q10 0 16 -2q3 -4 11 -9q12 -2 33 -10l15 -22 q2 -2 27 -12q9 -3 13 -11q3 -4 8 -14q6 3 15.5 16.5t7.5 21.5t0 18q10 6 20 16q12 -12 14 -25q9 -56 9 -71q0 -7 -2 -11.5t-6 -14.5q0 -5 3 -10q-3 1 -3 -3q0 -1 4 -38t4 -39zM402 251l-5 -10v-4q-5 -3 -16 -9q-20 -4 -51 -4q3 0 -17 1q-11 6 -22 6q-8 0 -27 -3.5t-20 -3.5 q-7 0 -22 3t-26 3q-33 0 -53 -6l-9 3q-1 -15 1 -22q10 -10 20 -29q1 -17 7 -48q1 -1 4.5 -4t4.5 -4q12 -20 25 -30q26 -20 48 -31q11 -4 32 -13q29 -14 41 -14q1 0 9 5.5t14 7.5q16 2 48 15q13 12 37 32q17 10 25 30q4 10 15 21q4 3 11 9q4 14 10 33q2 7 8 11q34 16 37 16 q2 0 10.5 -6t9.5 -8q3 -6 3 -16q0 -12 -18 -58q-1 -8 -4 -24q0 3 -10 -10q-3 -8 -13 -22t-14.5 -19.5l-11.5 -13.5q-17 -25 -36 -37q-10 0 -30 -4q-31 -16 -38 -16h-24q-2 0 -7 -1t-6 -1q-2 0 -22.5 5.5t-21.5 5.5t-9 -1.5t-10 -1.5q-1 0 -9.5 7.5t-12.5 8.5q-8 -2 -23 2 q-12 8 -25 26q-9 12 -19 12q-1 0 -8 -1.5t-9 -1.5q-6 0 -12 15q-2 8 -5 16l-7 7q-2 6 -7 18q-5 4 -15 13q-1 4 -6 9.5t-13 16.5t-12 32q-4 19 3 38q4 11 -5 25q0 1 -1 1h-12q-18 -1 -23.5 0.5t-19.5 9.5q-8 7 -10 11q3 14 6.5 18t20.5 8q10 0 25 1q1 41 4 56q5 4 10 12l1 3 h-18q-22 -1 -28 0q-7 2 -20 10q-8 5 -11 10q2 14 8 20q5 3 22 7q7 0 20 1q2 0 29 3q-1 6 -1 13q0 41 11 69q9 4 15 15q3 7 6 13q7 4 16 14q1 6 5 17q6 17 22 50q26 11 24 11q1 0 18 -5q8 7 12.5 18l8.5 21q12 8 31 8q26 0 38 -3q7 -7 7 -11q0 -20 -12.5 -24t-25.5 -7 q-20 -8 -33 -22q-6 -1 -18 -5q-16 -5 -23 -21q-1 -7 -6 -19q-1 -2 -7 -6t-8 -7q-6 -9 -9 -16q-1 -10 -6 -30l-12 -30q-5 -5 -15 -17q-3 -5 0 -24q8 1 10 1q1 0 21 -2.5t22 -2.5q16 0 41 1q1 0 5 1h6l9 -1t18 -1q14 0 21.5 1l7.5 1q2 0 10.5 -1t9.5 -1q2 0 14.5 1t13.5 1 l29 -2h21q6 0 16 -2q22 -8 22 -25q-2 -3 -5 -9v-4q-5 -4 -18 -9q-20 -4 -56 -4q-8 0 -19 1q-12 5 -24 5q-9 0 -30.5 -3t-22.5 -3q-7 0 -23.5 2.5t-29.5 2.5q-27 0 -58 -5q-6 1 -18 4l-1 -4q8 -17 1 -37q-1 -3 -6.5 -8.5t-5.5 -6.5q0 -3 4 -11h7q2 0 8 1.5t7 1.5t19 -3t20 -3 q22 0 37 1t10 1q1 0 8.5 -1t16.5 -1q12 0 18.5 1t7.5 1h9q8 -1 9 -1h13q11 1 12 1q8 0 18 -1t27 -1q8 0 15 -3q20 -6 20 -23z" />
<glyph unicode="&#xa5;" horiz-adv-x="710" d="M555 203l-2 -4.5t-3 -6.5v-4q-4 -4 -16 -11q-20 -5 -51 -5q3 0 -17 2q-11 6 -22 6q-5 0 -16 -1q0 -19 -3.5 -51.5t-3.5 -30.5t4 -18q1 -7 6 -22q5 -8 12 -9.5t12 -3t8 -1.5q2 0 10.5 2.5t9.5 2.5q2 0 12 -4t11 -4q2 0 2.5 1t1.5 1q10 0 17 -2q12 -3 23 -11q3 -1 7 -10 q-2 -2 -6 -7.5t-5 -6.5q-9 -11 -21 -11q-2 0 -10 2t-10 2q-1 0 -11 -3t-12 -3q-1 0 -8.5 1t-10.5 1l-42 -10q-7 3 -22 7q-51 7 -46 7q-8 0 -19 -2q-2 0 -9.5 -4t-9.5 -4h-35q-1 0 -14 -3t-15 -3t-6.5 4t-6.5 5q-33 14 -52 11v15q3 -1 10 7t11 10q8 1 23 5q3 1 11.5 6t9.5 5 q9 0 25.5 -8l16.5 -8q-5 0 12 8q10 3 21 7.5t17 14.5q12 21 10 41q0 1 -2 18t-2 19v37q-37 -1 -53 -7q-26 6 -23 6h-19q-18 -1 -20 -1q-21 0 -24.5 1t-18.5 11q-10 9 -10 12q3 17 6.5 21.5t20.5 9.5h18q10 2 29 5q1 0 25 1q2 0 8 1t7 1t19.5 -3t19.5 -3h14q-2 26 -6 38 q-29 -2 -46 -6q-2 0 -8.5 3t-14.5 3q-1 0 -19 -1t-20 -1q-22 0 -25 1q-7 2 -17.5 10.5t-10.5 12.5q0 14 7 23q5 4 20 9h18q10 2 29 5q1 0 25 1q2 0 8 1t7 1q8 0 0 19q-8 16 -24 44q-3 4 -5 11.5t-19 18.5q-3 10 -10 31q0 5 -2 12q-4 4 -10 9q-14 19 -22 36q-2 8 -9 23 l-33 27q-6 9 -22 24q-8 0 -22 3q-30 9 -37 9t-25 -15q-13 7 -22 8q0 3 -1 8.5t-1 7.5q0 16 2 22q0 3 8.5 17t14.5 14q2 0 21 -5.5t20 -5.5t11.5 5t12.5 5h7q6 -1 7 -1q2 0 13 2t13 2t21 -5t20 -5t22 7q1 0 11 -3.5t12 -3.5q5 0 13 2q16 0 28 -6q8 -13 8 -21q0 -9 -13 -22 q-10 -4 -21 -8q-19 -8 -19 -14l5 -13.5t7 -21.5q-1 -9 1 -26q14 -38 48 -91q14 -13 32 -46q1 -11 2 -35q3 -12 17 -19q1 -2 4 -6q4 1 11.5 2t10.5 1q1 0 8 -2q13 8 21 41q3 10 6 28q5 1 7 3q30 37 32 62q5 6 10 18.5l14 36.5l7 7q4 4 6 12t8 25q1 1 5.5 6t4.5 10q0 4 -5 11 q-7 3 -19 10q-17 6 -51 22v13q22 4 56 12q1 0 4 1t5 1t10.5 -2t9.5 -2q2 0 12 3t11 3q2 0 18.5 -1.5t17.5 -1.5q2 0 14 1.5t13 1.5q2 0 10 -1t9 -1q2 0 11 5.5t15 5.5q27 0 28 -19q0 -8 -10 -22q-17 -3 -42 -8q3 0 -19 -11q-14 -4 -36 -18q-9 -15 -28 -44q-5 -3 -13 -12 q-2 -9 -9 -27q-4 -3 -10 -11t-9 -23q-3 -18 -5 -23q-5 -14 -18 -43q-7 -2 -14 -6.5t-13 -15.5q-1 -2 -2.5 -9t-3.5 -10q-6 -17 -5 -28q4 0 8 -1q2 0 13 1t12 1l26 -2h19q6 -1 15 -3q20 -8 20 -28q0 -1 -2 -5l-3 -6v-5q-4 -4 -16 -10q-18 -5 -51 -5q-7 0 -17 2q-11 6 -22 6 h-2q-9 -20 -11 -37h1q2 0 9.5 -1t8.5 -1h13q11 1 12 1q8 0 18 -1t27 -1q8 0 15 -3q20 -8 20 -28z" />
<glyph unicode="&#xa6;" />
<glyph unicode="&#xa7;" />
<glyph unicode="&#xa8;" horiz-adv-x="295" d="M53 759q19 -2 30 -4q6 -2 8 -9q1 -1 1.5 -2.5t8.5 -8.5q5 -20 5 -35q0 -14 -8 -27l-13 -13q-7 -6 -32 -6q-6 0 -32 7q-3 3 -20 36q-1 2 0 8q0 12 12 18q-4 8 -4 12q0 3 7 9.5t11.5 7t12.5 1.5q3 1 7.5 3.5t5.5 2.5zM247 766q8 0 17.5 -5.5t15.5 -13.5q14 -19 14 -24 q0 -1 -1.5 -6t-1.5 -6v-6.5v-6.5q0 -25 -17 -37q-3 -1 -7 -3.5t-9.5 -7t-14.5 -4.5q-18 0 -42 15l-12 12q-9 16 -9 26q2 4 5 12q0 9 3 24.5t19 19.5q4 4 13 9q14 2 27 2z" />
<glyph unicode="&#xa9;" horiz-adv-x="761" d="M665 256q0 -1 0 50q0 5 -3 20.5t-3 24.5t3 16v24q1 9 -6 26l-7 17q0 15 -14 40q0 4 -1 13t-6 27q-6 6 -17 22q0 8 -3 21q-1 2 -16 21q-6 11 -25 30l-38 20q-19 12 -38 15h-24q-1 0 -4.5 2.5t-5.5 2.5h-6q-4 -1 -5 -1q-8 0 -13.5 3t-9 4t-13.5 1q-18 0 -78 -5q-6 -3 -8 -3 q-8 0 -8 9v3q8 6 12 13l5 2q1 0 6 -1.5t7 -1.5q1 0 12 3t16 4q9 0 28 1q23 5 33 5q14 0 42 -4l3 -3t5 -3t12.5 2.5t11.5 2.5q9 0 19.5 -5t42.5 -16q2 -1 28 -18q23 -14 34 -13.5t18 -15.5q1 -1 1.5 -5.5t1.5 -6.5l22 -30q3 -6 11 -19q5 -4 13 -13q1 -14 7 -44q1 -14 6 -41 l10 -42q3 -13 3 -23q0 5 -5 -20l-3 -29v-24q5 -41 -1 -52t-6 -17q0 -3 3 -12.5t3 -20.5v-35q2 -2 -4 -16.5t-6 -15.5q0 -33 -3 -43l-28 -35q0 -2 -2.5 -6.5t-10.5 -14.5q-1 -4 -7 -12q-1 0 -4 -0.5t-4 -1.5l-9 -3q-1 0 -2 1h-2t-8 -8q-9 -10 -12 -13q-7 -6 -20 -10 q-8 0 -23 -3l-62 -13q-5 -1 -14 -7t-10 -6t-5.5 1t-6.5 1q-13 0 -21.5 -4l-8.5 -4q-1 0 -19 7q-5 2 -17 2q-1 0 -13.5 -3.5t-14.5 -3.5h-42q-1 0 -10 -2t-11 -2h-38q-1 0 -15 8.5t-20 11.5q-11 2 -33 7q-48 14 -84 50q-2 2 -4.5 8t-4.5 8l-18 15q-5 7 -16 20q-9 10 -12 38 q-5 38 -5 39q-5 7 -11 21q-11 42 -11 38q0 2 3 13t3 12q0 11 -7 19t-7 23q0 1 4 20.5t5 28.5q0 -6 5 14q0 16 -1 12q3 27 13 77l4 4t3 4q4 16 14 47q4 10 21 27.5t20 25.5l11 7q3 5 8 11l8 8l5 10q10 4 28 13q16 13 46 35q35 21 49 21q2 0 3 -1t3 -1q-3 0 10 10q9 -7 9 -13 q0 -9 -10 -9q-1 0 -2 1t-3 1q4 0 -8 -7q-9 -3 -28 -12q-2 -3 -8 -9q-4 -1 -11 -3q-9 -6 -59 -45q-2 -2 -6.5 -7.5t-6 -9l-3.5 -8.5q-10 -12 -26 -37q-2 -12 -11 -35q-4 -3 -10 -11q-11 -17 -11 -23q0 -2 5 -13t5 -27q0 -1 -3 -22.5t-3 -23.5q0 -51 11 -92l27 -57 q3 -13 12 -37q7 -6 19 -19q1 -1 4 -18q3 -13 11.5 -16.5t25.5 -14.5q5 -7 18 -20q8 -2 22 -7q15 -9 41 -22q5 -2 21 -4q10 0 32 -5q7 -4 10 -4t12 -0.5t12 -1t10.5 -3t9.5 -2.5q38 0 100 16q15 7 44 18h11h7q5 -1 6 -1l8.5 8t28.5 17q16 7 16 14q0 1 12 33.5t12 34.5t16 86z M601 236q0 -17 -3 -22q-11 -16 -34 -47q-3 -1 -9 -5q-2 -4 -3 -19q0 -10 -9 -17t-44 -20q-7 0 -21 -3q-40 -20 -63 -20q-6 0 -13.5 5t-8.5 5t-20 -3t-21 -3q-1 0 -10.5 3t-11.5 3q-1 0 -7 -1t-8 -1q-19 0 -28 6t-21 23q-7 10 -43 38q-1 1 -5 9l-16 11q-4 3 -9.5 20t-5.5 26 q0 6 5.5 13.5t5.5 8.5q0 7 -13 21t-16 19q-2 11 -9 34q4 6 1 10q-5 14 -5 29q0 18 4 25q6 3 12 18q0 8 1 23q2 6 8 15q7 5 18 27q5 3 14 12l10 23q9 12 16 18q15 16 48 37q10 1 42 21q8 6 21 6q2 0 11 -4.5t11 -4.5t11 5t11 5t9.5 -1t9.5 -1t12 2t12 2q14 0 24 -7.5t17 -7.5 q2 0 9.5 1.5t8.5 1.5q11 0 23 -9q3 -6 10 -15l33 -31l8 -14q2 -3 14 -15q6 -10 6 -38q0 -16 -2 -38q-1 -3 -4 -7q-6 -7 -21 -20q-2 -1 -17 -1l-48 12q-1 23 -6 66q0 9 -5 25q-5 8 -13.5 13t-16.5 9l-9 11.5t-12 6.5q-32 0 -43 -8q-6 10 -39 10q-22 0 -26 -8 q-14 -26 -16 -27.5t-9 -4.5q-16 -12 -24.5 -22l-22.5 -27q-3 -10 -10 -28q-3 -3 -8 -11q0 -12 -3 -34q0 -8 -5 -24.5t-5 -17.5q0 -35 21 -59q1 -4 2 -11q4 -15 23 -50l23 -18q11 -14 35 -31q9 0 28 -3q4 -1 21 -10q13 -7 21 -7q27 0 57 25q8 1 23 5.5t27 12.5q5 1 8 10 q0 8 5 21q6 3 13 12q1 7 5 22q2 4 13.5 17.5t14.5 13.5q12 0 18.5 -5t17.5 -26v-11z" />
<glyph unicode="&#xaa;" />
<glyph unicode="&#xab;" />
<glyph unicode="&#xac;" />
<glyph unicode="&#xad;" />
<glyph unicode="&#x2212;" />
<glyph unicode="&#xae;" horiz-adv-x="761" d="M390 121q0 -5 -6.5 -6.5t-19.5 -3.5q-35 -7 -45 -7q-1 0 -15 3t-15 3q-5 0 -19 -4.5t-25 -4.5q-7 0 -14 5q-2 2 -13 -9q-1 -12 6 -28q8 -2 22 -7q15 -9 41 -22q5 -2 21 -4q10 0 32 -5q7 -4 9 -4q4 0 18 4.5t17 3.5q3 0 10.5 -2.5t9.5 -2.5q38 0 100 16q15 7 44 18h11h7 q5 -1 6 -1l8.5 8t23.5 15t18 9q-5 1 -15 2l-18 3q-20 0 -59 5q-5 0 -15 12.5t-14 21.5q-2 4 -2 20q0 6 3 14t3 11q0 1 -2.5 16t-2.5 16q0 5 -1 14v12q0 5 -8 19q-2 9 -15 24q3 8 -3 22q-6 2 -18 7q-10 11 -30 23l-46 -11q-33 3 -28 3t-15 -6h-8.5h-8.5q-5 -2 -5 -4 q-6 -10 -8 -26q1 -6 1 -15q-1 -3 -8 -9t-7 -11q0 -1 9.5 -19t9.5 -20q0 -15 -12 -36q-20 6 -35 3v22l-3 11q0 -5 3 13q0 1 -1 5t-1 5q0 4 4 9.5l4 5.5q0 -7 -6 12q0 6 -2 19q-3 10 -3 8q0 7 5 15q2 2 8 7q-2 7 -8 17v5q0 4 3 13q2 5 2 15q0 3 -2 12t-1 14q1 1 5.5 8t4.5 12 q0 2 -3.5 16t-3.5 15q0 5 -1.5 10.5l-1.5 5.5l2 11q0 3 -4 5q2 44 -20 44q-1 0 -8 -3.5t-8 -3.5q-10 0 -21 18q-7 9 -14 12q2 3 3 8q4 1 10 5t7 11q5 0 16 1h12h35q1 0 12.5 3t12.5 3t9.5 -2t9.5 -2t7 1.5t8 1.5q1 0 6 -1.5t7 -2.5q13 -2 16 -2q1 0 8 3t9 3q1 0 27.5 -3 t27.5 -3h8q8 1 10 1q1 0 10.5 -2.5t10.5 -2.5h4q4 1 5 1q9 0 15 -6l18 -18q5 0 15 -3q4 -2 13 -18.5t9 -23.5q0 -9 -5 -13q-5 1 -18 4q-1 2 -9 13q-3 7 -13 19q-15 11 -37 11q-1 0 -4 -1h-5q1 0 -23 8q-4 2 -19 2q-17 0 -26 -2q-2 -1 -8 -5.5t-7 -4.5t-7.5 3.5t-9.5 3.5 q-6 2 -12 2q-8 0 -24 -6q-20 -7 -21 -15q0 -1 5 -7.5t4 -9.5q-3 -4 -8.5 -10.5t-5.5 -19.5v-9q12 -25 12 -21q0 -16 1 -14q-2 -4 -2 -10.5t-4.5 -13.5t-3.5 -14l-2 -8q-2 -4 6.5 -13t11.5 -9q1 0 7 3t7 3t16.5 -2t16.5 -2h5q4 1 5 1t10 -1.5t10 -1.5h6.5h7.5q1 0 8 -1t9 -1 q13 0 20.5 6.5t8.5 6.5h4q3 -1 4 -1q6 0 14 6t15.5 8t13.5 14t7.5 14t17.5 12q12 7 13 15q-1 7 0 19q2 2 6 7v8q3 10 9 10q9 0 16 -18q6 -11 6 -16q0 -1 -1 -6.5t-2 -7.5q1 -7 -3 -23q-4 -2 -10 -9q-6 -12 -20 -35q-5 -6 -16 -9q-14 -3 -14 -4q-8 -3 -12 -12q-1 -2 -6 -7v-3 q0 5 8 -16q0 -2 6.5 -9.5t8 -11t5.5 -4.5q0 -2 3.5 -6t11.5 -7q-5 -6 -8 -19q1 -8 8 -25q2 -2 4 -6.5t2 -9.5t-1 -10q2 -5 6 -13q8 -20 27 -28q4 -3 12 -8q14 -7 28 -8q5 -2 6.5 -2.5t12.5 -4.5q10 27 10 29t16 86q0 -1 0 50q0 5 -3 20.5t-3 24.5t3 16v24q1 9 -6 26l-7 17 q0 15 -14 40q0 4 -1 13t-6 27q-6 6 -17 22q0 8 -3 21q-1 2 -16 21q-6 11 -25 30l-38 20q-19 12 -38 15h-24q-1 0 -4.5 2.5t-5.5 2.5h-6q-4 -1 -5 -1q-8 0 -13.5 3t-9 4t-13.5 1q-18 0 -78 -5q-6 -3 -8 -3q-8 0 -8 9v3q8 6 12 13l5 2q1 0 6 -1.5t7 -1.5q1 0 12 3t16 4 q9 0 28 1q23 5 33 5q14 0 42 -4l3 -3t5 -3t12.5 2.5t11.5 2.5q9 0 19.5 -5t42.5 -16q2 -1 28 -18q23 -14 34 -13.5t18 -15.5q1 -1 1.5 -5.5t1.5 -6.5l22 -30q3 -6 11 -19q5 -4 13 -13q1 -14 7 -44q1 -14 6 -41l10 -42q3 -13 3 -23q0 5 -5 -20l-3 -29v-24q5 -41 -1 -52 t-6 -17q0 -3 3 -12.5t3 -20.5v-35q2 -2 -4 -16.5t-6 -15.5q0 -33 -3 -43l-28 -35q0 -2 -2.5 -6.5t-10.5 -14.5q-1 -4 -7 -12q-1 0 -4 -0.5t-4 -1.5l-9 -3q-1 0 -2 1h-2t-8 -8q-9 -10 -12 -13q-7 -6 -20 -10q-8 0 -23 -3l-62 -13q-5 -1 -14 -7t-10 -6t-5.5 1t-6.5 1 q-13 0 -21.5 -4l-8.5 -4q-1 0 -19 7q-5 2 -17 2q-1 0 -13.5 1.5t-14.5 1.5h-42q-1 0 -10 -2t-11 -2h-38q-1 0 -15 8.5t-20 11.5q-11 2 -33.5 8t-41.5 18q-3 2 -22 21q-2 2 -4.5 8t-4.5 8l-18 15q-5 7 -16 20q-21 23 -37 77q-5 7 -11 21q-11 42 -11 38q0 2 3 13t3 12 q0 11 -7 19t-7 23q0 1 4 20.5t5 28.5q0 -6 5 14q0 16 -1 12q3 27 13 77l4 4t3 4q4 16 14 47q4 10 21 27.5t20 25.5l11 7q3 5 8 11l8 8l5 10q10 4 28 13q16 13 46 35q35 21 49 21q2 0 3 -1t3 -1q-3 0 10 10q9 -7 9 -13q0 -9 -10 -9q-1 0 -2 1t-3 1q4 0 -8 -7q-9 -3 -28 -12 q-2 -3 -8 -9q-4 -1 -11 -3q-9 -6 -59 -45q-2 -2 -6.5 -7.5t-6 -9l-3.5 -8.5q-10 -12 -26 -37q-2 -12 -11 -35q-4 -3 -10 -11q-11 -17 -11 -23q0 -2 5 -13t5 -27q0 -1 -3 -22.5t-3 -23.5q0 -8 -11 -44.5t-8 -47.5l27 -57q3 -13 12 -37q7 -6 19 -19q0 -1 4 -19q2 -14 12 -17 l31 -11q7 9 6 19q1 0 -4 2v7q7 7 23 17q6 2 11 2q2 0 8 -1.5t7 -1.5q4 0 9 5.5t5 14.5t7 14h25q1 -5 14.5 -8.5t15.5 -5.5q5 -6 15 -14q4 -1 18 -1h5h5q7 0 19 -6q3 -2 5 -7q4 -8 4 -16z" />
<glyph unicode="&#xaf;" />
<glyph unicode="&#x2c9;" />
<glyph unicode="&#xb0;" />
<glyph unicode="&#xb1;" />
<glyph unicode="&#xb2;" />
<glyph unicode="&#xb3;" />
<glyph unicode="&#xb4;" horiz-adv-x="358" d="M355 789q0 -18 -10 -36t-28 -26q0 2 -32 -11q-10 -5 -23.5 -8.5t-29.5 -8.5q-5 -1 -16 -4.5t-15 -3.5q-29 0 -56 -9.5t-54 -20.5q-13 -4 -34 -13q-3 -1 -6 -4q-4 -2 -28 0q-10 19 -15 19t-4 -3q-3 7 0 16q3 6 11 8t15 4l68 29q11 4 23 11l23.5 8t31.5 13q5 2 22 17 q4 0 14 8q12 12 15 13q9 10 30 21q4 1 20 10q13 8 18 5q9 3 22 0q10 -5 26 -16q2 -3 5.5 -6.5t6.5 -11.5z" />
<glyph unicode="&#xb5;" />
<glyph unicode="&#x3bc;" />
<glyph unicode="&#xb6;" />
<glyph unicode="&#xb7;" horiz-adv-x="309" d="M265 374q0 -2 -2.5 -19t-1.5 -22q0 -13 -2 -17q-3 -8 -15 -17q-17 -14 -20 -17q-6 -10 -23 -29q0 -1 -10 -1q-39 0 -63 6q-6 4 -17 10q-8 1 -24 7q-6 3 -19 22q-17 25 -17 33q0 2 3 16.5t3 15.5q0 2 -3 14t-3 13q0 11 22 34q19 20 33 28q7 3 20 7q40 7 38 7q16 0 37 -10 q7 -3 21 -12q43 -35 43 -69z" />
<glyph unicode="&#x2219;" horiz-adv-x="309" d="M265 374q0 -2 -2.5 -19t-1.5 -22q0 -13 -2 -17q-3 -8 -15 -17q-17 -14 -20 -17q-6 -10 -23 -29q0 -1 -10 -1q-39 0 -63 6q-6 4 -17 10q-8 1 -24 7q-6 3 -19 22q-17 25 -17 33q0 2 3 16.5t3 15.5q0 2 -3 14t-3 13q0 11 22 34q19 20 33 28q7 3 20 7q40 7 38 7q16 0 37 -10 q7 -3 21 -12q43 -35 43 -69z" />
<glyph unicode="&#xb8;" horiz-adv-x="320" d="M308 -128l-3 -7q-2 -6 -5 -16q-1 -6 -3 -6l-3 1q-5 0 -7 -5h-1l-3 -4q-6 -6 -10 -13l-3 -1l-7 -4q-10 -7 -12.5 -11t-7.5 -11q-12 -13 -47 -16q-21 -3 -62 -7q-3 0 -9 -2q-7 -2 -26 8q-11 7 -34 19v0q-1 7 -2.5 13t-7.5 8.5t-16 7.5l-1 3q-6 19 -6 21q4 10 10 16 q3 7 14 17q4 4 14 4q4 0 11 -13t9 -11.5t12 -8.5q3 -4 7.5 -8.5t4.5 -5.5t1 0l8 -4q-8 7 -5 4q9 -11 18.5 -15t10.5 -3t1 2q5 3 7 1.5t4 -1.5q30 -5 31 6q0 2 15 3q6 1 20 17t17 24v2t1 2l2 6q-2 1 2 4q-3 7 -4 6q-7 4 -2 6l1 8l-5 6q-6 7 -13 14v4l1 3q-10 6 -23 15 q-7 7 -15 16q-8 19 -19 24l-2 5l2 20l11 5l3 1q1 0 2 1q3 -1 14 -0.5t13 0.5q22 -1 23 -2l3 -3q-1 -3 -4 -10q-1 -3 -4 -9.5t-3 -7.5l26 -24.5t28 -12.5h2q-1 0 -3 1q13 -9 29 -30q5 -18 1 -48q0 -1 -1 -4z" />
<glyph unicode="&#xb9;" horiz-adv-x="2961" />
<glyph unicode="&#xba;" />
<glyph unicode="&#xbb;" />
<glyph unicode="&#xbc;" horiz-adv-x="623" d="M428 359q-19 -8 -43 -8q-3 13 -30 14q-14 1 -33 -6q-1 1 -2 0q-9 -3 -11 -3q-5 3 -34 7q-1 0 -12.5 -5t-14.5 -5q-22 0 -22 12q1 5 11 12q0 9 9 14q2 0 7 1q1 1 3 2.5l2 1.5q5 3 15 3q4 9 14 29q4 2 10 6q6 8 6 18q-2 4 -3 42q-1 8 3 64q3 8 7 24q-2 7 4 18l1 17 q0 1 -1.5 9.5t-1.5 15.5q-1 19 -6 37q-2 7 -13.5 19.5t-16.5 12.5q-2 1 -18.5 -1.5t-17.5 -2.5q-12 2 -12 9q0 15 8 19q5 0 13 2.5t10 2.5t4.5 -1t3.5 -1q3 0 7 3t6 3q9 1 25 5q6 8 10 7q8 0 16 -8t7 -18q-1 -3 3 -10t4 -10q1 -9 1 -31q0 -1 -2 -6t-2 -7q0 -5 -2 -17 q0 6 -5 -9q-1 -10 -3 -20q-2 -14 -9 -20q2 -3 5 -25q1 -1 2 -2.5t1 -2.5q0 -28 -3 -41.5t-3 -17.5q0 -17 12 -52q1 -6 2 -16t3 -28q1 -7 16.5 -12t21.5 -12q9 -11 22.5 -15t26.5 -7zM610 275q0 -6 -5 -12.5t-10 -6.5q-31 10 -48 11l-100 4q-1 0 -4 2t-5 2q-1 0 -5 -2.5 t-7 -3.5q-1 0 -12 1h-16q-2 0 -6.5 -2t-5.5 -2l-117 5q4 0 -7 -4h-10q-4 -7 -13 -7q-1 0 -6 2t-7 2q-1 0 -10.5 -1.5t-11.5 -1.5q-9 0 -16 11q0 2 -10 8q-1 1 -3 1h-4t-20 -4t-19 -4q-2 0 -16.5 3t-16.5 3q-9 0 -18.5 -4.5t-13.5 -4.5q-23 0 -36 5q-6 6 -19 16q4 11 14 31 q15 5 23 2q22 0 60 -10q19 -5 14 -5l6 3h24q13 -1 43 -14q7 -5 47 -5q6 -1 10.5 3.5t5.5 4.5l42 -1q3 3 8 6q16 0 34 -1q14 -1 27 -1q17 -2 21 -10q10 -1 28 1q2 0 7.5 3t7.5 2q3 0 7 -3.5t6 -4.5q11 -3 23 -3q6 -2 20 3l23 13h14q10 0 14 -1q20 -5 14 -5q2 0 11 3t10 3 q2 0 11 -6q19 -6 23 -18v-6zM448 -65q0 -5 -6 -17q-4 -2 -7 -2q1 0 -29 4q-1 0 -3.5 2t-4.5 2q-23 -2 -27 -5q3 -9 3 -8l-1 -35q0 -5 21 -26q14 -4 39 -15q11 -7 9 -17q0 -11 -7 -18q-6 -3 -19 -11q-21 -14 -27 -14t-22.5 8t-18.5 8q-1 0 -10 -1.5t-11 -1.5t-10 1.5t-9 1.5 q-10 1 -17.5 -5t-8.5 -6h-2q-1 1 -3 1q-1 1 -6.5 -1.5t-7.5 -2.5h-4q-6 4 -13 11q-2 3 -2 14q0 7 13 14q2 7 7 17q2 2 38 23q18 11 19 32q0 6 -11 37q-2 3 -20 7q-2 1 -4 3q-36 9 -38 9q-1 0 -5 -2t-6 -2q4 0 -4 2l-3 -3q-20 2 -25 0q-7 -4 -21 -10q-4 -1 -16 -1q-7 0 -13 5 t-12.5 7.5t-22.5 2.5q-9 9 -9 28q0 12 11 41q32 28 44 42q4 3 8 8q4 10 14 27q5 1 6.5 5t2.5 5q6 3 9 6q-1 10 8 17q7 4 14 9q2 5 6 11q17 -3 32 17q4 2 6 2q2 9 10.5 18t25.5 23q2 2 7 2q9 18 18 18t14 -9q1 -4 2 -14q0 -3 3.5 -8.5t3.5 -8.5q0 -28 -3 -37q0 -1 4 -15.5 t5 -22t2 -17.5q5 -25 5 -29q0 -1 -3.5 -25t-3.5 -26q0 -47 12 -56q3 0 8.5 -1.5t7.5 -1.5q2 -1 11 3.5t10 4.5q2 0 2 -1h2q4 0 23 7q3 -5 6 -11q4 -9 4 -19zM329 15q0 2 -1 10t-1 12q-1 5 0.5 12.5t1.5 9.5q-4 4 -4 6l-3 15l2 43q0 2 -2.5 4.5t-2.5 3.5q1 6 -1 13 q-11 17 -17 17q-2 0 -10 -3.5t-11 -3.5q0 -8 -13 -21q-4 -2 -9 -7q-1 -5 -4 -12q-5 -3 -13 -11q-8 -29 -11 -37q-9 -21 -28 -36q-10 -8 -10 -20q-1 -3 5 -12.5t9 -11.5q10 -3 22 -9q16 -16 24 -16h5q4 1 6 1q-3 -1 14 -1h6q4 1 5 1q29 19 36 19q5 20 5 34z" />
<glyph unicode="&#xbd;" horiz-adv-x="643" d="M429 367q0 -3 -3.5 -12t-5.5 -10q-11 0 -34 -2q-30 -10 -29 -10q-1 0 -9 8t-13 8q-1 0 -18 -1.5t-19 -1.5q-1 0 -12 1.5t-13 1.5q-1 0 -10.5 -6t-11.5 -6q-1 0 -6.5 4t-8.5 5q-11 2 -22 4.5t-19 12.5q0 3 2 11q6 14 14 14q2 0 11 -1.5t10 -1.5q2 0 12.5 2t11.5 2 q2 0 6 -1t5 -1q8 0 15 9.5t8 16.5q0 2 -3.5 15t-3.5 14q0 -2 2 11.5t3 37.5q2 8 5 17v54q0 8 -2 46q-2 28 0 40v19q-10 22 -36 32l-40 12q-4 1 -10 9t-5 13q5 5 15.5 8t19.5 5q5 3 9 7q9 6 14 6q18 -6 24 -6q2 0 8 1h7q14 0 24 -13q2 -3 7 -22.5t5 -27.5q0 -1 -3 -14t-3 -15 t7.5 -23.5t7.5 -33.5q0 2 -5 -12q-9 -25 -9 -41q0 -24 1 -21q0 -3 -3 -8t-3 -11q0 -1 2 -9.5t2 -13.5t1 -16q0 -15 1 -19q3 -10 0 -22q-2 -11 -1 -17q7 -27 63 -29q20 -1 28 5q6 -2 8 -10.5t2 -13.5zM630 277q-1 -27 -40 -23q-6 0 -24 11q-1 -2 -1 -4q-16 -8 -27 -8h-6 q-4 -1 -6 -1q-1 0 -10 3.5t-11 3.5q-1 0 -22 -5.5t-23 -5.5q-1 0 -10 8.5t-11 8.5q-2 1 -10.5 -3.5t-9.5 -4.5q1 0 -20 7q-2 0 -14 -2.5t-13 -2.5q-29 0 -38 16q-15 -10 -21 -10q-1 0 -9 1.5t-10 1.5t-12 -4t-12 -3q-33 0 -33 26q0 10 13 14q10 0 28 3q38 9 35 9 q6 -1 20 -35l6 9q12 13 20 13q-6 0 30 -4q2 0 9 -5q17 20 22 20q-1 0 21 -11l42 10q2 -2 12 -10q7 -7 9 -7q1 0 10 4t11 4q4 0 20 -11q14 16 22 24q18 3 22 3q42 0 41 -40zM220 286q0 -15 -14 -15q-2 0 -9 1.5t-8 1.5q-2 0 -5.5 -3t-5.5 -3q-15 -8 -37 -8q-1 0 -7 1t-8 1 t-22.5 -2.5t-21.5 -2.5t-10.5 1.5t-11.5 1.5t-11 -1.5t-10 -1.5q-12 0 -20 7t-6 13q0 12 4 16q18 20 24 20q1 0 8 -2.5t10 -2.5q12 0 38 -2.5l26 -2.5q21 0 42 1q4 0 11 3.5t8 3.5l24 -1zM486 -149q-1 -11 -8 -16l-11 -9l-14 -25q-8 -16 -19 -21l-44 -14h-12q-1 0 -15.5 3 t-16.5 3q-1 0 -9.5 -2t-10.5 -2q-7 0 -23 12.5t-19 12.5q-1 0 -10 -3t-11 -3q3 0 -7 5q-12 14 -34 14q-16 0 -43 -19q-4 -2 -14 -6t-9 -4q3 0 -21 12v9q-1 6 -1 7q0 13 2.5 17.5t6.5 10.5t9 29q0 1 3 8t3 9q35 35 43 54q4 3 12.5 3t26 12.5t25.5 15.5q8 0 21 2q8 6 21.5 15 t43.5 25l28 9.5t32 33.5q1 7 4 22q0 2 1.5 4t1.5 3t-3.5 8.5t-4.5 12.5q1 12 -3 33q-23 42 -52 47q-6 1 -19 1q-2 0 -13 -3.5t-12 -3.5t-8.5 3t-11.5 4q-11 4 -21 4q-1 0 -6.5 -3t-8.5 -4q-39 -8 -58 -21q-2 -8 -2 -14v-7l20 -30t10 -33q0 -6 -8.5 -19.5t-13.5 -16.5 q-12 5 -41 16q-19 44 -19 45q0 16 6 29l9 12q2 6 5 18q19 4 43 44q21 4 42 23q6 5 20 5q21 -7 23 -7q2 -1 11 1.5t10 2.5q8 -5 25 -11q2 0 9.5 2t8.5 2t18 -7q2 -4 7 -9t13 -7t23 -5q10 -4 22 -21q15 -22 20 -27q2 -1 5.5 -30t3.5 -41t-5.5 -35t-12.5 -31l-30 -18 q-5 -6 -16 -15q-28 -18 -57 -25q-6 -3 -18.5 -6t-41.5 -7q-7 -13 -23 -27q-7 1 -20 -2q-23 -12 -19 -44q15 -2 40 -12q6 -6 18 -16q2 -2 4 -2q14 0 42 7q11 -25 38 -26q16 -1 20 15q0 7 4 20q3 6 16 10q5 2 18 8q5 2 18 11q10 8 12 8q3 0 16 -10.5t15 -15.5q1 -1 1 -7z" />
<glyph unicode="&#xbe;" horiz-adv-x="2961" />
<glyph unicode="&#xbf;" horiz-adv-x="511" d="M63 141q0 14 35 31q6 -10 15 -35q0 -2 -3 -16q-3 -9 1.5 -20.5t16.5 -29.5q6 -5 15 -15q1 -2 4 -7q8 -9 27 -26q2 -1 17 -8q7 -3 7 -11q0 -15 -25 -15q-17 0 -21 7q-7 15 -23 25q-4 0 -12 3q-17 9 -44 32q-5 6 -5 17q0 2 4 16t4 15q0 3 -6.5 19.5t-6.5 17.5zM221 -8 q5 1 4 1q9 14 20 17h12q2 0 15 -1t14 -1q11 0 40 22t29 29q0 12 -3 19q-1 4 -24 18q-6 5 -18 13q-4 8 -4 11q0 18 6.5 32.5t40.5 45.5q4 4 19 4q2 0 12.5 -2.5t11.5 -2.5q2 0 6 1h5h9q8 -2 21 -9q2 -2 11 -16q8 -6 18 -20q1 -2 1 -24q0 -28 -9 -65q-6 -25 -22 -42t-60 -40 q-21 -11 -48 -11q-1 0 -17 1t-18 1t-24 -2.5t-23 -2.5q-11 0 -16.5 12t-8.5 12zM51 215q9 4 25 13q5 3 11.5 15.5t8.5 14.5t6 3.5t6 3.5l48 36q12 7 24 13q18 12 22 26q0 1 1 5v6q-3 36 2.5 40t30.5 27q13 13 29 13q2 0 24 -13q8 -29 8 -35q0 -15 -7 -54q0 -1 -3.5 -4.5 t-4.5 -6t-4 -8t-5 -8.5q-5 -4 -13 -11q-10 -11 -25 -21l-12 -9q-14 -4 -22 -4q-1 0 -8.5 2t-9.5 2t-6.5 -3.5t-6.5 -3.5q-27 -10 -63 -58q-7 -9 -9 -21q-7 9 -22 22q-8 2 -23 7q0 4 -2 11zM158 552q0 22 45 51q6 2 14 6q9 9 29 27q9 6 20 6q1 0 10 -7.5t13 -9.5l28 -6 q14 -6 17 -21q2 -9 2 -18q0 -15 -5 -24q-8 -14 -29 -34l-34 -33q-9 -10 -22 -10q-9 0 -33 18l-25 14q-16 8 -24 21q-6 10 -6 20z" />
<glyph unicode="&#xc0;" horiz-adv-x="704" d="M452 419q0 -1 -3 -16l-43 16q-8 9 -13 44q-3 17 -13 31q3 7 -1.5 24t-17.5 17q-20 0 -20 -11q0 -1 2.5 -11.5t2.5 -12.5q0 -7 -10 -22l-14 -21q-18 0 -23 1q-19 6 -19 15q0 13 2 9v13q0 1 11 13.5t11 17.5q0 2 -3.5 16t-3.5 15q0 20 11 44q8 7 22 21q3 7 12 18q8 5 22 5 q2 0 11 -8.5t12 -14.5q2 -14 8 -45q5 -6 11 -17.5t8 -33.5q1 -8 3 -16q3 -11 11 -16q2 -13 8 -23q4 -3 10 -9q6 -9 6 -43zM667 20q0 -8 -7 -13q-22 -11 -35 -11h-50l-65 -8q-17 0 -77 20q-18 6 -27 31v6q0 11 23 20q3 2 23 17q0 8 2 23l2 15q0 7 -8 17l-12 21q0 5 -2 9 q-3 8 -8 11q-10 5 -19 5q-1 0 -10.5 -2t-11.5 -2q-1 0 -17 7q-19 8 -27 11q-12 2 -27 2q-12 0 -15.5 -1t-11.5 -6t-9 -5t-15 2t-16 2q-22 0 -48 -24q1 -7 -4 -17q-3 8 -3 19q0 17 2.5 20.5l6.5 9.5q1 8 4 22q3 6 9 14q5 2 11 9q2 11 12 30q3 -2 7 -10q-2 -11 3 -35 q10 -19 41 -19h12q-2 -4 1 -10h2q1 2 1 10l8 10q7 12 27 12q2 0 23.5 -3.5t22.5 -3.5q24 0 47 37q21 33 21 41q0 1 -4 6.5t-5 8.5q-5 25 -11 38q-1 2 -6 5.5t-5 5.5q0 4 5 19q9 -1 22 -8q1 -7 21 -24q6 -5 9 -20t12 -28q0 -8 1 -25l18 -60q-1 -14 1 -41q4 -15 20 -34l13 -27 q6 -16 32 -27l40 -12q8 1 21 -4q7 -12 24 -38q6 -12 6 -18zM288 377q0 -33 -13 -72q0 -2 -7.5 -10.5t-9.5 -8.5q-8 0 -15 20q0 1 5 18.5t6 23.5q-1 16 7 41q9 7 18 7q5 0 9 -19zM281 14q0 -9 -16 -15q-20 -7 -51 -7q-1 0 -7 1t-9 1q-11 0 -34 -1h-23q-10 0 -19.5 3.5 t-11.5 3.5t-23 -5q-5 -1 -11.5 -5.5t-8.5 -4.5q-9 0 -21 9q-6 4 -8 14q-1 4 -1 12q0 30 10 41q8 8 41 22q14 -2 40 3q9 4 14.5 18.5t9.5 18.5q14 -2 21.5 -5.5t22.5 -13.5l6 -12q5 -3 13 -11l9 -15q2 -3 7 -8q21 -14 48 -36q2 -1 2 -8zM301 826q2 -1 7 -3l22 -18 q6 -4 22 -17q1 -1 31 -22q10 -5 23 -14q2 -4 7 -9q1 -1 42 -13.5t42 -12.5q21 -10 27 -22q3 -9 0 -16q-1 3 -19 -26q-24 -2 -28 0q-1 2 -6 4q-12 5 -33 13t-71 16q-26 4 -40 4q-4 0 -15 3.5t-16 4.5q-9 4 -28 9q-15 3 -25 8q-20 10 -27 11h-5q-18 8 -28 26.5t-10 45.5 q3 4 6 10q1 2 6 8q11 5 26 16l21 6q3 1 6 1q5 0 16.5 -4t15.5 -5q9 1 31 -4z" />
<glyph unicode="&#xc1;" horiz-adv-x="704" d="M452 419q0 -1 -3 -16l-43 16q-8 9 -13 44q-3 17 -13 31q3 7 -1.5 24t-17.5 17q-20 0 -20 -11q0 -1 2.5 -11.5t2.5 -12.5q0 -7 -10 -22l-14 -21q-18 0 -23 1q-19 6 -19 15q0 13 2 9v13q0 1 11 13.5t11 17.5q0 2 -3.5 16t-3.5 15q0 20 11 44q8 7 22 21q3 7 12 18q8 5 22 5 q2 0 11 -8.5t12 -14.5q2 -14 8 -45q5 -6 11 -17.5t8 -33.5q1 -8 3 -16q3 -11 11 -16q2 -13 8 -23q4 -3 10 -9q6 -9 6 -43zM667 20q0 -8 -7 -13q-22 -11 -35 -11h-50l-65 -8q-17 0 -77 20q-18 6 -27 31v6q0 11 23 20q3 2 23 17q0 8 2 23l2 15q0 7 -8 17l-12 21q0 5 -2 9 q-3 8 -8 11q-10 5 -19 5q-1 0 -10.5 -2t-11.5 -2q-1 0 -17 7q-19 8 -27 11q-12 2 -27 2q-12 0 -15.5 -1t-11.5 -6t-9 -5t-15 2t-16 2q-22 0 -48 -24q1 -7 -4 -17q-3 8 -3 19q0 17 2.5 20.5l6.5 9.5q1 8 4 22q3 6 9 14q5 2 11 9q2 11 12 30q3 -2 7 -10q-2 -11 3 -35 q10 -19 41 -19h12q-2 -4 1 -10h2q1 2 1 10l8 10q7 12 27 12q2 0 23.5 -3.5t22.5 -3.5q24 0 47 37q21 33 21 41q0 1 -4 6.5t-5 8.5q-5 25 -11 38q-1 2 -6 5.5t-5 5.5q0 4 5 19q9 -1 22 -8q1 -7 21 -24q6 -5 9 -20t12 -28q0 -8 1 -25l18 -60q-1 -14 1 -41q4 -15 20 -34l13 -27 q6 -16 32 -27l40 -12q8 1 21 -4q7 -12 24 -38q6 -12 6 -18zM288 377q0 -33 -13 -72q0 -2 -7.5 -10.5t-9.5 -8.5q-8 0 -15 20q0 1 5 18.5t6 23.5q-1 16 7 41q9 7 18 7q5 0 9 -19zM281 14q0 -9 -16 -15q-20 -7 -51 -7q-1 0 -7 1t-9 1q-11 0 -34 -1h-23q-10 0 -19.5 3.5 t-11.5 3.5t-23 -5q-5 -1 -11.5 -5.5t-8.5 -4.5q-9 0 -21 9q-6 4 -8 14q-1 4 -1 12q0 30 10 41q8 8 41 22q14 -2 40 3q9 4 14.5 18.5t9.5 18.5q14 -2 21.5 -5.5t22.5 -13.5l6 -12q5 -3 13 -11l9 -15q2 -3 7 -8q21 -14 48 -36q2 -1 2 -8zM567 789q0 -18 -9.5 -36t-27.5 -26 q0 2 -33 -11q-10 -5 -23.5 -8.5t-29.5 -8.5q-5 -1 -16 -4.5t-15 -3.5q-28 0 -55.5 -9.5t-53.5 -20.5q-13 -4 -35 -13q-2 -1 -6 -4q-4 -2 -27 0q-10 19 -15 19q-6 0 -4 -3q-4 7 0 16q3 6 11 8t15 4l67 29q11 4 23 11q9 3 25 9q13 4 30 12q6 2 23 17q3 0 13 8q13 12 16 13 q9 10 30 21q4 1 18.5 9.5t19.5 5.5q8 3 22 0q10 -5 25 -16q3 -3 6 -6.5t6 -11.5z" />
<glyph unicode="&#xc2;" horiz-adv-x="704" d="M452 419q0 -1 -3 -16l-43 16q-8 9 -13 44q-3 17 -13 31q3 7 -1.5 24t-17.5 17q-20 0 -20 -11q0 -1 2.5 -11.5t2.5 -12.5q0 -7 -10 -22l-14 -21q-18 0 -23 1q-19 6 -19 15q0 13 2 9v13q0 1 11 13.5t11 17.5q0 2 -3.5 16t-3.5 15q0 20 11 44q8 7 22 21q3 7 12 18q8 5 22 5 q2 0 11 -8.5t12 -14.5q2 -14 8 -45q5 -6 11 -17.5t8 -33.5q1 -8 3 -16q3 -11 11 -16q2 -13 8 -23q4 -3 10 -9q6 -9 6 -43zM667 20q0 -8 -7 -13q-22 -11 -35 -11h-50l-65 -8q-17 0 -77 20q-18 6 -27 31v6q0 11 23 20q3 2 23 17q0 8 2 23l2 15q0 7 -8 17l-12 21q0 5 -2 9 q-3 8 -8 11q-10 5 -19 5q-1 0 -10.5 -2t-11.5 -2q-1 0 -17 7q-19 8 -27 11q-12 2 -27 2q-12 0 -15.5 -1t-11.5 -6t-9 -5t-15 2t-16 2q-22 0 -48 -24q1 -7 -4 -17q-3 8 -3 19q0 17 2.5 20.5l6.5 9.5q1 8 4 22q3 6 9 14q5 2 11 9q2 11 12 30q3 -2 7 -10q-2 -11 3 -35 q10 -19 41 -19h12q-2 -4 1 -10h2q1 2 1 10l8 10q7 12 27 12q2 0 23.5 -3.5t22.5 -3.5q24 0 47 37q21 33 21 41q0 1 -4 6.5t-5 8.5q-5 25 -11 38q-1 2 -6 5.5t-5 5.5q0 4 5 19q9 -1 22 -8q1 -7 21 -24q6 -5 9 -20t12 -28q0 -8 1 -25l18 -60q-1 -14 1 -41q4 -15 20 -34l13 -27 q6 -16 32 -27l40 -12q8 1 21 -4q7 -12 24 -38q6 -12 6 -18zM288 377q0 -33 -13 -72q0 -2 -7.5 -10.5t-9.5 -8.5q-8 0 -15 20q0 1 5 18.5t6 23.5q-1 16 7 41q9 7 18 7q5 0 9 -19zM281 14q0 -9 -16 -15q-20 -7 -51 -7q-1 0 -7 1t-9 1q-11 0 -34 -1h-23q-10 0 -19.5 3.5 t-11.5 3.5t-23 -5q-5 -1 -11.5 -5.5t-8.5 -4.5q-9 0 -21 9q-6 4 -8 14q-1 4 -1 12q0 30 10 41q8 8 41 22q14 -2 40 3q9 4 14.5 18.5t9.5 18.5q14 -2 21.5 -5.5t22.5 -13.5l6 -12q5 -3 13 -11l9 -15q2 -3 7 -8q21 -14 48 -36q2 -1 2 -8zM381 821q25 -14 25 -17q0 6 16 -30 q9 -5 20 -12q4 -9 21 -15.5t21 -15.5q0 -4 2 -11l7 -10q0 -5 1 -15q0 -2 2 -4.5t2 -3.5q0 -5 -6 -22t-8 -19h-22q-3 5 -28 39q-6 4 -17 13q-1 4 -3 11q-6 7 -15 23l-8.5 17t-13.5 16.5t-30 13.5q-7 -13 -22 -32q-7 -2 -18 -10l-13 -26q-2 -3 -22 -35q-1 -1 -16 -12 q-27 -19 -43 -19q-12 0 -12 17q0 12 7 31q3 3 9.5 11.5l20.5 26.5q3 4 8 12q2 7 8 20q3 5 15.5 11t19.5 13q4 3 6 10.5t19 20.5q-3 -7 15 12q3 4 6.5 7t21.5 3q11 0 12 -2q0 -1 -2.5 -2.5t-2.5 -2.5q0 -2 3 -3q13 -2 14 -9z" />
<glyph unicode="&#xc3;" horiz-adv-x="704" d="M452 419q0 -1 -3 -16l-43 16q-8 9 -13 44q-3 17 -13 31q3 7 -1.5 24t-17.5 17q-20 0 -20 -11q0 -1 2.5 -11.5t2.5 -12.5q0 -7 -10 -22l-14 -21q-18 0 -23 1q-19 6 -19 15q0 13 2 9v13q0 1 11 13.5t11 17.5q0 2 -3.5 16t-3.5 15q0 20 11 44q8 7 22 21q3 7 12 18q8 5 22 5 q2 0 11 -8.5t12 -14.5q2 -14 8 -45q5 -6 11 -17.5t8 -33.5q1 -8 3 -16q3 -11 11 -16q2 -13 8 -23q4 -3 10 -9q6 -9 6 -43zM667 20q0 -8 -7 -13q-22 -11 -35 -11h-50l-65 -8q-17 0 -77 20q-18 6 -27 31v6q0 11 23 20q3 2 23 17q0 8 2 23l2 15q0 7 -8 17l-12 21q0 5 -2 9 q-3 8 -8 11q-10 5 -19 5q-1 0 -10.5 -2t-11.5 -2q-1 0 -17 7q-19 8 -27 11q-12 2 -27 2q-12 0 -15.5 -1t-11.5 -6t-9 -5t-15 2t-16 2q-22 0 -48 -24q1 -7 -4 -17q-3 8 -3 19q0 17 2.5 20.5l6.5 9.5q1 8 4 22q3 6 9 14q5 2 11 9q2 11 12 30q3 -2 7 -10q-2 -11 3 -35 q10 -19 41 -19h12q-2 -4 1 -10h2q1 2 1 10l8 10q7 12 27 12q2 0 23.5 -3.5t22.5 -3.5q24 0 47 37q21 33 21 41q0 1 -4 6.5t-5 8.5q-5 25 -11 38q-1 2 -6 5.5t-5 5.5q0 4 5 19q9 -1 22 -8q1 -7 21 -24q6 -5 9 -20t12 -28q0 -8 1 -25l18 -60q-1 -14 1 -41q4 -15 20 -34l13 -27 q6 -16 32 -27l40 -12q8 1 21 -4q7 -12 24 -38q6 -12 6 -18zM288 377q0 -33 -13 -72q0 -2 -7.5 -10.5t-9.5 -8.5q-8 0 -15 20q0 1 5 18.5t6 23.5q-1 16 7 41q9 7 18 7q5 0 9 -19zM281 14q0 -9 -16 -15q-20 -7 -51 -7q-1 0 -7 1t-9 1q-11 0 -34 -1h-23q-10 0 -19.5 3.5 t-11.5 3.5t-23 -5q-5 -1 -11.5 -5.5t-8.5 -4.5q-9 0 -21 9q-6 4 -8 14q-1 4 -1 12q0 30 10 41q8 8 41 22q14 -2 40 3q9 4 14.5 18.5t9.5 18.5q14 -2 21.5 -5.5t22.5 -13.5l6 -12q5 -3 13 -11l9 -15q2 -3 7 -8q21 -14 48 -36q2 -1 2 -8zM286 762q10 9 12 9q1 0 19.5 -1.5 t19 -1.5t11.5 -7t18 -6q2 0 9 -5.5t8.5 -5.5t17.5 -14q8 -8 20 -28q10 -16 13 -16q1 0 15 1.5t15.5 1.5t10 13.5t9.5 13.5v17q1 19 9.5 27t29.5 8q6 -1 15 -6q5 -5 16 -8q4 -2 4 -12q0 -1 -2 -10t-3 -14v-9q-4 -9 -16 -22l-34 -20l-15.5 -9t-18.5 -8q-5 6 -11 6 q-4 0 -11.5 -3t-10.5 -3q-7 0 -22.5 5.5t-16.5 5.5q-6 0 -19.5 24.5t-25.5 24.5q1 0 -12 19t-20 17q-10 5 -23 9q-2 1 -11 7zM273 743q-7 -8 -16 -28q0 -7 7 -16t7 -15q0 -17 -14 -30q-6 -6 -13 -7q-5 -1 -15 0q-13 1 -18 1q-5 4 -16 22t-11 27q0 8 7 28q5 9 20 19 q10 10 19 12t28 8q4 1 5 -2.5t5 -3.5t5 -15z" />
<glyph unicode="&#xc4;" horiz-adv-x="704" d="M452 419q0 -1 -3 -16l-43 16q-8 9 -13 44q-3 17 -13 31q3 7 -1.5 24t-17.5 17q-20 0 -20 -11q0 -1 2.5 -11.5t2.5 -12.5q0 -7 -10 -22l-14 -21q-18 0 -23 1q-19 6 -19 15q0 13 2 9v13q0 1 11 13.5t11 17.5q0 2 -3.5 16t-3.5 15q0 20 11 44q8 7 22 21q3 7 12 18q8 5 22 5 q2 0 11 -8.5t12 -14.5q2 -14 8 -45q5 -6 11 -17.5t8 -33.5q1 -8 3 -16q3 -11 11 -16q2 -13 8 -23q4 -3 10 -9q6 -9 6 -43zM667 20q0 -8 -7 -13q-22 -11 -35 -11h-50l-65 -8q-17 0 -77 20q-18 6 -27 31v6q0 11 23 20q3 2 23 17q0 8 2 23l2 15q0 7 -8 17l-12 21q0 5 -2 9 q-3 8 -8 11q-10 5 -19 5q-1 0 -10.5 -2t-11.5 -2q-1 0 -17 7q-19 8 -27 11q-12 2 -27 2q-12 0 -15.5 -1t-11.5 -6t-9 -5t-15 2t-16 2q-22 0 -48 -24q1 -7 -4 -17q-3 8 -3 19q0 17 2.5 20.5l6.5 9.5q1 8 4 22q3 6 9 14q5 2 11 9q2 11 12 30q3 -2 7 -10q-2 -11 3 -35 q10 -19 41 -19h12q-2 -4 1 -10h2q1 2 1 10l8 10q7 12 27 12q2 0 23.5 -3.5t22.5 -3.5q24 0 47 37q21 33 21 41q0 1 -4 6.5t-5 8.5q-5 25 -11 38q-1 2 -6 5.5t-5 5.5q0 4 5 19q9 -1 22 -8q1 -7 21 -24q6 -5 9 -20t12 -28q0 -8 1 -25l18 -60q-1 -14 1 -41q4 -15 20 -34l13 -27 q6 -16 32 -27l40 -12q8 1 21 -4q7 -12 24 -38q6 -12 6 -18zM288 377q0 -33 -13 -72q0 -2 -7.5 -10.5t-9.5 -8.5q-8 0 -15 20q0 1 5 18.5t6 23.5q-1 16 7 41q9 7 18 7q5 0 9 -19zM281 14q0 -9 -16 -15q-20 -7 -51 -7q-1 0 -7 1t-9 1q-11 0 -34 -1h-23q-10 0 -19.5 3.5 t-11.5 3.5t-23 -5q-5 -1 -11.5 -5.5t-8.5 -4.5q-9 0 -21 9q-6 4 -8 14q-1 4 -1 12q0 30 10 41q8 8 41 22q14 -2 40 3q9 4 14.5 18.5t9.5 18.5q14 -2 21.5 -5.5t22.5 -13.5l6 -12q5 -3 13 -11l9 -15q2 -3 7 -8q21 -14 48 -36q2 -1 2 -8zM263 759q18 -2 29 -4q6 -2 9 -9 q0 -1 1 -2.5t9 -8.5q5 -20 5 -35q0 -14 -8 -27q-1 0 -14 -13q-7 -6 -32 -6q-6 0 -32 7q-2 3 -19 36q-1 2 -1 8q0 12 13 18q-4 8 -4 12q0 3 7 9.5t11 7t13 1.5l7 3.5t6 2.5zM457 766q8 0 17 -5.5t15 -13.5q14 -19 14 -24q0 -1 -1.5 -6t-1.5 -6t1 -6v-7q0 -25 -17 -37 q-3 -1 -7.5 -3.5t-11.5 -8.5q-3 -3 -12 -3q-18 0 -42 15q-5 4 -12 12q-9 16 -9 26q2 4 5 12q-1 9 2 24.5t19 19.5q4 4 13 9q15 2 28 2z" />
<glyph unicode="&#xc5;" horiz-adv-x="704" d="M452 419q0 -1 -3 -16l-43 16q-8 9 -13 44q-3 17 -13 31q3 7 -1.5 24t-17.5 17q-20 0 -20 -11q0 -1 2.5 -11.5t2.5 -12.5q0 -7 -10 -22l-14 -21q-18 0 -23 1q-19 6 -19 15q0 13 2 9v13q0 1 11 13.5t11 17.5q0 2 -3.5 16t-3.5 15q0 20 11 44q8 7 22 21q3 7 12 18q8 5 22 5 q2 0 11 -8.5t12 -14.5q2 -14 8 -45q5 -6 11 -17.5t8 -33.5q1 -8 3 -16q3 -11 11 -16q2 -13 8 -23q4 -3 10 -9q6 -9 6 -43zM667 20q0 -8 -7 -13q-22 -11 -35 -11h-50l-65 -8q-17 0 -77 20q-18 6 -27 31v6q0 11 23 20q3 2 23 17q0 8 2 23l2 15q0 7 -8 17l-12 21q0 5 -2 9 q-3 8 -8 11q-10 5 -19 5q-1 0 -10.5 -2t-11.5 -2q-1 0 -17 7q-19 8 -27 11q-12 2 -27 2q-12 0 -15.5 -1t-11.5 -6t-9 -5t-15 2t-16 2q-22 0 -48 -24q1 -7 -4 -17q-3 8 -3 19q0 17 2.5 20.5l6.5 9.5q1 8 4 22q3 6 9 14q5 2 11 9q2 11 12 30q3 -2 7 -10q-2 -11 3 -35 q10 -19 41 -19h12q-2 -4 1 -10h2q1 2 1 10l8 10q7 12 27 12q2 0 23.5 -3.5t22.5 -3.5q24 0 47 37q21 33 21 41q0 1 -4 6.5t-5 8.5q-5 25 -11 38q-1 2 -6 5.5t-5 5.5q0 4 5 19q9 -1 22 -8q1 -7 21 -24q6 -5 9 -20t12 -28q0 -8 1 -25l18 -60q-1 -14 1 -41q4 -15 20 -34l13 -27 q6 -16 32 -27l40 -12q8 1 21 -4q7 -12 24 -38q6 -12 6 -18zM288 377q0 -33 -13 -72q0 -2 -7.5 -10.5t-9.5 -8.5q-8 0 -15 20q0 1 5 18.5t6 23.5q-1 16 7 41q9 7 18 7q5 0 9 -19zM281 14q0 -9 -16 -15q-20 -7 -51 -7q-1 0 -7 1t-9 1q-11 0 -34 -1h-23q-10 0 -19.5 3.5 t-11.5 3.5t-23 -5q-5 -1 -11.5 -5.5t-8.5 -4.5q-9 0 -21 9q-6 4 -8 14q-1 4 -1 12q0 30 10 41q8 8 41 22q14 -2 40 3q9 4 14.5 18.5t9.5 18.5q14 -2 21.5 -5.5t22.5 -13.5l6 -12q5 -3 13 -11l9 -15q2 -3 7 -8q21 -14 48 -36q2 -1 2 -8zM437 761q0 -5 -12 -31l-3 -15l-3 -6 q-8 -8 -28 -21q-12 -5 -28 -5q-1 0 -9.5 1t-9.5 1h-22q-4 1 -11 4q-3 3 -9 8q-6 2 -15.5 8.5t-14.5 15.5q-2 5 -6 16q-3 2 -7 6.5t-4 10.5q0 1 2 14q2 10 0 16q0 7 2 9q8 21 18 33q24 29 73 36l26 -4q16 3 13 3q-1 0 3 -2q17 -17 39 -53q6 -17 6 -45zM395 771q0 7 -3 24 q-3 3 -7 8q-8 16 -30 16q-26 -3 -33 -5q-28 -8 -28 -50q0 -3 7 -19q6 -5 14 -15q2 -9 6 -11.5t11 -3.5q18 0 27 6q4 4 14 12q5 3 10 8q1 1 6 13q2 3 5 8q0 3 1 9z" />
<glyph unicode="&#xc6;" horiz-adv-x="1044" d="M452 419q0 -1 -3 -16l-43 16q-8 9 -13 44q-3 17 -13 31q3 7 -1.5 24t-17.5 17q-20 0 -20 -11q0 -1 2.5 -11.5t2.5 -12.5q0 -7 -10 -22l-14 -21q-18 0 -23 1q-19 6 -19 15q0 13 2 9v13q0 1 11 13.5t11 17.5q0 2 -3.5 16t-3.5 15q0 20 11 44q8 7 22 21q3 7 12 18q8 5 22 5 q2 0 11 -8.5t12 -14.5q2 -14 8 -45q5 -6 11 -17.5t8 -33.5q1 -8 3 -16q3 -11 11 -16q2 -13 8 -23q4 -3 10 -9q6 -9 6 -43zM288 377q0 -33 -13 -72q0 -2 -7.5 -10.5t-9.5 -8.5q-8 0 -15 20q0 1 5 18.5t6 23.5q-1 16 7 41q9 7 18 7q5 0 9 -19zM281 14q0 -9 -16 -15 q-20 -7 -51 -7q-1 0 -7 1t-9 1q-11 0 -34 -1h-23q-10 0 -19.5 3.5t-11.5 3.5t-23 -5q-5 -1 -11.5 -5.5t-8.5 -4.5q-9 0 -21 9q-6 4 -8 14q-1 4 -1 12q0 30 10 41q8 8 41 22q14 -2 40 3q9 4 14.5 18.5t9.5 18.5q14 -2 21.5 -5.5t22.5 -13.5l6 -12q5 -3 13 -11l9 -15 q2 -3 7 -8q21 -14 48 -36q2 -1 2 -8zM1010 476q-14 -6 -17 -25q-5 -31 -6 -34q-7 4 -21 13q-6 42 -6 45t-1.5 5.5t-1.5 3.5q2 12 2 36q-3 18 -14 40q-1 3 -21 8q-6 2 -23 11q-2 4 -7.5 9.5t-12.5 5.5q-1 0 -10.5 -3t-11.5 -3t-10.5 3t-10.5 2q-3 0 -11 -8t-10 -9 q-7 0 -22 -3q-11 16 -23 16q-2 0 -9.5 -1.5t-9.5 -1.5q-13 0 -27 6q-2 1 -8 6.5t-8 5.5q-1 0 -10 -6.5t-11 -6.5q-1 0 -9 1t-10 1q-3 0 -44 -12q-11 -5 -11 -23q0 -1 2.5 -11.5t2.5 -12.5q0 -9 -10.5 -24.5t-10.5 -14.5q0 -2 7 -16.5t7 -15.5q0 -9 -10.5 -18.5t-10.5 -13.5 q0 -10 14 -15q5 -9 14 -31q-2 -9 -3 -27q1 -14 16 -17l22 -4q6 -4 19 -10q-16 -10 -26 -11.5t-21 -2.5q-14 -2 -20 -14q-11 4 -22 2q-3 13 -3 47q0 8 -2 24t-2 17t3 20.5t3 21.5q0 1 -1.5 10t-1.5 14q-1 33 -1 65q-3 48 -13 58q-3 2 -9.5 4t-20.5 3.5t-16 1.5q-25 0 -42 -19 q-12 9 -37 26q-5 3 -29 11q0 2 -3 8.5t-3 8.5q0 5 6 16q24 17 64 19q22 -16 30 -16h36q2 0 9.5 -3t9.5 -3t11 5.5t10 5.5q2 0 14 -4t13 -4q2 0 18 2t17 2q2 0 12 -4t11 -4q2 0 11 3t10 3q2 0 22 -6.5t21 -6.5q2 0 11 4.5t11 4.5t12 -1t11 -1q2 0 19 2t18 2q2 0 12.5 -3 t11.5 -3q2 0 13 2t12 2q2 0 23 -3t22 -3q2 0 6 1h6q2 0 11.5 -2t10.5 -2q9 3 21 3q6 0 16 -4q3 -3 7 -9q16 -37 16 -43q0 -1 -4 -21t-4 -22q0 -4 11 -21q5 -10 5 -34zM781 243q0 -5 -6 -28q-1 -6 1 -41q1 -25 -12 -35q-2 3 -9 34q-2 7 -7 21q-2 3 -5.5 10t-3.5 25 q0 17 4 23.5t11 22.5q1 13 8 32l-1 1q-23 7 -62 7q-4 0 -7 12q0 1 5 11q3 1 9 1q2 0 7.5 -1.5t7.5 -1.5q3 0 27 20q2 5 7 13q-4 7 -14 16q-5 4 -5 15q0 17 11 23t11 10q0 1 -2 5t-2 6q-4 3 -14 7q-2 8 -2 12q0 1 1 6.5t1 8.5q5 1 21 7q9 -16 9 -20q0 -1 -4 -16t-4 -17 q0 -1 5.5 -17t5.5 -18q0 -1 -3 -12t-4 -15q1 -16 1 -51q0 -2 -2 -6t-2 -6q0 -15 8 -41q1 -3 5.5 -12.5t4.5 -10.5zM1024 44q0 -42 -33 -54q-5 -2 -20 -2q-1 0 -30.5 1t-31.5 1q-1 0 -11 -3.5t-12 -3.5q-4 0 -12.5 9.5t-10.5 9.5l-8.5 -5t-17.5 -5q-14 0 -22.5 6.5t-14.5 6.5 q-1 0 -10 -3.5t-11 -3.5q-7 0 -21.5 4.5t-17.5 7.5v6q0 12 16 20q13 6 24 6q2 0 10.5 -2t9.5 -2q2 0 11 3t10 3q2 0 10 -4t11 -5h12h12q14 4 39 14q7 9 22 25q8 5 20 19q5 11 5 31q0 2 -3.5 14t-3.5 13q0 14 11 35t11 28q3 0 10.5 1.5t8.5 1.5q3 0 10.5 -11.5t8.5 -13.5 q9 -9 10 -20t1 -20.5t1 -25.5q4 -26 4 -18q0 -1 -2.5 -12.5t-2.5 -13.5q0 -1 4 -18.5t4 -19.5zM729 11q-9 -9 -14 -12q1 5 -7 10t-13 5q6 0 -38 -8q-22 -10 -32 -10h-50l-16 -2q-11 -3 -13 -3t-5 1l-28 -4q-9 -5 -11 -5q-1 0 -11 2t-12 2q-6 -2 -15 -2q-18 0 -24.5 3 t-20.5 9q-14 12 -14 26q0 8 3 12l-2 4v6q0 11 23 20q3 2 23 17q0 8 2 23l2 15q0 7 -8 17l-12 21q0 5 -2 9q-3 8 -8 11q-10 5 -19 5q-1 0 -10.5 -2t-11.5 -2q-1 0 -17 7q-19 8 -27 11q-12 2 -27 2q-12 0 -15.5 -1t-11.5 -6t-9 -5t-15 2t-16 2q-22 0 -48 -24q1 -7 -4 -17 q-3 8 -3 19q0 17 2.5 20.5l6.5 9.5q1 8 4 22q3 6 9 14q5 2 11 9q2 11 12 30q3 -2 7 -10q-2 -11 3 -35q10 -19 41 -19h12q-2 -4 1 -10h2q1 2 1 10l8 10q7 12 27 12q2 0 23.5 -3.5t22.5 -3.5q24 0 47 37q21 33 21 41q0 1 -4 6.5t-5 8.5q-5 25 -11 38q-1 2 -6 5.5t-5 5.5 q0 4 5 19q9 -1 22 -8q1 -7 21 -24q6 -5 9 -20t12 -28q0 -8 1 -25l18 -60q-1 -14 1 -41q4 -15 20 -34l13 -27q4 -12 33 -27q1 14 0 24q0 2 -2 9.5t-1 10.5q4 7 9 20q-1 14 -1 45q2 6 3 18q-2 17 1 52q8 -4 23 -17q5 -8 1 -31q-2 -11 7 -42q1 -3 1 -34q0 -9 5 -54q0 6 5 -9v-5 q6 0 8 -2t20 -32l9.5 -2.5t28.5 -15.5q1 -1 31 -6q0 -6 4 -10z" />
<glyph unicode="&#xc7;" horiz-adv-x="574" d="M503 432q0 -4 -6 -16q-1 -4 -4.5 -10.5t-12.5 -13.5q-5 9 -12 24q-4 5 -10 14q-1 19 -7 61q-1 3 -14 21q-2 3 -5 8t-16 12q0 2 -2 6t-3 5q-1 8 -5 22q-4 7 -16 10l-17 4l-26 17q-4 7 -16 17q-8 0 -20 3t-12 20q0 16 15 16q10 0 16 -2q3 -4 11 -9q12 -2 33 -10l15 -22 q2 -2 27 -12q9 -3 13 -11q3 -4 8 -14q6 3 15.5 16.5t7.5 21.5t0 18q10 6 20 16q12 -12 14 -25q9 -55 9 -71q0 -7 -2 -11.5t-6 -14.5q0 -5 3 -10q-3 1 -3 -3q0 -1 4 -38t4 -39zM524 182q0 -12 -18 -58q-1 -8 -4 -24q0 3 -10 -10q-3 -8 -13 -22t-14.5 -19.5l-11.5 -13.5 q-17 -25 -36 -37q-10 0 -30 -4q-31 -16 -38 -16h-24q-2 0 -7 -1t-6 -1q-2 0 -22.5 5.5t-21.5 5.5t-9 -1.5t-10 -1.5q-1 0 -9.5 7.5t-12.5 8.5q-8 -2 -23 2q-12 8 -25 26q-9 12 -19 12q-1 0 -8 -1.5t-9 -1.5q-6 0 -12 15q-2 8 -5 16l-7 7q-2 6 -7 18q-5 4 -15 13q-1 4 -6 9.5 t-13 16.5t-12 32q-4 19 3 38q4 11 -5 25q-1 2 -4.5 4t-3.5 3q-6 12 -6 22q0 57 4 76q5 4 10 12q7 21 7 29q0 3 -2.5 13.5t-2.5 24.5q0 41 11 69q9 4 15 15q3 7 6 13q7 4 16 14q1 6 5 17q6 17 22 50q26 11 24 11q1 0 18 -5q8 7 12.5 18l8.5 21q12 8 31 8q26 0 38 -3 q7 -7 7 -11q0 -20 -12.5 -24t-25.5 -7q-20 -8 -33 -22q-6 -1 -18 -5q-16 -5 -23 -21q-1 -7 -6 -19q-1 -2 -7 -6t-8 -7q-6 -9 -9 -16q-1 -10 -6 -30l-12 -30q-5 -5 -15 -17q-3 -4 -1 -16l2 -17l-9 -48q8 -17 1 -37q-1 -3 -6.5 -8.5t-5.5 -6.5q0 -7 14 -29q6 -10 5 -28 q-2 -22 0 -29q10 -10 20 -29q1 -17 7 -48q1 -1 4.5 -4t4.5 -4q12 -20 25 -30q26 -20 48 -31q11 -4 32 -13q29 -14 41 -14q1 0 9 5.5t14 7.5q16 2 48 15q13 12 37 32q17 10 25 30q4 10 15 21q4 3 11 9q4 14 10 33q2 7 8 11q34 16 37 16q2 0 10.5 -6t9.5 -8q3 -6 3 -16z M408 -128l-3 -7q-2 -6 -5 -16q-1 -6 -3 -6l-3 1q-5 0 -7 -5h-1l-3 -4q-6 -6 -10 -13l-3 -1l-7 -4q-10 -7 -12.5 -11t-7.5 -11q-12 -13 -47 -16q-21 -3 -62 -7q-3 0 -9 -2q-7 -2 -26 8q-11 7 -34 19v0q-1 7 -2.5 13t-7.5 8.5t-16 7.5l-1 3q-6 19 -6 21q4 10 10 16q3 7 14 17 q4 4 14 4q4 0 11 -13t9 -11.5t12 -8.5q3 -4 7.5 -8.5t4.5 -5.5t1 0l8 -4q-8 7 -5 4q9 -11 18.5 -15t10.5 -3t1 2q5 3 7 1.5t4 -1.5q30 -5 31 6q0 2 15 3q6 1 20 17t17 24v2t1 2l2 6q-2 1 2 4q-3 7 -4 6q-7 4 -2 6l1 8l-5 6q-6 7 -13 14v4l1 3q-10 6 -23 15q-7 7 -15 16 q-8 19 -19 24l-2 5l2 20l11 5l3 1q1 0 2 1q3 -1 14 -0.5t13 0.5q22 -1 23 -2l3 -3q-1 -3 -4 -10q-1 -3 -4 -9.5t-3 -7.5l26 -24.5t28 -12.5h2q-1 0 -3 1q13 -9 29 -30q5 -18 1 -48q0 -1 -1 -4z" />
<glyph unicode="&#xc8;" horiz-adv-x="688" d="M624 476q-14 -6 -17 -25q-5 -31 -6 -34q-7 4 -21 13q-6 42 -6 45t-1.5 5.5t-1.5 3.5q2 12 2 36q-3 18 -14 40q-1 3 -21 8q-6 2 -23 11q-2 4 -7.5 9.5t-12.5 5.5q-1 0 -10.5 -3t-11.5 -3t-10.5 3t-10.5 2q-3 0 -11 -8t-10 -9q-7 0 -22 -3q-11 16 -23 16q-3 0 -10 -1.5 t-9 -1.5q-13 0 -27 6q-2 1 -8 6.5t-8 5.5q-1 0 -10 -6.5t-11 -6.5q-1 0 -9 1t-10 1q-3 0 -44 -12q-11 -5 -11 -23q0 -1 2.5 -11.5t2.5 -12.5q0 -9 -10.5 -24.5t-10.5 -14.5q0 -2 7 -16.5t7 -15.5q0 -9 -10.5 -18.5t-10.5 -13.5q0 -10 14 -15q5 -9 14 -31q-2 -9 -3 -27 q1 -14 14 -16.5l24 -4.5q6 -4 19 -10q-16 -10 -26.5 -11.5t-20.5 -2.5q-14 -2 -20 -14q-11 4 -22 2q-3 13 -3 47q0 8 -2 24t-2 17t3 20.5t3 21.5q0 1 -1.5 10t-1.5 14q-1 33 -1 65q-3 48 -13 58q-3 2 -9.5 4t-21 3.5t-15.5 1.5q-25 0 -42 -19l-37 26q-5 3 -29 11q0 2 -3 8.5 t-3 8.5q0 5 6 16q24 17 64 19q22 -16 30 -16h36q1 0 9 -3t10 -3t11 5.5t10 5.5q2 0 14 -4t13 -4q2 0 18 2t17 2q2 0 12 -4t11 -4q2 0 11 3t10 3q2 0 22 -6.5t21 -6.5t10.5 4.5t11.5 4.5t12 -1t11 -1q2 0 19 2t18 2q2 0 12.5 -3t11.5 -3q2 0 13 2t12 2q2 0 23 -3t22 -3 q2 0 6 1h6q2 0 11.5 -2t10.5 -2q9 3 21 3q6 0 16 -4q3 -3 7 -9q16 -37 16 -43q0 -1 -4 -21t-4 -22q0 -4 11 -21q5 -10 5 -34zM451 243q0 -5 -6 -28q-2 -6 1 -41q1 -25 -12 -35q-2 3 -9 34q-2 7 -7 21q-2 3 -5.5 10t-3.5 25q0 17 4 23.5t11 22.5q1 13 8 32l-1 1q-24 7 -62 7 q-5 0 -7 12q0 1 5 11q3 1 9 1q1 0 7 -1.5t8 -1.5q3 0 27 20q2 5 7 13q-4 7 -14 16q-5 4 -5 15q0 17 11 23t11 10q0 1 -2 5t-2 6q-4 3 -14 7q-2 8 -2 12q0 1 1 6.5t1 8.5q5 1 21 7q9 -16 9 -20q0 -1 -4 -16t-4 -17q0 -1 5.5 -17t5.5 -18q0 -1 -3 -12t-4 -15q1 -16 1 -51 q0 -2 -2 -6t-2 -6q0 -15 8 -41q1 -3 5.5 -12.5t4.5 -10.5zM638 44q0 -42 -33 -54q-5 -2 -20 -2q-1 0 -30.5 1t-31.5 1q-1 0 -11 -3.5t-12 -3.5q-4 0 -12.5 9.5t-10.5 9.5l-9 -5t-17 -5q-14 0 -22.5 6.5t-14.5 6.5q-1 0 -10 -3.5t-11 -3.5q-8 0 -22 4.5t-17 7.5v6q0 12 16 20 q13 6 24 6q2 0 10.5 -2t9.5 -2q2 0 11 3t10 3q2 0 10 -4t11 -5h12h12q13 4 39 14q7 9 22 25q8 5 20 19q5 11 5 31q0 2 -3.5 14t-3.5 13q0 14 11 35t11 28q3 0 10.5 1.5t8.5 1.5q7 0 19 -25q9 -17 11 -41q0 -9 1 -25q4 -26 4 -18q0 -1 -2.5 -12.5t-2.5 -13.5q0 -1 4 -18.5 t4 -19.5zM343 11q-9 -9 -14 -12q1 5 -7.5 10t-12.5 5q-1 0 -20.5 -4.5t-21.5 -4.5q-1 0 -19.5 1.5t-20.5 1.5q-1 0 -33 -8.5t-34 -8.5q-1 0 -10 2t-11 2q-1 0 -11 -6t-12 -6q-1 0 -11 2t-12 2q-6 -2 -15 -2q-18 0 -24.5 3t-20.5 9q-14 12 -14 26t12 19q28 11 63 11 q2 0 22 -3.5t21 -3.5q15 1 42 5q10 3 11.5 28t0.5 37q0 2 -2 9.5t-1 10.5q4 7 9 20q-1 14 -1 45l3 18q-2 17 1 52q8 -4 23 -17q5 -8 1 -31q-2 -11 7 -42q0 -11 1 -34l5 -54q0 6 5 -9q0 -2 -1 -6v-6q1 -19 37 -29q7 -2 30 -16q1 -1 31 -6q0 -6 4 -10zM295 826q3 -1 8 -3 l21 -18q7 -4 23 -17q1 -1 30 -22q11 -5 23 -14l7 -9q2 -1 43 -13.5t42 -12.5q21 -10 25.5 -20.5t1.5 -17.5q-2 3 -20 -26q-23 -2 -27 0q-1 2 -6 4q-12 5 -35 13q-19 8 -69 16q-26 4 -40 4q-4 0 -15 3.5t-16 4.5q-10 4 -26.5 8t-26.5 9q-20 10 -27 11h-5q-18 8 -28 26.5 t-10 45.5q2 4 6 10q1 2 6 8q11 5 26 16q6 2 21 6q2 1 6 1q5 0 16.5 -4l14.5 -5q10 1 31 -4z" />
<glyph unicode="&#xc9;" horiz-adv-x="688" d="M624 476q-14 -6 -17 -25q-5 -31 -6 -34q-7 4 -21 13q-6 42 -6 45t-1.5 5.5t-1.5 3.5q2 12 2 36q-3 18 -14 40q-1 3 -21 8q-6 2 -23 11q-2 4 -7.5 9.5t-12.5 5.5q-1 0 -10.5 -3t-11.5 -3t-10.5 3t-10.5 2q-3 0 -11 -8t-10 -9q-7 0 -22 -3q-11 16 -23 16q-3 0 -10 -1.5 t-9 -1.5q-13 0 -27 6q-2 1 -8 6.5t-8 5.5q-1 0 -10 -6.5t-11 -6.5q-1 0 -9 1t-10 1q-3 0 -44 -12q-11 -5 -11 -23q0 -1 2.5 -11.5t2.5 -12.5q0 -9 -10.5 -24.5t-10.5 -14.5q0 -2 7 -16.5t7 -15.5q0 -9 -10.5 -18.5t-10.5 -13.5q0 -10 14 -15q5 -9 14 -31q-2 -9 -3 -27 q1 -14 14 -16.5l24 -4.5q6 -4 19 -10q-16 -10 -26.5 -11.5t-20.5 -2.5q-14 -2 -20 -14q-11 4 -22 2q-3 13 -3 47q0 8 -2 24t-2 17t3 20.5t3 21.5q0 1 -1.5 10t-1.5 14q-1 33 -1 65q-3 48 -13 58q-3 2 -9.5 4t-21 3.5t-15.5 1.5q-25 0 -42 -19l-37 26q-5 3 -29 11q0 2 -3 8.5 t-3 8.5q0 5 6 16q24 17 64 19q22 -16 30 -16h36q1 0 9 -3t10 -3t11 5.5t10 5.5q2 0 14 -4t13 -4q2 0 18 2t17 2q2 0 12 -4t11 -4q2 0 11 3t10 3q2 0 22 -6.5t21 -6.5t10.5 4.5t11.5 4.5t12 -1t11 -1q2 0 19 2t18 2q2 0 12.5 -3t11.5 -3q2 0 13 2t12 2q2 0 23 -3t22 -3 q2 0 6 1h6q2 0 11.5 -2t10.5 -2q9 3 21 3q6 0 16 -4q3 -3 7 -9q16 -37 16 -43q0 -1 -4 -21t-4 -22q0 -4 11 -21q5 -10 5 -34zM451 243q0 -5 -6 -28q-2 -6 1 -41q1 -25 -12 -35q-2 3 -9 34q-2 7 -7 21q-2 3 -5.5 10t-3.5 25q0 17 4 23.5t11 22.5q1 13 8 32l-1 1q-24 7 -62 7 q-5 0 -7 12q0 1 5 11q3 1 9 1q1 0 7 -1.5t8 -1.5q3 0 27 20q2 5 7 13q-4 7 -14 16q-5 4 -5 15q0 17 11 23t11 10q0 1 -2 5t-2 6q-4 3 -14 7q-2 8 -2 12q0 1 1 6.5t1 8.5q5 1 21 7q9 -16 9 -20q0 -1 -4 -16t-4 -17q0 -1 5.5 -17t5.5 -18q0 -1 -3 -12t-4 -15q1 -16 1 -51 q0 -2 -2 -6t-2 -6q0 -15 8 -41q1 -3 5.5 -12.5t4.5 -10.5zM638 44q0 -42 -33 -54q-5 -2 -20 -2q-1 0 -30.5 1t-31.5 1q-1 0 -11 -3.5t-12 -3.5q-4 0 -12.5 9.5t-10.5 9.5l-9 -5t-17 -5q-14 0 -22.5 6.5t-14.5 6.5q-1 0 -10 -3.5t-11 -3.5q-8 0 -22 4.5t-17 7.5v6q0 12 16 20 q13 6 24 6q2 0 10.5 -2t9.5 -2q2 0 11 3t10 3q2 0 10 -4t11 -5h12h12q13 4 39 14q7 9 22 25q8 5 20 19q5 11 5 31q0 2 -3.5 14t-3.5 13q0 14 11 35t11 28q3 0 10.5 1.5t8.5 1.5q7 0 19 -25q9 -17 11 -41q0 -9 1 -25q4 -26 4 -18q0 -1 -2.5 -12.5t-2.5 -13.5q0 -1 4 -18.5 t4 -19.5zM343 11q-9 -9 -14 -12q1 5 -7.5 10t-12.5 5q-1 0 -20.5 -4.5t-21.5 -4.5q-1 0 -19.5 1.5t-20.5 1.5q-1 0 -33 -8.5t-34 -8.5q-1 0 -10 2t-11 2q-1 0 -11 -6t-12 -6q-1 0 -11 2t-12 2q-6 -2 -15 -2q-18 0 -24.5 3t-20.5 9q-14 12 -14 26t12 19q28 11 63 11 q2 0 22 -3.5t21 -3.5q15 1 42 5q10 3 11.5 28t0.5 37q0 2 -2 9.5t-1 10.5q4 7 9 20q-1 14 -1 45l3 18q-2 17 1 52q8 -4 23 -17q5 -8 1 -31q-2 -11 7 -42q0 -11 1 -34l5 -54q0 6 5 -9q0 -2 -1 -6v-6q1 -19 37 -29q7 -2 30 -16q1 -1 31 -6q0 -6 4 -10zM541 809q0 -18 -10 -36 t-28 -26q0 2 -32 -11q-10 -5 -23.5 -8.5t-29.5 -8.5q-5 -1 -16 -4.5t-15 -3.5q-29 0 -56 -9.5t-54 -20.5q-13 -4 -34 -13q-2 -1 -6 -4q-4 -2 -28 0q-9 19 -15 19q-5 0 -4 -3q-3 7 0 16q3 6 11 8l16 4l67 29q11 4 23 11q9 3 25 9q13 4 30 12q5 2 22 17q4 0 14 8q12 12 15 13 q9 10 30 21q4 1 20 10q13 8 18 5q9 3 22 0q10 -5 26 -16q2 -3 5.5 -6.5t6.5 -11.5z" />
<glyph unicode="&#xca;" horiz-adv-x="688" d="M624 476q-14 -6 -17 -25q-5 -31 -6 -34q-7 4 -21 13q-6 42 -6 45t-1.5 5.5t-1.5 3.5q2 12 2 36q-3 18 -14 40q-1 3 -21 8q-6 2 -23 11q-2 4 -7.5 9.5t-12.5 5.5q-1 0 -10.5 -3t-11.5 -3t-10.5 3t-10.5 2q-3 0 -11 -8t-10 -9q-7 0 -22 -3q-11 16 -23 16q-3 0 -10 -1.5 t-9 -1.5q-13 0 -27 6q-2 1 -8 6.5t-8 5.5q-1 0 -10 -6.5t-11 -6.5q-1 0 -9 1t-10 1q-3 0 -44 -12q-11 -5 -11 -23q0 -1 2.5 -11.5t2.5 -12.5q0 -9 -10.5 -24.5t-10.5 -14.5q0 -2 7 -16.5t7 -15.5q0 -9 -10.5 -18.5t-10.5 -13.5q0 -10 14 -15q5 -9 14 -31q-2 -9 -3 -27 q1 -14 14 -16.5l24 -4.5q6 -4 19 -10q-16 -10 -26.5 -11.5t-20.5 -2.5q-14 -2 -20 -14q-11 4 -22 2q-3 13 -3 47q0 8 -2 24t-2 17t3 20.5t3 21.5q0 1 -1.5 10t-1.5 14q-1 33 -1 65q-3 48 -13 58q-3 2 -9.5 4t-21 3.5t-15.5 1.5q-25 0 -42 -19l-37 26q-5 3 -29 11q0 2 -3 8.5 t-3 8.5q0 5 6 16q24 17 64 19q22 -16 30 -16h36q1 0 9 -3t10 -3t11 5.5t10 5.5q2 0 14 -4t13 -4q2 0 18 2t17 2q2 0 12 -4t11 -4q2 0 11 3t10 3q2 0 22 -6.5t21 -6.5t10.5 4.5t11.5 4.5t12 -1t11 -1q2 0 19 2t18 2q2 0 12.5 -3t11.5 -3q2 0 13 2t12 2q2 0 23 -3t22 -3 q2 0 6 1h6q2 0 11.5 -2t10.5 -2q9 3 21 3q6 0 16 -4q3 -3 7 -9q16 -37 16 -43q0 -1 -4 -21t-4 -22q0 -4 11 -21q5 -10 5 -34zM451 243q0 -5 -6 -28q-2 -6 1 -41q1 -25 -12 -35q-2 3 -9 34q-2 7 -7 21q-2 3 -5.5 10t-3.5 25q0 17 4 23.5t11 22.5q1 13 8 32l-1 1q-24 7 -62 7 q-5 0 -7 12q0 1 5 11q3 1 9 1q1 0 7 -1.5t8 -1.5q3 0 27 20q2 5 7 13q-4 7 -14 16q-5 4 -5 15q0 17 11 23t11 10q0 1 -2 5t-2 6q-4 3 -14 7q-2 8 -2 12q0 1 1 6.5t1 8.5q5 1 21 7q9 -16 9 -20q0 -1 -4 -16t-4 -17q0 -1 5.5 -17t5.5 -18q0 -1 -3 -12t-4 -15q1 -16 1 -51 q0 -2 -2 -6t-2 -6q0 -15 8 -41q1 -3 5.5 -12.5t4.5 -10.5zM638 44q0 -42 -33 -54q-5 -2 -20 -2q-1 0 -30.5 1t-31.5 1q-1 0 -11 -3.5t-12 -3.5q-4 0 -12.5 9.5t-10.5 9.5l-9 -5t-17 -5q-14 0 -22.5 6.5t-14.5 6.5q-1 0 -10 -3.5t-11 -3.5q-8 0 -22 4.5t-17 7.5v6q0 12 16 20 q13 6 24 6q2 0 10.5 -2t9.5 -2q2 0 11 3t10 3q2 0 10 -4t11 -5h12h12q13 4 39 14q7 9 22 25q8 5 20 19q5 11 5 31q0 2 -3.5 14t-3.5 13q0 14 11 35t11 28q3 0 10.5 1.5t8.5 1.5q7 0 19 -25q9 -17 11 -41q0 -9 1 -25q4 -26 4 -18q0 -1 -2.5 -12.5t-2.5 -13.5q0 -1 4 -18.5 t4 -19.5zM343 11q-9 -9 -14 -12q1 5 -7.5 10t-12.5 5q-1 0 -20.5 -4.5t-21.5 -4.5q-1 0 -19.5 1.5t-20.5 1.5q-1 0 -33 -8.5t-34 -8.5q-1 0 -10 2t-11 2q-1 0 -11 -6t-12 -6q-1 0 -11 2t-12 2q-6 -2 -15 -2q-18 0 -24.5 3t-20.5 9q-14 12 -14 26t12 19q28 11 63 11 q2 0 22 -3.5t21 -3.5q15 1 42 5q10 3 11.5 28t0.5 37q0 2 -2 9.5t-1 10.5q4 7 9 20q-1 14 -1 45l3 18q-2 17 1 52q8 -4 23 -17q5 -8 1 -31q-2 -11 7 -42q0 -11 1 -34l5 -54q0 6 5 -9q0 -2 -1 -6v-6q1 -19 37 -29q7 -2 30 -16q1 -1 31 -6q0 -6 4 -10zM366 841q24 -14 24 -17 q0 6 16 -30q9 -5 20 -12q5 -9 22 -15.5t20 -15.5q1 -4 2 -11q3 -3 7 -10q0 -5 1 -15q0 -2 2 -4.5t2 -3.5q0 -5 -6 -22t-8 -19h-22q-2 5 -28 39q-6 4 -17 13q-1 4 -3 11q-6 7 -15 23q-3 8 -7.5 17t-14 16.5t-30.5 13.5q-6 -13 -22 -32q-6 -2 -18 -10q-4 -10 -13 -26 q-1 -3 -22 -35q0 -1 -16 -12q-26 -19 -43 -19q-12 0 -12 17q0 12 7 31q3 3 10 11.5t20 26.5q4 4 7 11.5t9 20.5q4 5 16.5 11t18.5 13q5 3 7 10.5t19 20.5q-3 -7 15 12q3 4 6.5 7t21.5 3q11 0 12 -2q0 -1 -3 -2.5t-3 -2.5q1 -2 4 -3q13 -2 14 -9z" />
<glyph unicode="&#xcb;" horiz-adv-x="688" d="M624 476q-14 -6 -17 -25q-5 -31 -6 -34q-7 4 -21 13q-6 42 -6 45t-1.5 5.5t-1.5 3.5q2 12 2 36q-3 18 -14 40q-1 3 -21 8q-6 2 -23 11q-2 4 -7.5 9.5t-12.5 5.5q-1 0 -10.5 -3t-11.5 -3t-10.5 3t-10.5 2q-3 0 -11 -8t-10 -9q-7 0 -22 -3q-11 16 -23 16q-3 0 -10 -1.5 t-9 -1.5q-13 0 -27 6q-2 1 -8 6.5t-8 5.5q-1 0 -10 -6.5t-11 -6.5q-1 0 -9 1t-10 1q-3 0 -44 -12q-11 -5 -11 -23q0 -1 2.5 -11.5t2.5 -12.5q0 -9 -10.5 -24.5t-10.5 -14.5q0 -2 7 -16.5t7 -15.5q0 -9 -10.5 -18.5t-10.5 -13.5q0 -10 14 -15q5 -9 14 -31q-2 -9 -3 -27 q1 -14 14 -16.5l24 -4.5q6 -4 19 -10q-16 -10 -26.5 -11.5t-20.5 -2.5q-14 -2 -20 -14q-11 4 -22 2q-3 13 -3 47q0 8 -2 24t-2 17t3 20.5t3 21.5q0 1 -1.5 10t-1.5 14q-1 33 -1 65q-3 48 -13 58q-3 2 -9.5 4t-21 3.5t-15.5 1.5q-25 0 -42 -19l-37 26q-5 3 -29 11q0 2 -3 8.5 t-3 8.5q0 5 6 16q24 17 64 19q22 -16 30 -16h36q1 0 9 -3t10 -3t11 5.5t10 5.5q2 0 14 -4t13 -4q2 0 18 2t17 2q2 0 12 -4t11 -4q2 0 11 3t10 3q2 0 22 -6.5t21 -6.5t10.5 4.5t11.5 4.5t12 -1t11 -1q2 0 19 2t18 2q2 0 12.5 -3t11.5 -3q2 0 13 2t12 2q2 0 23 -3t22 -3 q2 0 6 1h6q2 0 11.5 -2t10.5 -2q9 3 21 3q6 0 16 -4q3 -3 7 -9q16 -37 16 -43q0 -1 -4 -21t-4 -22q0 -4 11 -21q5 -10 5 -34zM451 243q0 -5 -6 -28q-2 -6 1 -41q1 -25 -12 -35q-2 3 -9 34q-2 7 -7 21q-2 3 -5.5 10t-3.5 25q0 17 4 23.5t11 22.5q1 13 8 32l-1 1q-24 7 -62 7 q-5 0 -7 12q0 1 5 11q3 1 9 1q1 0 7 -1.5t8 -1.5q3 0 27 20q2 5 7 13q-4 7 -14 16q-5 4 -5 15q0 17 11 23t11 10q0 1 -2 5t-2 6q-4 3 -14 7q-2 8 -2 12q0 1 1 6.5t1 8.5q5 1 21 7q9 -16 9 -20q0 -1 -4 -16t-4 -17q0 -1 5.5 -17t5.5 -18q0 -1 -3 -12t-4 -15q1 -16 1 -51 q0 -2 -2 -6t-2 -6q0 -15 8 -41q1 -3 5.5 -12.5t4.5 -10.5zM638 44q0 -42 -33 -54q-5 -2 -20 -2q-1 0 -30.5 1t-31.5 1q-1 0 -11 -3.5t-12 -3.5q-4 0 -12.5 9.5t-10.5 9.5l-9 -5t-17 -5q-14 0 -22.5 6.5t-14.5 6.5q-1 0 -10 -3.5t-11 -3.5q-8 0 -22 4.5t-17 7.5v6q0 12 16 20 q13 6 24 6q2 0 10.5 -2t9.5 -2q2 0 11 3t10 3q2 0 10 -4t11 -5h12h12q13 4 39 14q7 9 22 25q8 5 20 19q5 11 5 31q0 2 -3.5 14t-3.5 13q0 14 11 35t11 28q3 0 10.5 1.5t8.5 1.5q7 0 19 -25q9 -17 11 -41q0 -9 1 -25q4 -26 4 -18q0 -1 -2.5 -12.5t-2.5 -13.5q0 -1 4 -18.5 t4 -19.5zM343 11q-9 -9 -14 -12q1 5 -7.5 10t-12.5 5q-1 0 -20.5 -4.5t-21.5 -4.5q-1 0 -19.5 1.5t-20.5 1.5q-1 0 -33 -8.5t-34 -8.5q-1 0 -10 2t-11 2q-1 0 -11 -6t-12 -6q-1 0 -11 2t-12 2q-6 -2 -15 -2q-18 0 -24.5 3t-20.5 9q-14 12 -14 26t12 19q28 11 63 11 q2 0 22 -3.5t21 -3.5q15 1 42 5q10 3 11.5 28t0.5 37q0 2 -2 9.5t-1 10.5q4 7 9 20q-1 14 -1 45l3 18q-2 17 1 52q8 -4 23 -17q5 -8 1 -31q-2 -11 7 -42q0 -11 1 -34l5 -54q0 6 5 -9q0 -2 -1 -6v-6q1 -19 37 -29q7 -2 30 -16q1 -1 31 -6q0 -6 4 -10zM258 769q18 -2 29 -4 q6 -2 9 -9q0 -1 1 -2.5t9 -8.5q4 -20 4 -35q0 -14 -7 -27q-1 0 -14 -13q-7 -6 -32 -6q-6 0 -32 7q-3 3 -19 36q-1 2 -1 8q0 12 13 18q-4 8 -4 12q0 3 7 9.5t11 7t13 1.5l7 3.5t6 2.5zM452 776q8 0 17 -5.5t15 -13.5q14 -19 14 -24q0 -1 -1.5 -6t-1.5 -6v-6q1 -6 1 -7 q0 -25 -17 -37q-3 -1 -7.5 -3.5t-11.5 -8.5q-3 -3 -12 -3q-18 0 -43 15q-4 4 -11 12q-9 16 -9 26q2 4 5 12q-1 9 2 24.5t19 19.5q4 4 13 9q15 2 28 2z" />
<glyph unicode="&#xcc;" horiz-adv-x="506" d="M469 32q0 -18 -9 -23q-17 -9 -23 -9q-1 0 -8 1.5t-9 1.5q-21 0 -24.5 -1t-11.5 -6t-9 -5q-2 0 -11 4t-10 4t-11 -4t-12 -4q-13 0 -24 5t-17 5q-1 0 -8.5 -1t-9.5 -1q-8 0 -22 12q-27 -19 -23 -19l-20 9q-9 4 -20 4q-1 0 -12.5 -2.5t-13.5 -2.5q6 0 -13 1q-7 -4 -46 -8 q-10 0 -30 5q-4 6 -15 13l-20 30q6 7 20 17h21q4 1 14 5.5t12 4.5q1 0 19.5 -5t20.5 -5q3 0 47 8q19 3 28 18q3 11 10 28q6 13 6 15q0 7 -3 9.5t-3 5.5q-3 24 -2 56q0 19 8.5 28t8.5 21q0 2 -3 6.5t-3 6.5q-10 22 -10 38q-1 12 1 26q3 15 0 45q-3 37 -3 51q0 1 5 65.5 t5 66.5q0 16 -8 28q-6 8 -18 9l-16 2q-11 5 -19 12q-1 0 -15 1q-6 0 -25 -2l-15.5 -3t-11.5 -2q-6 0 -41 11l1 15q15 15 22 15q2 0 11 -2t10 -2t14.5 3.5t19.5 4.5q11 -1 32 0q6 1 19 5l43 -9q12 2 19 2q2 0 11.5 -2t10.5 -2q-7 0 20 6q5 1 16 1q2 0 18 -2t17 -2h57 q21 0 31 -13q8 -8 8 -12t-2.5 -7t-16.5 -17q-6 -5 -20 -5q-1 0 -10.5 6.5t-11.5 6.5q-39 0 -61 -4q-8 -5 -22 -12q-8 1 -23 -1q-8 -3 -8 -24v-11l7 -7q10 -14 9 -43l-1 -34q0 -1 1.5 -8t1.5 -10q0 -11 -1.5 -34.5t-1.5 -35.5q0 -18 1 -14q-3 -6 -3 -7t2 -9t2 -12 q0 -1 -1.5 -6.5t-1.5 -7.5q0 -6 5 -16.5t5 -11.5q0 -4 -17 -21q-5 -15 -5 -12q0 -5 7.5 -13t11.5 -15q9 -18 8 -56q0 -12 -4.5 -19.5t-4.5 -13.5q0 -1 9 -36q7 -28 29 -32q2 0 4 -2q14 -10 23 -10q2 0 19.5 1.5t18.5 1.5q2 0 13 -2t12 -2q2 0 9.5 1t8.5 1q9 0 20 -11t11 -18 zM210 826q2 -1 7 -3l21 -18q7 -4 23 -17q1 -1 30 -22q11 -5 24 -14q2 -4 6 -9q2 -1 43 -13.5t42 -12.5q21 -10 25.5 -20.5t1.5 -17.5q-2 3 -19 -26q-24 -2 -28 0q-1 2 -6 4q-12 5 -35 13q-19 8 -69 16q-26 4 -40 4q-4 0 -15 3.5t-16 4.5q-10 4 -26.5 8t-26.5 9 q-20 10 -27 11h-5q-18 8 -28 26.5t-10 45.5q2 4 6 10q1 2 6 8q11 5 26 16q6 2 21 6q2 1 6 1q5 0 16.5 -4t15.5 -5q9 1 31 -4z" />
<glyph unicode="&#xcd;" horiz-adv-x="506" d="M469 32q0 -18 -9 -23q-17 -9 -23 -9q-1 0 -8 1.5t-9 1.5q-21 0 -24.5 -1t-11.5 -6t-9 -5q-2 0 -11 4t-10 4t-11 -4t-12 -4q-13 0 -24 5t-17 5q-1 0 -8.5 -1t-9.5 -1q-8 0 -22 12q-27 -19 -23 -19l-20 9q-9 4 -20 4q-1 0 -12.5 -2.5t-13.5 -2.5q6 0 -13 1q-7 -4 -46 -8 q-10 0 -30 5q-4 6 -15 13l-20 30q6 7 20 17h21q4 1 14 5.5t12 4.5q1 0 19.5 -5t20.5 -5q3 0 47 8q19 3 28 18q3 11 10 28q6 13 6 15q0 7 -3 9.5t-3 5.5q-3 24 -2 56q0 19 8.5 28t8.5 21q0 2 -3 6.5t-3 6.5q-10 22 -10 38q-1 12 1 26q3 15 0 45q-3 37 -3 51q0 1 5 65.5 t5 66.5q0 16 -8 28q-6 8 -18 9l-16 2q-11 5 -19 12q-1 0 -15 1q-6 0 -25 -2l-15.5 -3t-11.5 -2q-6 0 -41 11l1 15q15 15 22 15q2 0 11 -2t10 -2t14.5 3.5t19.5 4.5q11 -1 32 0q6 1 19 5l43 -9q12 2 19 2q2 0 11.5 -2t10.5 -2q-7 0 20 6q5 1 16 1q2 0 18 -2t17 -2h57 q21 0 31 -13q8 -8 8 -12t-2.5 -7t-16.5 -17q-6 -5 -20 -5q-1 0 -10.5 6.5t-11.5 6.5q-39 0 -61 -4q-8 -5 -22 -12q-8 1 -23 -1q-8 -3 -8 -24v-11l7 -7q10 -14 9 -43l-1 -34q0 -1 1.5 -8t1.5 -10q0 -11 -1.5 -34.5t-1.5 -35.5q0 -18 1 -14q-3 -6 -3 -7t2 -9t2 -12 q0 -1 -1.5 -6.5t-1.5 -7.5q0 -6 5 -16.5t5 -11.5q0 -4 -17 -21q-5 -15 -5 -12q0 -5 7.5 -13t11.5 -15q9 -18 8 -56q0 -12 -4.5 -19.5t-4.5 -13.5q0 -1 9 -36q7 -28 29 -32q2 0 4 -2q14 -10 23 -10q2 0 19.5 1.5t18.5 1.5q2 0 13 -2t12 -2q2 0 9.5 1t8.5 1q9 0 20 -11t11 -18 zM433 803q0 -18 -10 -36t-28 -26q0 2 -32 -12q-10 -4 -23.5 -7.5t-29.5 -8.5q-5 -1 -16 -4.5t-15 -3.5q-29 0 -56 -10l-54 -20q-13 -4 -34 -13q-2 -1 -6 -4q-4 -2 -28 0q-9 19 -14 19q-6 0 -5 -3q-3 7 0.5 14.5t11.5 9.5t15 4q32 13 67 29q11 4 23 11q9 3 25 9q13 4 30 12 q5 2 23 16q3 1 13 8q12 12 15 14q9 10 31 21q3 1 19 10q13 8 18 5q9 3 22 0q11 -5 26 -16q2 -3 5.5 -6.5t6.5 -11.5z" />
<glyph unicode="&#xce;" horiz-adv-x="506" d="M469 32q0 -18 -9 -23q-17 -9 -23 -9q-1 0 -8 1.5t-9 1.5q-21 0 -24.5 -1t-11.5 -6t-9 -5q-2 0 -11 4t-10 4t-11 -4t-12 -4q-13 0 -24 5t-17 5q-1 0 -8.5 -1t-9.5 -1q-8 0 -22 12q-27 -19 -23 -19l-20 9q-9 4 -20 4q-1 0 -12.5 -2.5t-13.5 -2.5q6 0 -13 1q-7 -4 -46 -8 q-10 0 -30 5q-4 6 -15 13l-20 30q6 7 20 17h21q4 1 14 5.5t12 4.5q1 0 19.5 -5t20.5 -5q3 0 47 8q19 3 28 18q3 11 10 28q6 13 6 15q0 7 -3 9.5t-3 5.5q-3 24 -2 56q0 19 8.5 28t8.5 21q0 2 -3 6.5t-3 6.5q-10 22 -10 38q-1 12 1 26q3 15 0 45q-3 37 -3 51q0 1 5 65.5 t5 66.5q0 16 -8 28q-6 8 -18 9l-16 2q-11 5 -19 12q-1 0 -15 1q-6 0 -25 -2l-15.5 -3t-11.5 -2q-6 0 -41 11l1 15q15 15 22 15q2 0 11 -2t10 -2t14.5 3.5t19.5 4.5q11 -1 32 0q6 1 19 5l43 -9q12 2 19 2q2 0 11.5 -2t10.5 -2q-7 0 20 6q5 1 16 1q2 0 18 -2t17 -2h57 q21 0 31 -13q8 -8 8 -12t-2.5 -7t-16.5 -17q-6 -5 -20 -5q-1 0 -10.5 6.5t-11.5 6.5q-39 0 -61 -4q-8 -5 -22 -12q-8 1 -23 -1q-8 -3 -8 -24v-11l7 -7q10 -14 9 -43l-1 -34q0 -1 1.5 -8t1.5 -10q0 -11 -1.5 -34.5t-1.5 -35.5q0 -18 1 -14q-3 -6 -3 -7t2 -9t2 -12 q0 -1 -1.5 -6.5t-1.5 -7.5q0 -6 5 -16.5t5 -11.5q0 -4 -17 -21q-5 -15 -5 -12q0 -5 7.5 -13t11.5 -15q9 -18 8 -56q0 -12 -4.5 -19.5t-4.5 -13.5q0 -1 9 -36q7 -28 29 -32q2 0 4 -2q14 -10 23 -10q2 0 19.5 1.5t18.5 1.5q2 0 13 -2t12 -2q2 0 9.5 1t8.5 1q9 0 20 -11t11 -18 zM293 841q24 -14 24 -17q0 6 16 -30q9 -5 20 -12q4 -9 21 -15.5t21 -15.5q0 -4 2 -11l7 -10q0 -5 1 -15q0 -2 2 -4.5t2 -3.5q0 -5 -6 -22t-8 -19h-22q-3 5 -28 39q-6 4 -17 13q-1 4 -3 11q-6 7 -15 23q-4 8 -7 16q-6 10 -15 17.5t-30 13.5q-7 -13 -22 -32q-7 -2 -18 -10 q-4 -10 -13 -26q-1 -3 -22 -35q-1 -1 -16 -12q-26 -19 -43 -19q-12 0 -12 17q0 12 7 31q3 3 10 11.5t20 26.5q3 4 8 12q2 7 8 20q4 5 16 11t19 13q4 3 6.5 10.5t18.5 20.5q-3 -7 15 12q3 4 6.5 7t21.5 3q12 0 12 -2q0 -1 -2.5 -2.5t-2.5 -2.5q0 -2 4 -3q13 -2 14 -9z" />
<glyph unicode="&#xcf;" horiz-adv-x="506" d="M469 32q0 -18 -9 -23q-17 -9 -23 -9q-1 0 -8 1.5t-9 1.5q-21 0 -24.5 -1t-11.5 -6t-9 -5q-2 0 -11 4t-10 4t-11 -4t-12 -4q-13 0 -24 5t-17 5q-1 0 -8.5 -1t-9.5 -1q-8 0 -22 12q-27 -19 -23 -19l-20 9q-9 4 -20 4q-1 0 -12.5 -2.5t-13.5 -2.5q6 0 -13 1q-7 -4 -46 -8 q-10 0 -30 5q-4 6 -15 13l-20 30q6 7 20 17h21q4 1 14 5.5t12 4.5q1 0 19.5 -5t20.5 -5q3 0 47 8q19 3 28 18q3 11 10 28q6 13 6 15q0 7 -3 9.5t-3 5.5q-3 24 -2 56q0 19 8.5 28t8.5 21q0 2 -3 6.5t-3 6.5q-10 22 -10 38q-1 12 1 26q3 15 0 45q-3 37 -3 51q0 1 5 65.5 t5 66.5q0 16 -8 28q-6 8 -18 9l-16 2q-11 5 -19 12q-1 0 -15 1q-6 0 -25 -2l-15.5 -3t-11.5 -2q-6 0 -41 11l1 15q15 15 22 15q2 0 11 -2t10 -2t14.5 3.5t19.5 4.5q11 -1 32 0q6 1 19 5l43 -9q12 2 19 2q2 0 11.5 -2t10.5 -2q-7 0 20 6q5 1 16 1q2 0 18 -2t17 -2h57 q21 0 31 -13q8 -8 8 -12t-2.5 -7t-16.5 -17q-6 -5 -20 -5q-1 0 -10.5 6.5t-11.5 6.5q-39 0 -61 -4q-8 -5 -22 -12q-8 1 -23 -1q-8 -3 -8 -24v-11l7 -7q10 -14 9 -43l-1 -34q0 -1 1.5 -8t1.5 -10q0 -11 -1.5 -34.5t-1.5 -35.5q0 -18 1 -14q-3 -6 -3 -7t2 -9t2 -12 q0 -1 -1.5 -6.5t-1.5 -7.5q0 -6 5 -16.5t5 -11.5q0 -4 -17 -21q-5 -15 -5 -12q0 -5 7.5 -13t11.5 -15q9 -18 8 -56q0 -12 -4.5 -19.5t-4.5 -13.5q0 -1 9 -36q7 -28 29 -32q2 0 4 -2q14 -10 23 -10q2 0 19.5 1.5t18.5 1.5q2 0 13 -2t12 -2q2 0 9.5 1t8.5 1q9 0 20 -11t11 -18 zM166 769q18 -2 29 -4q6 -2 9 -9q0 -1 1 -2.5t9 -8.5q4 -20 4 -35q0 -14 -7 -27q-1 0 -14 -13q-7 -6 -32 -6q-6 0 -32 7q-3 3 -19 36q-1 2 -1 8q0 12 13 18q-4 8 -4 12q0 3 7 9.5t11 7t13 1.5l7 3.5t6 2.5zM360 776q8 0 17 -5.5t15 -13.5q14 -19 14 -24q0 -1 -1.5 -6 t-1.5 -6v-6q1 -6 1 -7q0 -25 -17 -37q-3 -1 -7.5 -3.5t-11.5 -8.5q-3 -3 -12 -3q-18 0 -43 15q-4 4 -11 12q-9 16 -9 26q2 4 5 12q-1 9 2 24.5t19 19.5q4 4 13 9q15 2 28 2z" />
<glyph unicode="&#xd0;" />
<glyph unicode="&#xd1;" horiz-adv-x="691" d="M673 622q-1 -13 -38 -29q-12 -5 -21 -2q5 0 -12 1q-3 0 -32 -7q-6 0 -20 -2q-2 -2 -5 -8q-2 -24 -8 -42q0 -9 -1 -25q-1 -11 -4 -29q-1 -8 -8 -24q-1 2 -8 7.5t-6 7.5q0 2 5 16t5 16q0 17 -1 21q-2 8 -8.5 14t-6.5 9q0 2 3 12.5t3 11.5q1 15 -20 27q-14 9 -25 11t-11 13 q0 2 1 5.5t1 4.5q11 7 12 7t12 -3t13 -3q25 0 56 5q5 1 14 5t10 4q2 0 21.5 -7t20.5 -7q2 -1 11.5 5t11.5 6q14 0 20 -3q3 -2 9 -9t6 -9zM535 362q0 -2 -1.5 -3.5t-1.5 -2.5l-2 -53q0 -15 -3 -45q-3 -2 -10 -6q-9 19 -5 42q3 20 -7 62q-8 32 -8 27q0 2 1.5 4.5t1.5 3.5 q0 16 1 18q6 10 23 32q4 -12 8 -42q-1 -9 -2 -27q5 -15 5 -10zM313 465q-5 -4 -19 -12q-1 1 -3 1q-19 29 -19 31q0 7 7 16.5t14 11.5q25 -33 20 -48zM259 575q0 -11 -5 -23q-26 15 -22 15h-6q-5 -1 -7 -1q0 -4 -2.5 -12t-9 -10.5t-20.5 -17.5q1 7 -2.5 12.5t-3.5 9.5 q0 2 4 15t4 14q0 11 -11 22q-8 7 -27 15q-23 2 -41 2q-1 0 -11.5 -1.5t-12.5 -1.5t-13 11q-4 4 -4 9q0 6 6 13.5t12 7.5q2 0 11.5 -5t10.5 -5q-5 0 49 -2q14 -1 23.5 2.5t11.5 3.5q18 -8 48 -20q-1 -5 13 -24q5 -7 5 -29zM546 9q0 -34 -44 -32q-5 -1 -16 2q-4 8 -15 27 q-9 13 -19 43q-2 6 -13.5 16.5t-13 13t-4.5 21.5q-2 4 -4.5 14t-9.5 26q-7 11 -9 44q-4 12 -10 33q-2 18 -14 37q-16 25 -19 33q-2 5 2 20q-3 1 -6.5 5l-12.5 14q-4 1 -9 6q-12 38 -12 56q0 19 15 27q8 -7 21 -20q7 -11 9 -35q0 -4 1 -13q0 -1 9 -13q2 -8 10 -21 q4 -1 9.5 -3.5t10.5 -16.5l6 -18q5 -15 12 -41q4 -6 12 -19q2 -5 6 -12q12 -10 34 -33q24 16 44 47l22 8q11 -36 10 -68q0 -17 -4.5 -43t-4.5 -24q0 -11 5 -33q7 -32 2 -48zM352 31q0 -17 -13 -30q-15 3 -34 3q-3 0 -27 -3h-50q-13 0 -17 1t-11.5 6t-8.5 5q-2 0 -10.5 -4 t-10.5 -4q-11 -2 -36 -2q-37 -4 -32 -5q-1 0 -16 1.5t-17 1.5q6 -2 -27 -2q-4 16 -4 12v17q-1 11 -1 12q1 5 4 14q2 2 12.5 7.5t13.5 4.5q2 0 12 -2t11 -2q49 -2 76 30q1 1 6 21q6 24 6 18q0 -1 -4 9q-8 21 -7 38q1 16 6 29.5t5 19.5q-1 8 -2 19l1 37q0 1 -4.5 17.5 t-4.5 18.5q0 1 4.5 17.5t4.5 18.5q0 1 -3.5 20.5t-2.5 21.5q0 -3 4 17v40l2 38q0 8 3 22q3 3 7 8q5 -2 12 -9q12 -25 11 -48q0 -9 -3 -27q-6 -20 -6 -15q-1 -2 4 -11q2 -2 2 -9q2 -21 1 -31q0 -3 -2.5 -9.5t-1.5 -9.5q0 5 5 -25l-6 -36q4 -11 4.5 -34t7.5 -41q1 -2 1 -7 q0 -4 -1 -7q-5 -9 -2 -22q4 -21 4 -29q0 -2 -1.5 -7.5t-0.5 -8.5q4 -11 11 -34q0 -8 3 -26q1 -7 11.5 -16.5t16.5 -10.5q1 0 8 3t11 4q-7 -1 44 -1q12 0 21 -3q13 -13 11 -21zM276 782q10 9 12 9q1 0 19.5 -1.5t19 -1.5t11.5 -7t18 -6q2 0 9 -5.5t8.5 -5.5t17.5 -14 q8 -8 20 -28q10 -16 13 -16q1 0 15 1.5t15.5 1.5t10 13.5t9.5 13.5v17q1 19 8 26q11 9 31 9q6 -1 15 -6q5 -5 16 -8q4 -2 4 -12q0 -1 -2 -10t-3 -14v-9q-4 -9 -16 -22l-34 -20l-15.5 -9t-18.5 -8q-4 6 -11 6q-4 0 -11.5 -3t-10.5 -3q-7 0 -22.5 5.5t-16.5 5.5 q-6 0 -19.5 24.5t-25.5 24.5q1 0 -12 19t-20 17q-9 5 -23 9q-2 1 -11 7zM263 763q-7 -8 -16 -28q0 -7 7 -16t7 -15q0 -17 -14 -30q-6 -6 -13 -7q-5 -1 -15 0q-13 1 -18 1q-5 4 -16 22t-11 27q0 8 7 28q5 9 20 19q10 10 19 12t28 8q4 1 5 -2.5t5 -3.5t5 -15z" />
<glyph unicode="&#xd2;" horiz-adv-x="568" d="M543 212q0 -18 -11 -26q-5 -2 -11 -8q-2 -9 -8 -27q-3 -3 -8 -9q-5 -10 -7 -25q1 -8 -2 -23q-3 -1 -10 -6q-11 -7 -32 -24q-1 -6 -4 -16q-9 -19 -23 -30q-7 -1 -21 -5q-6 -8 -19 -19q-10 -1 -29 -4q-7 -2 -21 -10t-15 -8t-10.5 6t-11.5 6q-1 0 -19.5 -4t-20.5 -4 q1 0 -19 4h-26l-8 8q-7 5 -21 13q-12 2 -35 10l-7 10l-23 27q-5 3 -13 10q-3 11 -13 30q-10 10 -28 31q-3 8 -8 24q-4 7 -14 23q0 6 -1 20q-2 24 -9 74q-1 4 -5.5 17t-4.5 15q0 1 4.5 12.5t5.5 16.5q1 10 4 32v22q1 11 9 32q3 6 8 17q0 9 1 26q2 14 10 22q7 4 15 13.5 t15 21.5q3 11 12 30l23 18q5 9 19 27q6 6 12 20t12 17t20 6q6 3 19 7q55 13 63 13q1 0 9.5 -4.5t14 -5.5t17.5 -5q15 -10 37 -10h12q23 5 16 5q10 0 27 -15q8 -10 25 -26q6 -1 13 -5.5t8 -12.5q-1 -11 2 -30l23 -23q1 -3 5 -11q-9 -9 -16 -9q-1 0 -7.5 4.5t-14.5 4.5l-6 15 q0 3 1 9v8q0 4 -15.5 13l-42.5 25q-3 5 -9 13l-34 21q-11 6 -30 6q-9 0 -32 -14q-7 -2 -21.5 -7t-43.5 -18q-7 -6 -22 -20q-10 -6 -29 -21q-3 -8 -10.5 -20.5t-23.5 -35.5q-3 -2 -7 -7.5t-4 -18.5q1 -5 -5 -16q-7 -14 -7.5 -20t-3.5 -18t-7 -30l-6 -29q1 5 1 -23 q0 -3 -1 -11.5t-1 -9.5q0 -13 16 -56q3 -3 7 -11q4 -18 14 -53q6 -6 14 -19l6 -33q2 -9 10.5 -13t15.5 -7q4 -6 17 -19q9 -3 26 -13q6 -10 21 -25q36 -16 64 -16q-2 0 9 1h32q8 8 23 19q10 1 27 9q5 4 14 22q2 8 21 33q5 2 12 7q28 34 31 66q9 3 13.5 13.5t2.5 19.5 q-3 13 5 42q2 2 5 7q7 14 7 22q0 1 -3.5 11t-3.5 12q0 1 5.5 15.5t5.5 16.5q0 4 -3 10q-17 20 -17 23v41q0 2 -2 16t-2 15q0 30 10 30q9 0 16.5 -3t11.5 -13q1 -8 4.5 -14t9.5 -19q1 -11 4 -33q2 -11 2 -43q0 -3 1.5 -12.5t1.5 -10.5q0 -9 -5 -42q0 -1 -2.5 -4.5t-2.5 -5.5 q0 -11 5 -44q0 -2 2.5 -11.5t2.5 -11.5zM244 826q3 -1 8 -3l21 -18q6 -4 22 -17q1 -1 31 -22q11 -5 23 -14q2 -4 7 -9q2 -1 43 -13.5t42 -12.5q21 -10 26 -22q4 -9 0 -16q-1 3 -19 -26q-23 -2 -27 0q-2 2 -6 4q-12 5 -35 13q-19 8 -69 16q-26 4 -40 4q-4 0 -15 3.5t-16 4.5 q-10 4 -26.5 8t-26.5 9q-20 10 -27 11h-6q-18 8 -27.5 26.5t-9.5 45.5q2 4 6 10q1 2 6 8q10 5 25 16l22 6q2 1 5 1q6 0 17.5 -4l14.5 -5q9 1 31 -4z" />
<glyph unicode="&#xd3;" horiz-adv-x="568" d="M543 212q0 -18 -11 -26q-5 -2 -11 -8q-2 -9 -8 -27q-3 -3 -8 -9q-5 -10 -7 -25q1 -8 -2 -23q-3 -1 -10 -6q-11 -7 -32 -24q-1 -6 -4 -16q-9 -19 -23 -30q-7 -1 -21 -5q-6 -8 -19 -19q-10 -1 -29 -4q-7 -2 -21 -10t-15 -8t-10.5 6t-11.5 6q-1 0 -19.5 -4t-20.5 -4 q1 0 -19 4h-26l-8 8q-7 5 -21 13q-12 2 -35 10l-7 10l-23 27q-5 3 -13 10q-3 11 -13 30q-10 10 -28 31q-3 8 -8 24q-4 7 -14 23q0 6 -1 20q-2 24 -9 74q-1 4 -5.5 17t-4.5 15q0 1 4.5 12.5t5.5 16.5q1 10 4 32v22q1 11 9 32q3 6 8 17q0 9 1 26q2 14 10 22q7 4 15 13.5 t15 21.5q3 11 12 30l23 18q5 9 19 27q6 6 12 20t12 17t20 6q6 3 19 7q55 13 63 13q1 0 9.5 -4.5t14 -5.5t17.5 -5q15 -10 37 -10h12q23 5 16 5q10 0 27 -15q8 -10 25 -26q6 -1 13 -5.5t8 -12.5q-1 -11 2 -30l23 -23q1 -3 5 -11q-9 -9 -16 -9q-1 0 -7.5 4.5t-14.5 4.5l-6 15 q0 3 1 9v8q0 4 -15.5 13l-42.5 25q-3 5 -9 13l-34 21q-11 6 -30 6q-9 0 -32 -14q-7 -2 -21.5 -7t-43.5 -18q-7 -6 -22 -20q-10 -6 -29 -21q-3 -8 -10.5 -20.5t-23.5 -35.5q-3 -2 -7 -7.5t-4 -18.5q1 -5 -5 -16q-7 -14 -7.5 -20t-3.5 -18t-7 -30l-6 -29q1 5 1 -23 q0 -3 -1 -11.5t-1 -9.5q0 -13 16 -56q3 -3 7 -11q4 -18 14 -53q6 -6 14 -19l6 -33q2 -9 10.5 -13t15.5 -7q4 -6 17 -19q9 -3 26 -13q6 -10 21 -25q36 -16 64 -16q-2 0 9 1h32q8 8 23 19q10 1 27 9q5 4 14 22q2 8 21 33q5 2 12 7q28 34 31 66q9 3 13.5 13.5t2.5 19.5 q-3 13 5 42q2 2 5 7q7 14 7 22q0 1 -3.5 11t-3.5 12q0 1 5.5 15.5t5.5 16.5q0 4 -3 10q-17 20 -17 23v41q0 2 -2 16t-2 15q0 30 10 30q9 0 16.5 -3t11.5 -13q1 -8 4.5 -14t9.5 -19q1 -11 4 -33q2 -11 2 -43q0 -3 1.5 -12.5t1.5 -10.5q0 -9 -5 -42q0 -1 -2.5 -4.5t-2.5 -5.5 q0 -11 5 -44q0 -2 2.5 -11.5t2.5 -11.5zM450 789q0 -18 -10 -36t-28 -26q0 2 -32 -11q-10 -5 -23.5 -8.5t-29.5 -8.5q-5 -1 -16 -4.5t-15 -3.5q-29 0 -56 -9.5t-54 -20.5q-13 -4 -34 -13q-3 -1 -6 -4q-4 -2 -28 0q-9 19 -15 19q-5 0 -4 -3q-3 7 0 16q3 6 11 8l16 4l67 29 q11 4 23 11l23.5 8t31.5 13q5 2 22 17q4 0 14 8q12 12 15 13q9 10 30 21q4 1 20 10q13 8 18 5q9 3 22 0q10 -5 26 -16q2 -3 5.5 -6.5t6.5 -11.5z" />
</font>
</defs>
</svg>
